font.ufo
<glyph name="comma" format="2">
	<unicode hex="002C"/>
	<advance width="261"/>
	<outline>
		<contour>
			<point x="62" y="-142" type="line"/>
			<point x="136" y="-115"/>
			<point x="205" y="-53"/>
			<point x="205" y="50" type="curve" smooth="yes"/>
			<point x="205" y="74"/>
			<point x="203" y="92"/>
			<point x="194" y="117" type="curve"/>
			<point x="173" y="134"/>
			<point x="155" y="139"/>
			<point x="133" y="139" type="curve" smooth="yes"/>
			<point x="90" y="139"/>
			<point x="58" y="108"/>
			<point x="58" y="66" type="curve" smooth="yes"/>
			<point x="58" y="43"/>
			<point x="71" y="16"/>
			<point x="105" y="-3" type="curve" smooth="yes"/>
			<point x="163" y="-35" type="line"/>
			<point x="157" y="-9" type="line"/>
			<point x="132" y="-67"/>
			<point x="109" y="-87"/>
			<point x="51" y="-118" type="curve"/>
		</contour>
	</outline>
</glyph>
<glyph name="at" format="2">
	<unicode hex="0040"/>
	<advance width="875"/>
	<outline>
		<contour>
			<point x="324" y="40" type="curve" smooth="yes"/>
			<point x="390" y="40"/>
			<point x="444" y="95"/>
			<point x="493" y="171" type="curve"/>
			<point x="491" y="181" type="line"/>
			<point x="489" y="191" type="line"/>
			<point x="439" y="129"/>
			<point x="408" y="111"/>
			<point x="382" y="111" type="curve" smooth="yes"/>
			<point x="352" y="111"/>
			<point x="340" y="136"/>
			<point x="340" y="181" type="curve" smooth="yes"/>
			<point x="340" y="287"/>
			<point x="401" y="430"/>
			<point x="472" y="430" type="curve" smooth="yes"/>
			<point x="505" y="430"/>
			<point x="523" y="413"/>
			<point x="537" y="388" type="curve"/>
			<point x="604" y="421" type="line"/>
			<point x="573" y="465"/>
			<point x="547" y="483"/>
			<point x="494" y="483" type="curve" smooth="yes"/>
			<point x="379" y="483"/>
			<point x="225" y="314"/>
			<point x="225" y="156" type="curve" smooth="yes"/>
			<point x="225" y="71"/>
			<point x="275" y="40"/>
		</contour>
		<contour>
			<point x="589" y="40" type="curve" smooth="yes"/>
			<point x="703" y="40"/>
			<point x="832" y="148"/>
			<point x="832" y="338" type="curve" smooth="yes"/>
			<point x="832" y="512"/>
			<point x="715" y="654"/>
			<point x="494" y="654" type="curve" smooth="yes"/>
			<point x="213" y="654"/>
			<point x="42" y="421"/>
			<point x="42" y="200" type="curve" smooth="yes"/>
			<point x="42" y="-15"/>
			<point x="170" y="-153"/>
			<point x="391" y="-153" type="curve" smooth="yes"/>
			<point x="458" y="-153"/>
			<point x="526" y="-137"/>
			<point x="583" y="-107" type="curve"/>
			<point x="576" y="-90" type="line"/>
			<point x="513" y="-116"/>
			<point x="459" y="-127"/>
			<point x="391" y="-127" type="curve" smooth="yes"/>
			<point x="220" y="-127"/>
			<point x="98" y="-14"/>
			<point x="98" y="200" type="curve" smooth="yes"/>
			<point x="98" y="415"/>
			<point x="235" y="628"/>
			<point x="488" y="628" type="curve" smooth="yes"/>
			<point x="672" y="628"/>
			<point x="777" y="517"/>
			<point x="777" y="338" type="curve" smooth="yes"/>
			<point x="777" y="169"/>
			<point x="683" y="78"/>
			<point x="627" y="78" type="curve" smooth="yes"/>
			<point x="587" y="78"/>
			<point x="564" y="103"/>
			<point x="583" y="195" type="curve" smooth="yes"/>
			<point x="642" y="475" type="line"/>
			<point x="631" y="486" type="line"/>
			<point x="522" y="425" type="line"/>
			<point x="463" y="152" type="line"/>
			<point x="471" y="148" type="line"/>
			<point x="469" y="85"/>
			<point x="514" y="40"/>
		</contour>
	</outline>
</glyph>
<glyph name="A" format="2">
	<unicode hex="0041"/>
	<advance width="620"/>
	<outline>
		<contour>
			<point x="12" y="0" type="line"/>
			<point x="182" y="0" type="line"/>
			<point x="182" y="22" type="line"/>
			<point x="100" y="32" type="line"/>
			<point x="82" y="32" type="line"/>
			<point x="12" y="22" type="line"/>
		</contour>
		<contour>
			<point x="64" y="0" type="line"/>
			<point x="97" y="0" type="line"/>
			<point x="259" y="528" type="line"/>
			<point x="263" y="541" type="line"/>
			<point x="245" y="541" type="line"/>
			<point x="406" y="0" type="line"/>
			<point x="557" y="0" type="line"/>
			<point x="347" y="660" type="line"/>
			<point x="272" y="660" type="line"/>
		</contour>
		<contour>
			<point x="151" y="217" type="line"/>
			<point x="420" y="217" type="line"/>
			<point x="420" y="244" type="line"/>
			<point x="151" y="244" type="line"/>
		</contour>
		<contour>
			<point x="325" y="0" type="line"/>
			<point x="608" y="0" type="line"/>
			<point x="608" y="22" type="line"/>
			<point x="524" y="36" type="line"/>
			<point x="436" y="36" type="line"/>
			<point x="325" y="22" type="line"/>
		</contour>
	</outline>
	<anchor name="aboveUC" x="308" y="677"/>
	<anchor name="belowLC" x="260" y="-20"/>
	<anchor name="ogonek" x="490" y="0"/>
</glyph>
<glyph name="E" format="2">
	<unicode hex="0045"/>
	<advance width="532"/>
	<outline>
		<contour>
			<point x="28" y="0" type="line"/>
			<point x="203" y="0" type="line"/>
			<point x="203" y="36" type="line"/>
			<point x="132" y="36" type="line"/>
			<point x="28" y="22" type="line"/>
		</contour>
		<contour>
			<point x="93" y="0" type="curve"/>
			<point x="243" y="0" type="line"/>
			<point x="239" y="79"/>
			<point x="238" y="206"/>
			<point x="238" y="310" type="curve" smooth="yes"/>
			<point x="238" y="354" type="line" smooth="yes"/>
			<point x="238" y="455"/>
			<point x="239" y="579"/>
			<point x="243" y="657" type="curve"/>
			<point x="94" y="657" type="line"/>
			<point x="98" y="579"/>
			<point x="98" y="455"/>
			<point x="98" y="354" type="curve" smooth="yes"/>
			<point x="98" y="310" type="line" smooth="yes"/>
			<point x="98" y="206"/>
			<point x="97" y="79"/>
		</contour>
		<contour>
			<point x="171" y="0" type="line"/>
			<point x="491" y="0" type="line"/>
			<point x="503" y="188" type="line"/>
			<point x="481" y="188" type="line"/>
			<point x="405" y="12" type="line"/>
			<point x="440" y="27" type="line"/>
			<point x="171" y="27" type="line"/>
		</contour>
		<contour>
			<point x="171" y="321" type="line"/>
			<point x="351" y="321" type="line"/>
			<point x="351" y="350" type="line"/>
			<point x="171" y="350" type="line"/>
		</contour>
		<contour>
			<point x="371" y="224" type="line"/>
			<point x="392" y="224" type="line"/>
			<point x="392" y="446" type="line"/>
			<point x="371" y="446" type="line"/>
			<point x="336" y="344" type="line"/>
			<point x="336" y="326" type="line"/>
		</contour>
		<contour>
			<point x="28" y="636" type="line"/>
			<point x="132" y="621" type="line"/>
			<point x="203" y="621" type="line"/>
			<point x="203" y="657" type="line"/>
			<point x="28" y="657" type="line"/>
		</contour>
		<contour>
			<point x="465" y="480" type="line"/>
			<point x="487" y="480" type="line"/>
			<point x="475" y="657" type="line"/>
			<point x="153" y="657" type="line"/>
			<point x="153" y="630" type="line"/>
			<point x="424" y="630" type="line"/>
			<point x="389" y="645" type="line"/>
		</contour>
	</outline>
	<anchor name="aboveUC" x="290" y="677"/>
	<anchor name="belowLC" x="286" y="-20"/>
	<anchor name="ogonek" x="397" y="0"/>
</glyph>
<glyph name="F" format="2">
	<unicode hex="0046"/>
	<advance width="508"/>
	<outline>
		<contour>
			<point x="28" y="0" type="line"/>
			<point x="320" y="0" type="line"/>
			<point x="320" y="22" type="line"/>
			<point x="203" y="36" type="line"/>
			<point x="132" y="36" type="line"/>
			<point x="28" y="22" type="line"/>
		</contour>
		<contour>
			<point x="93" y="0" type="curve"/>
			<point x="243" y="0" type="line"/>
			<point x="239" y="79"/>
			<point x="238" y="206"/>
			<point x="238" y="310" type="curve" smooth="yes"/>
			<point x="238" y="354" type="line" smooth="yes"/>
			<point x="238" y="455"/>
			<point x="239" y="579"/>
			<point x="243" y="657" type="curve"/>
			<point x="94" y="657" type="line"/>
			<point x="98" y="579"/>
			<point x="98" y="455"/>
			<point x="98" y="354" type="curve" smooth="yes"/>
			<point x="98" y="310" type="line" smooth="yes"/>
			<point x="98" y="206"/>
			<point x="97" y="79"/>
		</contour>
		<contour>
			<point x="171" y="321" type="line"/>
			<point x="347" y="321" type="line"/>
			<point x="347" y="350" type="line"/>
			<point x="171" y="350" type="line"/>
		</contour>
		<contour>
			<point x="367" y="224" type="line"/>
			<point x="388" y="224" type="line"/>
			<point x="388" y="446" type="line"/>
			<point x="367" y="446" type="line"/>
			<point x="332" y="344" type="line"/>
			<point x="332" y="326" type="line"/>
		</contour>
		<contour>
			<point x="28" y="636" type="line"/>
			<point x="132" y="621" type="line"/>
			<point x="203" y="621" type="line"/>
			<point x="203" y="657" type="line"/>
			<point x="28" y="657" type="line"/>
		</contour>
		<contour>
			<point x="461" y="480" type="line"/>
			<point x="483" y="480" type="line"/>
			<point x="471" y="657" type="line"/>
			<point x="153" y="657" type="line"/>
			<point x="153" y="630" type="line"/>
			<point x="420" y="630" type="line"/>
			<point x="385" y="645" type="line"/>
		</contour>
	</outline>
	<anchor name="aboveUC" x="281" y="677"/>
	<anchor name="belowLC" x="173" y="-20"/>
</glyph>
<glyph name="L" format="2">
	<unicode hex="004C"/>
	<advance width="512"/>
	<outline>
		<contour>
			<point x="28" y="0" type="line"/>
			<point x="203" y="0" type="line"/>
			<point x="203" y="36" type="line"/>
			<point x="132" y="36" type="line"/>
			<point x="28" y="22" type="line"/>
		</contour>
		<contour>
			<point x="93" y="0" type="curve"/>
			<point x="243" y="0" type="line"/>
			<point x="239" y="79"/>
			<point x="238" y="206"/>
			<point x="238" y="310" type="curve" smooth="yes"/>
			<point x="238" y="354" type="line" smooth="yes"/>
			<point x="238" y="455"/>
			<point x="239" y="579"/>
			<point x="243" y="657" type="curve"/>
			<point x="94" y="657" type="line"/>
			<point x="98" y="579"/>
			<point x="98" y="455"/>
			<point x="98" y="354" type="curve" smooth="yes"/>
			<point x="98" y="310" type="line" smooth="yes"/>
			<point x="98" y="206"/>
			<point x="97" y="79"/>
		</contour>
		<contour>
			<point x="171" y="0" type="line"/>
			<point x="480" y="0" type="line"/>
			<point x="492" y="202" type="line"/>
			<point x="470" y="202" type="line"/>
			<point x="394" y="12" type="line"/>
			<point x="430" y="27" type="line"/>
			<point x="171" y="27" type="line"/>
		</contour>
		<contour>
			<point x="28" y="636" type="line"/>
			<point x="132" y="621" type="line"/>
			<point x="203" y="621" type="line"/>
			<point x="307" y="636" type="line"/>
			<point x="307" y="657" type="line"/>
			<point x="28" y="657" type="line"/>
		</contour>
	</outline>
	<anchor name="aboveUC" x="171" y="677"/>
	<anchor name="belowLC" x="266" y="-20"/>
</glyph>
<glyph name="M" format="2">
	<unicode hex="004D"/>
	<advance width="805"/>
	<outline>
		<contour>
			<point x="28" y="0" type="line"/>
			<point x="203" y="0" type="line"/>
			<point x="203" y="22" type="line"/>
			<point x="126" y="32" type="line"/>
			<point x="103" y="32" type="line"/>
			<point x="28" y="22" type="line"/>
		</contour>
		<contour>
			<point x="28" y="636" type="line"/>
			<point x="130" y="621" type="line"/>
			<point x="132" y="621" type="line"/>
			<point x="132" y="657" type="line"/>
			<point x="28" y="657" type="line"/>
		</contour>
		<contour>
			<point x="99" y="0" type="line"/>
			<point x="129" y="0" type="line"/>
			<point x="129" y="346" type="line"/>
			<point x="129" y="637" type="line"/>
			<point x="99" y="637" type="line"/>
		</contour>
		<contour>
			<point x="320" y="0" type="line"/>
			<point x="375" y="0" type="line"/>
			<point x="571" y="587" type="line"/>
			<point x="575" y="598" type="line"/>
			<point x="582" y="598" type="line"/>
			<point x="582" y="657" type="line"/>
			<point x="563" y="657" type="line"/>
			<point x="399" y="175" type="line"/>
			<point x="397" y="168" type="line"/>
			<point x="410" y="168" type="line"/>
			<point x="245" y="657" type="line"/>
			<point x="111" y="657" type="line"/>
			<point x="111" y="571" type="line"/>
			<point x="125" y="571" type="line"/>
		</contour>
		<contour>
			<point x="500" y="0" type="line"/>
			<point x="776" y="0" type="line"/>
			<point x="776" y="22" type="line"/>
			<point x="672" y="36" type="line"/>
			<point x="601" y="36" type="line"/>
			<point x="500" y="22" type="line"/>
		</contour>
		<contour>
			<point x="561" y="0" type="curve"/>
			<point x="711" y="0" type="line"/>
			<point x="707" y="79"/>
			<point x="707" y="206"/>
			<point x="707" y="310" type="curve" smooth="yes"/>
			<point x="707" y="354" type="line" smooth="yes"/>
			<point x="707" y="455"/>
			<point x="707" y="579"/>
			<point x="711" y="657" type="curve"/>
			<point x="567" y="657" type="line"/>
			<point x="567" y="310" type="line" smooth="yes"/>
			<point x="567" y="206"/>
			<point x="565" y="79"/>
		</contour>
		<contour>
			<point x="601" y="621" type="line"/>
			<point x="672" y="621" type="line"/>
			<point x="776" y="636" type="line"/>
			<point x="776" y="657" type="line"/>
			<point x="601" y="657" type="line"/>
		</contour>
	</outline>
	<anchor name="aboveUC" x="404" y="677"/>
	<anchor name="belowLC" x="357" y="-20"/>
</glyph>
<glyph name="S" format="2">
	<unicode hex="0053"/>
	<advance width="494"/>
	<outline>
		<contour>
			<point x="220" y="-16" type="curve" smooth="yes"/>
			<point x="384" y="-16"/>
			<point x="452" y="70"/>
			<point x="452" y="182" type="curve" smooth="yes"/>
			<point x="452" y="295"/>
			<point x="376" y="340"/>
			<point x="299" y="381" type="curve" smooth="yes"/>
			<point x="270" y="396" type="line" smooth="yes"/>
			<point x="208" y="429"/>
			<point x="152" y="464"/>
			<point x="152" y="532" type="curve" smooth="yes"/>
			<point x="152" y="604"/>
			<point x="204" y="647"/>
			<point x="272" y="647" type="curve" smooth="yes"/>
			<point x="316" y="647"/>
			<point x="348" y="634"/>
			<point x="387" y="601" type="curve"/>
			<point x="385" y="628" type="line"/>
			<point x="333" y="648" type="line"/>
			<point x="396" y="476" type="line"/>
			<point x="418" y="476" type="line"/>
			<point x="422" y="625" type="line"/>
			<point x="385" y="653"/>
			<point x="331" y="673"/>
			<point x="267" y="673" type="curve" smooth="yes"/>
			<point x="127" y="673"/>
			<point x="48" y="593"/>
			<point x="48" y="484" type="curve" smooth="yes"/>
			<point x="48" y="374"/>
			<point x="122" y="325"/>
			<point x="196" y="286" type="curve" smooth="yes"/>
			<point x="225" y="270" type="line" smooth="yes"/>
			<point x="287" y="238"/>
			<point x="341" y="203"/>
			<point x="341" y="134" type="curve" smooth="yes"/>
			<point x="341" y="54"/>
			<point x="284" y="10"/>
			<point x="215" y="10" type="curve" smooth="yes"/>
			<point x="164" y="10"/>
			<point x="129" y="20"/>
			<point x="79" y="55" type="curve"/>
			<point x="82" y="42" type="line"/>
			<point x="128" y="12" type="line"/>
			<point x="68" y="191" type="line"/>
			<point x="47" y="191" type="line"/>
			<point x="39" y="36" type="line"/>
			<point x="92" y="3"/>
			<point x="153" y="-16"/>
		</contour>
	</outline>
	<anchor name="aboveUC" x="261" y="677"/>
	<anchor name="baseLC" x="228" y="0"/>
	<anchor name="belowLC" x="229" y="-20"/>
</glyph>
<glyph name="T" format="2">
	<unicode hex="0054"/>
	<advance width="580"/>
	<outline>
		<contour>
			<point x="141" y="0" type="line"/>
			<point x="438" y="0" type="line"/>
			<point x="438" y="22" type="line"/>
			<point x="328" y="36" type="line"/>
			<point x="251" y="36" type="line"/>
			<point x="141" y="22" type="line"/>
		</contour>
		<contour>
			<point x="215" y="0" type="curve"/>
			<point x="364" y="0" type="line"/>
			<point x="360" y="79"/>
			<point x="360" y="206"/>
			<point x="360" y="310" type="curve" smooth="yes"/>
			<point x="360" y="354" type="line" smooth="yes"/>
			<point x="360" y="455"/>
			<point x="360" y="579"/>
			<point x="364" y="657" type="curve"/>
			<point x="215" y="657" type="line"/>
			<point x="219" y="579"/>
			<point x="220" y="455"/>
			<point x="220" y="354" type="curve" smooth="yes"/>
			<point x="220" y="310" type="line" smooth="yes"/>
			<point x="220" y="206"/>
			<point x="219" y="79"/>
		</contour>
		<contour>
			<point x="20" y="464" type="line"/>
			<point x="41" y="464" type="line"/>
			<point x="118" y="645" type="line"/>
			<point x="82" y="630" type="line"/>
			<point x="498" y="630" type="line"/>
			<point x="461" y="645" type="line"/>
			<point x="538" y="464" type="line"/>
			<point x="560" y="464" type="line"/>
			<point x="548" y="657" type="line"/>
			<point x="32" y="657" type="line"/>
		</contour>
	</outline>
	<anchor name="aboveUC" x="290" y="677"/>
	<anchor name="baseLC" x="290" y="0"/>
	<anchor name="belowLC" x="290" y="-20"/>
</glyph>
<glyph name="X" format="2">
	<unicode hex="0058"/>
	<advance width="618"/>
	<outline>
		<contour>
			<point x="12" y="0" type="line"/>
			<point x="194" y="0" type="line"/>
			<point x="194" y="22" type="line"/>
			<point x="117" y="32" type="line"/>
			<point x="86" y="32" type="line"/>
			<point x="12" y="22" type="line"/>
		</contour>
		<contour>
			<point x="63" y="0" type="line"/>
			<point x="99" y="0" type="line"/>
			<point x="275" y="295" type="line"/>
			<point x="286" y="313" type="line"/>
			<point x="311" y="313" type="line"/>
			<point x="273" y="340" type="line"/>
		</contour>
		<contour>
			<point x="318" y="0" type="line"/>
			<point x="606" y="0" type="line"/>
			<point x="606" y="22" type="line"/>
			<point x="514" y="36" type="line"/>
			<point x="430" y="36" type="line"/>
			<point x="318" y="22" type="line"/>
		</contour>
		<contour>
			<point x="343" y="347" type="line"/>
			<point x="530" y="657" type="line"/>
			<point x="494" y="657" type="line"/>
			<point x="338" y="390" type="line"/>
			<point x="328" y="373" type="line"/>
			<point x="307" y="373" type="line"/>
		</contour>
		<contour>
			<point x="407" y="0" type="line"/>
			<point x="562" y="0" type="line"/>
			<point x="217" y="657" type="line"/>
			<point x="62" y="657" type="line"/>
		</contour>
		<contour>
			<point x="21" y="636" type="line"/>
			<point x="111" y="621" type="line"/>
			<point x="194" y="621" type="line"/>
			<point x="305" y="636" type="line"/>
			<point x="305" y="657" type="line"/>
			<point x="21" y="657" type="line"/>
		</contour>
		<contour>
			<point x="400" y="636" type="line"/>
			<point x="476" y="626" type="line"/>
			<point x="507" y="626" type="line"/>
			<point x="581" y="636" type="line"/>
			<point x="581" y="657" type="line"/>
			<point x="400" y="657" type="line"/>
		</contour>
	</outline>
	<anchor name="aboveUC" x="342" y="677"/>
	<anchor name="belowLC" x="268" y="-20"/>
</glyph>
<glyph name="Y" format="2">
	<unicode hex="0059"/>
	<advance width="589"/>
	<outline>
		<contour>
			<point x="147" y="0" type="line"/>
			<point x="439" y="0" type="line"/>
			<point x="439" y="22" type="line"/>
			<point x="331" y="36" type="line"/>
			<point x="255" y="36" type="line"/>
			<point x="147" y="22" type="line"/>
		</contour>
		<contour>
			<point x="219" y="0" type="curve"/>
			<point x="367" y="0" type="line"/>
			<point x="364" y="103"/>
			<point x="363" y="178"/>
			<point x="363" y="295" type="curve"/>
			<point x="223" y="295" type="line"/>
			<point x="223" y="178"/>
			<point x="222" y="103"/>
		</contour>
		<contour>
			<point x="257" y="194" type="line"/>
			<point x="326" y="194" type="line"/>
			<point x="528" y="657" type="line"/>
			<point x="494" y="657" type="line"/>
			<point x="350" y="311" type="line"/>
			<point x="347" y="304" type="line"/>
			<point x="357" y="304" type="line"/>
			<point x="206" y="657" type="line"/>
			<point x="50" y="657" type="line"/>
		</contour>
		<contour>
			<point x="12" y="636" type="line"/>
			<point x="100" y="621" type="line"/>
			<point x="181" y="621" type="line"/>
			<point x="289" y="636" type="line"/>
			<point x="289" y="657" type="line"/>
			<point x="12" y="657" type="line"/>
		</contour>
		<contour>
			<point x="409" y="636" type="line"/>
			<point x="482" y="626" type="line"/>
			<point x="503" y="626" type="line"/>
			<point x="577" y="636" type="line"/>
			<point x="577" y="657" type="line"/>
			<point x="409" y="657" type="line"/>
		</contour>
	</outline>
	<anchor name="aboveUC" x="339" y="677"/>
	<anchor name="belowLC" x="291" y="-20"/>
</glyph>
<glyph name="bracketleft" format="2">
	<unicode hex="005B"/>
	<advance width="343"/>
	<outline>
		<contour>
			<point x="104" y="-163" type="curve"/>
			<point x="226" y="-163" type="line"/>
			<point x="222" y="-84"/>
			<point x="222" y="44"/>
			<point x="222" y="148" type="curve" smooth="yes"/>
			<point x="222" y="410" type="line" smooth="yes"/>
			<point x="222" y="512"/>
			<point x="223" y="635"/>
			<point x="227" y="713" type="curve"/>
			<point x="104" y="713" type="line"/>
			<point x="108" y="635"/>
			<point x="110" y="512"/>
			<point x="110" y="410" type="curve" smooth="yes"/>
			<point x="110" y="148" type="line" smooth="yes"/>
			<point x="110" y="44"/>
			<point x="108" y="-84"/>
		</contour>
		<contour>
			<point x="150" y="-163" type="line"/>
			<point x="307" y="-163" type="line"/>
			<point x="307" y="-141" type="line"/>
			<point x="193" y="-126" type="line"/>
			<point x="150" y="-126" type="line"/>
		</contour>
		<contour>
			<point x="150" y="676" type="line"/>
			<point x="193" y="676" type="line"/>
			<point x="307" y="692" type="line"/>
			<point x="307" y="713" type="line"/>
			<point x="150" y="713" type="line"/>
		</contour>
	</outline>
</glyph>
<glyph name="c" format="2">
	<unicode hex="0063"/>
	<advance width="452"/>
	<outline>
		<contour>
			<point x="247" y="-15" type="curve" smooth="yes"/>
			<point x="327" y="-15"/>
			<point x="388" y="19"/>
			<point x="425" y="96" type="curve"/>
			<point x="410" y="108" type="line"/>
			<point x="383" y="78"/>
			<point x="349" y="59"/>
			<point x="306" y="59" type="curve" smooth="yes"/>
			<point x="219" y="59"/>
			<point x="171" y="130"/>
			<point x="171" y="246" type="curve" smooth="yes"/>
			<point x="171" y="388"/>
			<point x="224" y="446"/>
			<point x="280" y="446" type="curve" smooth="yes"/>
			<point x="306" y="446"/>
			<point x="328" y="441"/>
			<point x="353" y="426" type="curve"/>
			<point x="296" y="457" type="line"/>
			<point x="302" y="384" type="line" smooth="yes"/>
			<point x="306" y="323"/>
			<point x="336" y="303"/>
			<point x="367" y="303" type="curve" smooth="yes"/>
			<point x="398" y="303"/>
			<point x="416" y="317"/>
			<point x="424" y="348" type="curve"/>
			<point x="421" y="417"/>
			<point x="365" y="472"/>
			<point x="268" y="472" type="curve" smooth="yes"/>
			<point x="133" y="472"/>
			<point x="32" y="386"/>
			<point x="32" y="223" type="curve" smooth="yes"/>
			<point x="32" y="69"/>
			<point x="125" y="-15"/>
		</contour>
	</outline>
	<anchor name="aboveLC" x="263" y="478"/>
	<anchor name="baseLC" x="250" y="0"/>
	<anchor name="belowLC" x="250" y="-20"/>
</glyph>
<glyph name="g" format="2">
	<unicode hex="0067"/>
	<advance width="505"/>
	<outline>
		<contour>
			<point x="212" y="-246" type="curve" smooth="yes"/>
			<point x="389" y="-246"/>
			<point x="474" y="-153"/>
			<point x="474" y="-59" type="curve" smooth="yes"/>
			<point x="474" y="26"/>
			<point x="419" y="74"/>
			<point x="309" y="74" type="curve" smooth="yes"/>
			<point x="184" y="74" type="line" smooth="yes"/>
			<point x="136" y="74"/>
			<point x="112" y="89"/>
			<point x="112" y="119" type="curve" smooth="yes"/>
			<point x="112" y="148"/>
			<point x="130" y="168"/>
			<point x="148" y="181" type="curve"/>
			<point x="132" y="203" type="line"/>
			<point x="132" y="193" type="line"/>
			<point x="79" y="156"/>
			<point x="34" y="115"/>
			<point x="34" y="55" type="curve" smooth="yes"/>
			<point x="34" y="-4"/>
			<point x="82" y="-36"/>
			<point x="136" y="-43" type="curve"/>
			<point x="139" y="-44" type="line"/>
			<point x="152" y="-47"/>
			<point x="167" y="-47"/>
			<point x="179" y="-47" type="curve" smooth="yes"/>
			<point x="281" y="-47" type="line" smooth="yes"/>
			<point x="342" y="-47"/>
			<point x="374" y="-68"/>
			<point x="374" y="-114" type="curve" smooth="yes"/>
			<point x="374" y="-172"/>
			<point x="320" y="-221"/>
			<point x="218" y="-221" type="curve" smooth="yes"/>
			<point x="136" y="-221"/>
			<point x="100" y="-181"/>
			<point x="100" y="-129" type="curve" smooth="yes"/>
			<point x="100" y="-85"/>
			<point x="122" y="-64"/>
			<point x="156" y="-37" type="curve"/>
			<point x="152" y="-33" type="line"/>
			<point x="84" y="-53"/>
			<point x="14" y="-77"/>
			<point x="14" y="-140" type="curve" smooth="yes"/>
			<point x="14" y="-201"/>
			<point x="61" y="-246"/>
		</contour>
		<contour>
			<point x="227" y="154" type="curve" smooth="yes"/>
			<point x="339" y="154"/>
			<point x="413" y="218"/>
			<point x="413" y="312" type="curve" smooth="yes"/>
			<point x="413" y="346"/>
			<point x="405" y="375"/>
			<point x="389" y="399" type="curve"/>
			<point x="386" y="404" type="line"/>
			<point x="358" y="446"/>
			<point x="304" y="472"/>
			<point x="227" y="472" type="curve" smooth="yes"/>
			<point x="115" y="472"/>
			<point x="42" y="409"/>
			<point x="42" y="315" type="curve" smooth="yes"/>
			<point x="42" y="219"/>
			<point x="106" y="154"/>
		</contour>
		<contour>
			<point x="227" y="179" type="curve" smooth="yes"/>
			<point x="188" y="179"/>
			<point x="164" y="214"/>
			<point x="164" y="313" type="curve" smooth="yes"/>
			<point x="164" y="411"/>
			<point x="188" y="448"/>
			<point x="227" y="448" type="curve" smooth="yes"/>
			<point x="266" y="448"/>
			<point x="291" y="413"/>
			<point x="291" y="314" type="curve" smooth="yes"/>
			<point x="291" y="216"/>
			<point x="266" y="179"/>
		</contour>
		<contour>
			<point x="369" y="382" type="line"/>
			<point x="489" y="382" type="line"/>
			<point x="489" y="464" type="line"/>
			<point x="479" y="472" type="line"/>
			<point x="367" y="404" type="line"/>
			<point x="363" y="404" type="line"/>
		</contour>
	</outline>
	<anchor name="aboveLC" x="234" y="478"/>
	<anchor name="belowLC" x="230" y="-258"/>
</glyph>
<glyph name="h" format="2">
	<unicode hex="0068"/>
	<advance width="568"/>
	<outline>
		<contour>
			<point x="24" y="0" type="line"/>
			<point x="264" y="0" type="line"/>
			<point x="264" y="22" type="line"/>
			<point x="183" y="36" type="line"/>
			<point x="109" y="36" type="line"/>
			<point x="24" y="22" type="line"/>
		</contour>
		<contour>
			<point x="75" y="0" type="curve"/>
			<point x="218" y="0" type="line"/>
			<point x="213" y="51"/>
			<point x="213" y="142"/>
			<point x="213" y="209" type="curve" smooth="yes"/>
			<point x="213" y="369" type="line"/>
			<point x="213" y="371" type="line"/>
			<point x="213" y="515" type="line"/>
			<point x="217" y="720" type="line"/>
			<point x="203" y="731" type="line"/>
			<point x="20" y="683" type="line"/>
			<point x="20" y="665" type="line"/>
			<point x="80" y="649" type="line"/>
			<point x="80" y="209" type="line" smooth="yes"/>
			<point x="80" y="142"/>
			<point x="80" y="51"/>
		</contour>
		<contour>
			<point x="309" y="0" type="line"/>
			<point x="546" y="0" type="line"/>
			<point x="546" y="22" type="line"/>
			<point x="464" y="36" type="line"/>
			<point x="391" y="36" type="line"/>
			<point x="309" y="22" type="line"/>
		</contour>
		<contour>
			<point x="356" y="0" type="curve"/>
			<point x="500" y="0" type="line"/>
			<point x="495" y="51"/>
			<point x="495" y="142"/>
			<point x="495" y="209" type="curve" smooth="yes"/>
			<point x="495" y="319" type="line" smooth="yes"/>
			<point x="495" y="426"/>
			<point x="446" y="472"/>
			<point x="370" y="472" type="curve" smooth="yes"/>
			<point x="300" y="472"/>
			<point x="244" y="434"/>
			<point x="195" y="357" type="curve"/>
			<point x="186" y="357" type="line"/>
			<point x="188" y="332" type="line"/>
			<point x="223" y="372"/>
			<point x="265" y="396"/>
			<point x="302" y="396" type="curve" smooth="yes"/>
			<point x="342" y="396"/>
			<point x="361" y="376"/>
			<point x="361" y="316" type="curve" smooth="yes"/>
			<point x="361" y="209" type="line" smooth="yes"/>
			<point x="361" y="142"/>
			<point x="361" y="51"/>
		</contour>
	</outline>
	<anchor name="aboveLC" x="145" y="731"/>
	<anchor name="belowLC" x="285" y="-20"/>
</glyph>
<glyph name="n" format="2">
	<unicode hex="006E"/>
	<advance width="568"/>
	<outline>
		<contour>
			<point x="24" y="0" type="line"/>
			<point x="264" y="0" type="line"/>
			<point x="264" y="22" type="line"/>
			<point x="183" y="36" type="line"/>
			<point x="109" y="36" type="line"/>
			<point x="24" y="22" type="line"/>
		</contour>
		<contour>
			<point x="75" y="0" type="curve"/>
			<point x="218" y="0" type="line"/>
			<point x="213" y="51"/>
			<point x="213" y="142"/>
			<point x="213" y="209" type="curve" smooth="yes"/>
			<point x="213" y="364" type="line"/>
			<point x="213" y="366" type="line"/>
			<point x="213" y="462" type="line"/>
			<point x="199" y="472" type="line"/>
			<point x="20" y="420" type="line"/>
			<point x="20" y="402" type="line"/>
			<point x="78" y="385" type="line"/>
			<point x="80" y="340"/>
			<point x="80" y="302"/>
			<point x="80" y="240" type="curve" smooth="yes"/>
			<point x="80" y="209" type="line" smooth="yes"/>
			<point x="80" y="142"/>
			<point x="80" y="51"/>
		</contour>
		<contour>
			<point x="309" y="0" type="line"/>
			<point x="546" y="0" type="line"/>
			<point x="546" y="22" type="line"/>
			<point x="464" y="36" type="line"/>
			<point x="391" y="36" type="line"/>
			<point x="309" y="22" type="line"/>
		</contour>
		<contour>
			<point x="356" y="0" type="curve"/>
			<point x="500" y="0" type="line"/>
			<point x="495" y="51"/>
			<point x="495" y="142"/>
			<point x="495" y="209" type="curve" smooth="yes"/>
			<point x="495" y="319" type="line" smooth="yes"/>
			<point x="495" y="426"/>
			<point x="446" y="472"/>
			<point x="370" y="472" type="curve" smooth="yes"/>
			<point x="300" y="472"/>
			<point x="244" y="434"/>
			<point x="195" y="357" type="curve"/>
			<point x="186" y="357" type="line"/>
			<point x="188" y="332" type="line"/>
			<point x="223" y="372"/>
			<point x="265" y="396"/>
			<point x="302" y="396" type="curve" smooth="yes"/>
			<point x="342" y="396"/>
			<point x="361" y="376"/>
			<point x="361" y="316" type="curve" smooth="yes"/>
			<point x="361" y="209" type="line" smooth="yes"/>
			<point x="361" y="142"/>
			<point x="361" y="51"/>
		</contour>
	</outline>
	<anchor name="aboveLC" x="298" y="478"/>
	<anchor name="belowLC" x="289" y="-20"/>
</glyph>
<glyph name="s" format="2">
	<unicode hex="0073"/>
	<advance width="400"/>
	<outline>
		<contour>
			<point x="184" y="-15" type="curve" smooth="yes"/>
			<point x="300" y="-15"/>
			<point x="367" y="41"/>
			<point x="367" y="140" type="curve" smooth="yes"/>
			<point x="367" y="225"/>
			<point x="309" y="256"/>
			<point x="251" y="281" type="curve" smooth="yes"/>
			<point x="223" y="293" type="line" smooth="yes"/>
			<point x="175" y="313"/>
			<point x="133" y="333"/>
			<point x="133" y="381" type="curve" smooth="yes"/>
			<point x="133" y="424"/>
			<point x="164" y="448"/>
			<point x="212" y="448" type="curve" smooth="yes"/>
			<point x="251" y="448"/>
			<point x="274" y="440"/>
			<point x="300" y="417" type="curve"/>
			<point x="300" y="447" type="line"/>
			<point x="265" y="447" type="line"/>
			<point x="318" y="319" type="line"/>
			<point x="338" y="319" type="line"/>
			<point x="342" y="437" type="line"/>
			<point x="302" y="460"/>
			<point x="264" y="472"/>
			<point x="212" y="472" type="curve" smooth="yes"/>
			<point x="95" y="472"/>
			<point x="38" y="409"/>
			<point x="38" y="324" type="curve" smooth="yes"/>
			<point x="38" y="240"/>
			<point x="95" y="208"/>
			<point x="152" y="184" type="curve" smooth="yes"/>
			<point x="180" y="172" type="line" smooth="yes"/>
			<point x="228" y="151"/>
			<point x="269" y="132"/>
			<point x="269" y="84" type="curve" smooth="yes"/>
			<point x="269" y="37"/>
			<point x="236" y="9"/>
			<point x="183" y="9" type="curve" smooth="yes"/>
			<point x="136" y="9"/>
			<point x="113" y="21"/>
			<point x="79" y="39" type="curve"/>
			<point x="79" y="18" type="line"/>
			<point x="113" y="18" type="line"/>
			<point x="59" y="151" type="line"/>
			<point x="39" y="151" type="line"/>
			<point x="35" y="27" type="line"/>
			<point x="81" y="0"/>
			<point x="128" y="-15"/>
		</contour>
	</outline>
	<anchor name="aboveLC" x="211" y="478"/>
	<anchor name="baseLC" x="191" y="0"/>
	<anchor name="belowLC" x="191" y="-20"/>
</glyph>
<glyph name="t" format="2">
	<unicode hex="0074"/>
	<advance width="336"/>
	<outline>
		<contour>
			<point x="143" y="428" type="line"/>
			<point x="310" y="428" type="line"/>
			<point x="310" y="458" type="line"/>
			<point x="143" y="458" type="line"/>
		</contour>
		<contour>
			<point x="201" y="-15" type="curve" smooth="yes"/>
			<point x="271" y="-15"/>
			<point x="310" y="14"/>
			<point x="333" y="65" type="curve"/>
			<point x="318" y="76" type="line"/>
			<point x="301" y="56"/>
			<point x="285" y="47"/>
			<point x="259" y="47" type="curve" smooth="yes"/>
			<point x="229" y="47"/>
			<point x="206" y="63"/>
			<point x="206" y="110" type="curve" smooth="yes"/>
			<point x="206" y="436" type="line"/>
			<point x="206" y="446" type="line"/>
			<point x="210" y="610" type="line"/>
			<point x="163" y="610" type="line"/>
			<point x="70" y="446" type="line"/>
			<point x="103" y="468" type="line"/>
			<point x="14" y="450" type="line"/>
			<point x="14" y="428" type="line"/>
			<point x="73" y="428" type="line"/>
			<point x="71" y="231" type="line" smooth="yes"/>
			<point x="71" y="178"/>
			<point x="71" y="153"/>
			<point x="71" y="111" type="curve" smooth="yes"/>
			<point x="71" y="25"/>
			<point x="119" y="-15"/>
		</contour>
	</outline>
	<anchor name="aboveLC" x="170" y="590"/>
	<anchor name="baseLC" x="201" y="0"/>
	<anchor name="belowLC" x="199" y="-20"/>
</glyph>
<glyph name="v" format="2">
	<unicode hex="0076"/>
	<advance width="490"/>
	<outline>
		<contour>
			<point x="221" y="-1" type="line"/>
			<point x="276" y="-1" type="line"/>
			<point x="444" y="458" type="line"/>
			<point x="412" y="458" type="line"/>
			<point x="295" y="127" type="line"/>
			<point x="291" y="114" type="line"/>
			<point x="308" y="114" type="line"/>
			<point x="182" y="458" type="line"/>
			<point x="38" y="458" type="line"/>
		</contour>
		<contour>
			<point x="7" y="436" type="line"/>
			<point x="80" y="421" type="line"/>
			<point x="178" y="421" type="line"/>
			<point x="264" y="436" type="line"/>
			<point x="264" y="458" type="line"/>
			<point x="7" y="458" type="line"/>
		</contour>
		<contour>
			<point x="335" y="436" type="line"/>
			<point x="414" y="425" type="line"/>
			<point x="423" y="425" type="line"/>
			<point x="483" y="436" type="line"/>
			<point x="483" y="458" type="line"/>
			<point x="335" y="458" type="line"/>
		</contour>
	</outline>
	<anchor name="aboveLC" x="297" y="478"/>
	<anchor name="belowLC" x="253" y="-20"/>
</glyph>
<glyph name="w" format="2">
	<unicode hex="0077"/>
	<advance width="733"/>
	<outline>
		<contour>
			<point x="196" y="-1" type="line"/>
			<point x="261" y="-1" type="line"/>
			<point x="371" y="335" type="line"/>
			<point x="375" y="346" type="line"/>
			<point x="356" y="346" type="line"/>
			<point x="470" y="-1" type="line"/>
			<point x="533" y="-1" type="line"/>
			<point x="685" y="458" type="line"/>
			<point x="654" y="458" type="line"/>
			<point x="550" y="128" type="line"/>
			<point x="545" y="114" type="line"/>
			<point x="563" y="114" type="line"/>
			<point x="454" y="458" type="line"/>
			<point x="380" y="458" type="line"/>
			<point x="275" y="125" type="line"/>
			<point x="270" y="114" type="line"/>
			<point x="288" y="114" type="line"/>
			<point x="185" y="458" type="line"/>
			<point x="38" y="458" type="line"/>
		</contour>
		<contour>
			<point x="7" y="436" type="line"/>
			<point x="80" y="421" type="line"/>
			<point x="170" y="421" type="line"/>
			<point x="252" y="436" type="line"/>
			<point x="252" y="458" type="line"/>
			<point x="7" y="458" type="line"/>
		</contour>
		<contour>
			<point x="311" y="436" type="line"/>
			<point x="389" y="425" type="line"/>
			<point x="444" y="422" type="line"/>
			<point x="523" y="436" type="line"/>
			<point x="523" y="458" type="line"/>
			<point x="311" y="458" type="line"/>
		</contour>
		<contour>
			<point x="579" y="436" type="line"/>
			<point x="657" y="425" type="line"/>
			<point x="667" y="425" type="line"/>
			<point x="727" y="436" type="line"/>
			<point x="727" y="458" type="line"/>
			<point x="579" y="458" type="line"/>
		</contour>
	</outline>
	<anchor name="aboveLC" x="414" y="478"/>
	<anchor name="belowLC" x="364" y="-20"/>
</glyph>
<glyph name="z" format="2">
	<unicode hex="007A"/>
	<advance width="435"/>
	<outline>
		<contour>
			<point x="25" y="0" type="line"/>
			<point x="406" y="0" type="line"/>
			<point x="414" y="159" type="line"/>
			<point x="394" y="159" type="line"/>
			<point x="331" y="16" type="line"/>
			<point x="375" y="28" type="line"/>
			<point x="262" y="28" type="line"/>
			<point x="170" y="28" type="line"/>
			<point x="170" y="44" type="line"/>
			<point x="162" y="6" type="line"/>
			<point x="405" y="443" type="line"/>
			<point x="405" y="458" type="line"/>
			<point x="38" y="458" type="line"/>
			<point x="32" y="306" type="line"/>
			<point x="49" y="304" type="line"/>
			<point x="115" y="442" type="line"/>
			<point x="73" y="430" type="line"/>
			<point x="176" y="430" type="line"/>
			<point x="261" y="430" type="line"/>
			<point x="267" y="420" type="line"/>
			<point x="267" y="450" type="line"/>
			<point x="25" y="15" type="line"/>
		</contour>
	</outline>
	<anchor name="aboveLC" x="222" y="478"/>
	<anchor name="belowLC" x="227" y="-20"/>
</glyph>
<glyph name="sterling" format="2">
	<unicode hex="00A3"/>
	<advance width="508"/>
	<outline>
		<contour>
			<point x="48" y="306" type="line"/>
			<point x="389" y="306" type="line"/>
			<point x="389" y="332" type="line"/>
			<point x="48" y="332" type="line"/>
		</contour>
		<contour>
			<point x="44" y="0" type="line"/>
			<point x="465" y="0" type="line"/>
			<point x="465" y="112" type="line"/>
			<point x="113" y="112" type="line"/>
			<point x="113" y="124" type="line"/>
			<point x="88" y="96" type="line"/>
			<point x="171" y="126"/>
			<point x="248" y="176"/>
			<point x="248" y="270" type="curve" smooth="yes"/>
			<point x="248" y="340"/>
			<point x="212" y="401"/>
			<point x="212" y="498" type="curve" smooth="yes"/>
			<point x="212" y="579"/>
			<point x="244" y="620"/>
			<point x="311" y="620" type="curve" smooth="yes"/>
			<point x="334" y="620"/>
			<point x="355" y="615"/>
			<point x="393" y="600" type="curve"/>
			<point x="326" y="631" type="line"/>
			<point x="342" y="549" type="line" smooth="yes"/>
			<point x="352" y="485"/>
			<point x="381" y="472"/>
			<point x="408" y="472" type="curve" smooth="yes"/>
			<point x="435" y="472"/>
			<point x="453" y="487"/>
			<point x="460" y="511" type="curve"/>
			<point x="451" y="600"/>
			<point x="390" y="646"/>
			<point x="290" y="646" type="curve" smooth="yes"/>
			<point x="179" y="646"/>
			<point x="78" y="590"/>
			<point x="78" y="472" type="curve" smooth="yes"/>
			<point x="78" y="381"/>
			<point x="137" y="317"/>
			<point x="137" y="225" type="curve" smooth="yes"/>
			<point x="137" y="169"/>
			<point x="102" y="118"/>
			<point x="44" y="81" type="curve"/>
		</contour>
	</outline>
</glyph>
<glyph name="yen" format="2">
	<unicode hex="00A5"/>
	<advance width="508"/>
	<outline>
		<contour>
			<point x="286" y="194" type="line"/>
			<point x="468" y="631" type="line"/>
			<point x="434" y="631" type="line"/>
			<point x="309" y="312" type="line"/>
			<point x="307" y="304" type="line"/>
			<point x="317" y="304" type="line"/>
			<point x="182" y="631" type="line"/>
			<point x="32" y="631" type="line"/>
			<point x="222" y="194" type="line"/>
		</contour>
		<contour>
			<point x="82" y="594" type="line"/>
			<point x="157" y="594" type="line"/>
			<point x="265" y="609" type="line"/>
			<point x="265" y="631" type="line"/>
			<point x="-4" y="631" type="line"/>
			<point x="-4" y="609" type="line"/>
		</contour>
		<contour>
			<point x="220" y="36" type="line"/>
			<point x="112" y="22" type="line"/>
			<point x="112" y="0" type="line"/>
			<point x="399" y="0" type="line"/>
			<point x="399" y="22" type="line"/>
			<point x="291" y="36" type="line"/>
		</contour>
		<contour>
			<point x="188" y="180" type="line" smooth="yes"/>
			<point x="188" y="119"/>
			<point x="187" y="65"/>
			<point x="184" y="0" type="curve"/>
			<point x="326" y="0" type="line"/>
			<point x="324" y="65"/>
			<point x="323" y="119"/>
			<point x="323" y="180" type="curve" smooth="yes"/>
			<point x="323" y="295" type="line"/>
			<point x="188" y="295" type="line"/>
		</contour>
		<contour>
			<point x="423" y="599" type="line"/>
			<point x="443" y="599" type="line"/>
			<point x="512" y="609" type="line"/>
			<point x="512" y="631" type="line"/>
			<point x="349" y="631" type="line"/>
			<point x="349" y="609" type="line"/>
		</contour>
		<contour>
			<point x="62" y="168" type="line"/>
			<point x="451" y="168" type="line"/>
			<point x="451" y="194" type="line"/>
			<point x="62" y="194" type="line"/>
		</contour>
		<contour>
			<point x="62" y="265" type="line"/>
			<point x="451" y="265" type="line"/>
			<point x="451" y="291" type="line"/>
			<point x="62" y="291" type="line"/>
		</contour>
	</outline>
</glyph>
<glyph name="copyright" format="2">
	<unicode hex="00A9"/>
	<advance width="744"/>
	<outline>
		<contour>
			<point x="372" y="-16" type="curve" smooth="yes"/>
			<point x="556" y="-16"/>
			<point x="715" y="117"/>
			<point x="715" y="329" type="curve" smooth="yes"/>
			<point x="715" y="541"/>
			<point x="556" y="673"/>
			<point x="372" y="673" type="curve" smooth="yes"/>
			<point x="188" y="673"/>
			<point x="30" y="541"/>
			<point x="30" y="329" type="curve" smooth="yes"/>
			<point x="30" y="117"/>
			<point x="188" y="-16"/>
		</contour>
		<contour>
			<point x="373" y="19" type="curve" smooth="yes"/>
			<point x="210" y="19"/>
			<point x="71" y="137"/>
			<point x="71" y="329" type="curve" smooth="yes"/>
			<point x="71" y="520"/>
			<point x="210" y="638"/>
			<point x="373" y="638" type="curve" smooth="yes"/>
			<point x="536" y="638"/>
			<point x="675" y="520"/>
			<point x="675" y="329" type="curve" smooth="yes"/>
			<point x="675" y="138"/>
			<point x="536" y="19"/>
		</contour>
		<contour>
			<point x="391" y="127" type="curve" smooth="yes"/>
			<point x="429" y="127"/>
			<point x="468" y="136"/>
			<point x="495" y="147" type="curve"/>
			<point x="502" y="256" type="line"/>
			<point x="488" y="256" type="line"/>
			<point x="432" y="140" type="line"/>
			<point x="475" y="167" type="line"/>
			<point x="450" y="154"/>
			<point x="422" y="145"/>
			<point x="398" y="145" type="curve" smooth="yes"/>
			<point x="343" y="145"/>
			<point x="296" y="190"/>
			<point x="296" y="329" type="curve" smooth="yes"/>
			<point x="296" y="470"/>
			<point x="345" y="518"/>
			<point x="398" y="518" type="curve" smooth="yes"/>
			<point x="420" y="518"/>
			<point x="450" y="511"/>
			<point x="474" y="495" type="curve"/>
			<point x="431" y="523" type="line"/>
			<point x="486" y="415" type="line"/>
			<point x="502" y="415" type="line"/>
			<point x="495" y="515" type="line"/>
			<point x="466" y="527"/>
			<point x="429" y="536"/>
			<point x="391" y="536" type="curve" smooth="yes"/>
			<point x="296" y="536"/>
			<point x="190" y="479"/>
			<point x="190" y="330" type="curve" smooth="yes"/>
			<point x="190" y="183"/>
			<point x="289" y="127"/>
		</contour>
	</outline>
</glyph>
<glyph name="plusminus" format="2">
	<unicode hex="00B1"/>
	<advance width="508"/>
	<outline>
		<contour>
			<point x="232" y="123" type="line"/>
			<point x="277" y="123" type="line"/>
			<point x="277" y="556" type="line"/>
			<point x="232" y="556" type="line"/>
		</contour>
		<contour>
			<point x="474" y="322" type="line"/>
			<point x="474" y="365" type="line"/>
			<point x="34" y="365" type="line"/>
			<point x="34" y="322" type="line"/>
		</contour>
		<contour>
			<point x="474" y="0" type="line"/>
			<point x="474" y="44" type="line"/>
			<point x="34" y="44" type="line"/>
			<point x="34" y="0" type="line"/>
		</contour>
	</outline>
</glyph>
<glyph name="AE" format="2">
	<unicode hex="00C6"/>
	<advance width="831"/>
	<outline>
		<contour>
			<point x="391" y="0" type="curve"/>
			<point x="541" y="0" type="line"/>
			<point x="537" y="79"/>
			<point x="536" y="206"/>
			<point x="536" y="310" type="curve" smooth="yes"/>
			<point x="536" y="354" type="line" smooth="yes"/>
			<point x="536" y="455"/>
			<point x="537" y="579"/>
			<point x="541" y="657" type="curve"/>
			<point x="396" y="657" type="line"/>
			<point x="396" y="310" type="line" smooth="yes"/>
			<point x="396" y="206"/>
			<point x="395" y="79"/>
		</contour>
		<contour>
			<point x="12" y="0" type="line"/>
			<point x="183" y="0" type="line"/>
			<point x="183" y="22" type="line"/>
			<point x="100" y="32" type="line"/>
			<point x="82" y="32" type="line"/>
			<point x="12" y="22" type="line"/>
		</contour>
		<contour>
			<point x="670" y="224" type="line"/>
			<point x="690" y="224" type="line"/>
			<point x="690" y="446" type="line"/>
			<point x="670" y="446" type="line"/>
			<point x="634" y="344" type="line"/>
			<point x="634" y="326" type="line"/>
		</contour>
		<contour>
			<point x="763" y="480" type="line"/>
			<point x="785" y="480" type="line"/>
			<point x="773" y="657" type="line"/>
			<point x="452" y="657" type="line"/>
			<point x="452" y="630" type="line"/>
			<point x="694" y="630" type="line"/>
		</contour>
		<contour>
			<point x="469" y="0" type="line"/>
			<point x="789" y="0" type="line"/>
			<point x="801" y="188" type="line"/>
			<point x="779" y="188" type="line"/>
			<point x="710" y="27" type="line"/>
			<point x="469" y="27" type="line"/>
		</contour>
		<contour>
			<point x="282" y="636" type="line"/>
			<point x="386" y="621" type="line"/>
			<point x="457" y="621" type="line"/>
			<point x="457" y="657" type="line"/>
			<point x="282" y="657" type="line"/>
		</contour>
		<contour>
			<point x="327" y="0" type="line"/>
			<point x="501" y="0" type="line"/>
			<point x="501" y="36" type="line"/>
			<point x="431" y="36" type="line"/>
			<point x="327" y="22" type="line"/>
		</contour>
		<contour>
			<point x="56" y="0" type="line"/>
			<point x="91" y="0" type="line"/>
			<point x="195" y="216" type="line"/>
			<point x="405" y="657" type="line"/>
			<point x="373" y="657" type="line"/>
		</contour>
		<contour>
			<point x="177" y="202" type="line"/>
			<point x="470" y="202" type="line"/>
			<point x="470" y="232" type="line"/>
			<point x="177" y="232" type="line"/>
		</contour>
		<contour>
			<point x="469" y="321" type="line"/>
			<point x="649" y="321" type="line"/>
			<point x="649" y="350" type="line"/>
			<point x="469" y="350" type="line"/>
		</contour>
	</outline>
	<anchor name="aboveUC" x="524" y="677"/>
</glyph>
<glyph name="Eth" format="2">
	<unicode hex="00D0"/>
	<advance width="640"/>
	<outline>
		<contour>
			<point x="375" y="324" type="line"/>
			<point x="375" y="349" type="line"/>
			<point x="32" y="349" type="line"/>
			<point x="32" y="324" type="line"/>
		</contour>
		<component base="D"/>
	</outline>
</glyph>
<glyph name="multiply" format="2">
	<unicode hex="00D7"/>
	<advance width="508"/>
	<outline>
		<contour>
			<point x="429" y="107" type="line"/>
			<point x="460" y="137" type="line"/>
			<point x="79" y="538" type="line"/>
			<point x="48" y="507" type="line"/>
		</contour>
		<contour>
			<point x="460" y="507" type="line"/>
			<point x="429" y="538" type="line"/>
			<point x="48" y="137" type="line"/>
			<point x="78" y="107" type="line"/>
		</contour>
	</outline>
</glyph>
<glyph name="oslash" format="2">
	<unicode hex="00F8"/>
	<advance width="529"/>
	<outline>
		<contour>
			<point x="482" y="456" type="line"/>
			<point x="463" y="472" type="line"/>
			<point x="49" y="1" type="line"/>
			<point x="68" y="-14" type="line"/>
		</contour>
		<contour>
			<point x="264" y="-15" type="curve" smooth="yes"/>
			<point x="397" y="-15"/>
			<point x="495" y="84"/>
			<point x="495" y="229" type="curve" smooth="yes"/>
			<point x="495" y="376"/>
			<point x="410" y="472"/>
			<point x="264" y="472" type="curve" smooth="yes"/>
			<point x="129" y="472"/>
			<point x="34" y="374"/>
			<point x="34" y="228" type="curve" smooth="yes"/>
			<point x="34" y="82"/>
			<point x="118" y="-15"/>
		</contour>
		<contour>
			<point x="264" y="11" type="curve" smooth="yes"/>
			<point x="206" y="11"/>
			<point x="173" y="62"/>
			<point x="173" y="228" type="curve" smooth="yes"/>
			<point x="173" y="394"/>
			<point x="206" y="447"/>
			<point x="264" y="447" type="curve" smooth="yes"/>
			<point x="322" y="447"/>
			<point x="356" y="395"/>
			<point x="356" y="229" type="curve" smooth="yes"/>
			<point x="356" y="64"/>
			<point x="322" y="11"/>
		</contour>
	</outline>
	<anchor name="aboveLC" x="264" y="478"/>
</glyph>
<glyph name="aogonek" format="2">
	<unicode hex="0105"/>
	<advance width="485"/>
	<outline>
		<contour>
			<point x="148" y="-15" type="curve" smooth="yes"/>
			<point x="204" y="-15"/>
			<point x="245" y="5"/>
			<point x="286" y="62" type="curve"/>
			<point x="316" y="62" type="line"/>
			<point x="308" y="102" type="line"/>
			<point x="267" y="64"/>
			<point x="248" y="53"/>
			<point x="217" y="53" type="curve" smooth="yes"/>
			<point x="181" y="53"/>
			<point x="154" y="77"/>
			<point x="154" y="130" type="curve" smooth="yes"/>
			<point x="154" y="186"/>
			<point x="185" y="218"/>
			<point x="235" y="242" type="curve" smooth="yes"/>
			<point x="255" y="252"/>
			<point x="300" y="264"/>
			<point x="351" y="279" type="curve"/>
			<point x="351" y="301" type="line"/>
			<point x="301" y="287"/>
			<point x="239" y="271"/>
			<point x="204" y="261" type="curve" smooth="yes"/>
			<point x="73" y="221"/>
			<point x="28" y="168"/>
			<point x="28" y="100" type="curve" smooth="yes"/>
			<point x="28" y="28"/>
			<point x="78" y="-15"/>
		</contour>
		<contour>
			<point x="391" y="-226" type="curve" smooth="yes"/>
			<point x="445" y="-226"/>
			<point x="491" y="-199"/>
			<point x="513" y="-162" type="curve"/>
			<point x="503" y="-148" type="line"/>
			<point x="487" y="-157"/>
			<point x="470" y="-162"/>
			<point x="447" y="-162" type="curve" smooth="yes"/>
			<point x="404" y="-162"/>
			<point x="376" y="-139"/>
			<point x="376" y="-99" type="curve" smooth="yes"/>
			<point x="376" y="-61"/>
			<point x="410" y="-22"/>
			<point x="448" y="7" type="curve" smooth="yes"/>
			<point x="466" y="21"/>
			<point x="475" y="36"/>
			<point x="482" y="54" type="curve"/>
			<point x="468" y="65" type="line"/>
			<point x="455" y="48"/>
			<point x="446" y="42"/>
			<point x="432" y="42" type="curve" smooth="yes"/>
			<point x="419" y="42"/>
			<point x="411" y="52"/>
			<point x="411" y="72" type="curve" smooth="yes"/>
			<point x="411" y="296" type="line" smooth="yes"/>
			<point x="411" y="418"/>
			<point x="361" y="472"/>
			<point x="246" y="472" type="curve" smooth="yes"/>
			<point x="128" y="472"/>
			<point x="53" y="422"/>
			<point x="45" y="349" type="curve"/>
			<point x="54" y="317"/>
			<point x="71" y="303"/>
			<point x="102" y="303" type="curve" smooth="yes"/>
			<point x="134" y="303"/>
			<point x="166" y="323"/>
			<point x="169" y="385" type="curve" smooth="yes"/>
			<point x="177" y="456" type="line"/>
			<point x="145" y="434" type="line"/>
			<point x="184" y="442"/>
			<point x="194" y="444"/>
			<point x="203" y="444" type="curve" smooth="yes"/>
			<point x="261" y="444"/>
			<point x="278" y="414"/>
			<point x="278" y="316" type="curve" smooth="yes"/>
			<point x="278" y="67" type="line"/>
			<point x="278" y="64" type="line" smooth="yes"/>
			<point x="284" y="17"/>
			<point x="315" y="-14"/>
			<point x="380" y="-14" type="curve" smooth="yes"/>
			<point x="386" y="-14"/>
			<point x="392" y="-13"/>
			<point x="420" y="-8" type="curve"/>
			<point x="420" y="0" type="line"/>
			<point x="336" y="-38"/>
			<point x="290" y="-80"/>
			<point x="290" y="-135" type="curve" smooth="yes"/>
			<point x="290" y="-188"/>
			<point x="326" y="-226"/>
		</contour>
	</outline>
	<anchor name="aboveLC" x="235" y="478"/>
	<anchor name="belowLC" x="237" y="-20"/>
</glyph>
<glyph name="eogonek" format="2">
	<unicode hex="0119"/>
	<advance width="470"/>
	<outline>
		<contour>
			<point x="294" y="-226" type="curve" smooth="yes"/>
			<point x="347" y="-226"/>
			<point x="393" y="-199"/>
			<point x="416" y="-162" type="curve"/>
			<point x="405" y="-148" type="line"/>
			<point x="390" y="-157"/>
			<point x="372" y="-162"/>
			<point x="350" y="-162" type="curve" smooth="yes"/>
			<point x="306" y="-162"/>
			<point x="279" y="-139"/>
			<point x="279" y="-99" type="curve" smooth="yes"/>
			<point x="279" y="-60"/>
			<point x="311" y="-23"/>
			<point x="356" y="11" type="curve" smooth="yes"/>
			<point x="385" y="32"/>
			<point x="413" y="57"/>
			<point x="432" y="96" type="curve"/>
			<point x="417" y="108" type="line"/>
			<point x="390" y="78"/>
			<point x="356" y="59"/>
			<point x="310" y="59" type="curve" smooth="yes"/>
			<point x="230" y="59"/>
			<point x="172" y="126"/>
			<point x="172" y="246" type="curve" smooth="yes"/>
			<point x="172" y="397"/>
			<point x="208" y="446"/>
			<point x="252" y="446" type="curve" smooth="yes"/>
			<point x="291" y="446"/>
			<point x="317" y="417"/>
			<point x="317" y="342" type="curve" smooth="yes"/>
			<point x="317" y="287"/>
			<point x="299" y="272"/>
			<point x="244" y="272" type="curve" smooth="yes"/>
			<point x="85" y="272" type="line"/>
			<point x="85" y="247" type="line"/>
			<point x="429" y="247" type="line"/>
			<point x="433" y="264"/>
			<point x="434" y="273"/>
			<point x="434" y="293" type="curve" smooth="yes"/>
			<point x="434" y="397"/>
			<point x="364" y="472"/>
			<point x="250" y="472" type="curve" smooth="yes"/>
			<point x="137" y="472"/>
			<point x="32" y="386"/>
			<point x="32" y="222" type="curve" smooth="yes"/>
			<point x="32" y="70"/>
			<point x="129" y="-15"/>
			<point x="251" y="-15" type="curve" smooth="yes"/>
			<point x="273" y="-15"/>
			<point x="295" y="-12"/>
			<point x="314" y="-6" type="curve"/>
			<point x="330" y="5" type="line"/>
			<point x="258" y="-23"/>
			<point x="192" y="-69"/>
			<point x="192" y="-135" type="curve" smooth="yes"/>
			<point x="192" y="-188"/>
			<point x="228" y="-226"/>
		</contour>
	</outline>
	<anchor name="aboveLC" x="249" y="478"/>
	<anchor name="belowLC" x="254" y="-20"/>
</glyph>
<glyph name="hbar" format="2">
	<unicode hex="0127"/>
	<advance width="568"/>
	<outline>
		<contour>
			<point x="75" y="0" type="curve"/>
			<point x="218" y="0" type="line"/>
			<point x="213" y="51"/>
			<point x="213" y="142"/>
			<point x="213" y="209" type="curve" smooth="yes"/>
			<point x="213" y="347" type="line"/>
			<point x="213" y="352" type="line"/>
			<point x="213" y="515" type="line"/>
			<point x="217" y="720" type="line"/>
			<point x="203" y="731" type="line"/>
			<point x="20" y="683" type="line"/>
			<point x="20" y="665" type="line"/>
			<point x="80" y="649" type="line"/>
			<point x="80" y="209" type="line" smooth="yes"/>
			<point x="80" y="142"/>
			<point x="80" y="51"/>
		</contour>
		<contour>
			<point x="24" y="0" type="line"/>
			<point x="264" y="0" type="line"/>
			<point x="264" y="22" type="line"/>
			<point x="183" y="36" type="line"/>
			<point x="109" y="36" type="line"/>
			<point x="24" y="22" type="line"/>
		</contour>
		<contour>
			<point x="309" y="0" type="line"/>
			<point x="546" y="0" type="line"/>
			<point x="546" y="22" type="line"/>
			<point x="464" y="36" type="line"/>
			<point x="391" y="36" type="line"/>
			<point x="309" y="22" type="line"/>
		</contour>
		<contour>
			<point x="18" y="546" type="line"/>
			<point x="350" y="546" type="line"/>
			<point x="350" y="572" type="line"/>
			<point x="18" y="572" type="line"/>
		</contour>
		<contour>
			<point x="356" y="0" type="curve"/>
			<point x="500" y="0" type="line"/>
			<point x="495" y="51"/>
			<point x="495" y="142"/>
			<point x="495" y="209" type="curve" smooth="yes"/>
			<point x="495" y="303" type="line" smooth="yes"/>
			<point x="495" y="410"/>
			<point x="446" y="456"/>
			<point x="370" y="456" type="curve" smooth="yes"/>
			<point x="300" y="456"/>
			<point x="244" y="418"/>
			<point x="195" y="341" type="curve"/>
			<point x="186" y="341" type="line"/>
			<point x="188" y="316" type="line"/>
			<point x="223" y="356"/>
			<point x="265" y="380"/>
			<point x="302" y="380" type="curve" smooth="yes"/>
			<point x="342" y="380"/>
			<point x="361" y="360"/>
			<point x="361" y="300" type="curve" smooth="yes"/>
			<point x="361" y="209" type="line" smooth="yes"/>
			<point x="361" y="142"/>
			<point x="361" y="51"/>
		</contour>
	</outline>
</glyph>
<glyph name="dotlessi" format="2">
	<unicode hex="0131"/>
	<advance width="286"/>
	<outline>
		<contour>
			<point x="24" y="0" type="line"/>
			<point x="264" y="0" type="line"/>
			<point x="264" y="22" type="line"/>
			<point x="183" y="36" type="line"/>
			<point x="109" y="36" type="line"/>
			<point x="24" y="22" type="line"/>
		</contour>
		<contour>
			<point x="75" y="0" type="curve"/>
			<point x="218" y="0" type="line"/>
			<point x="213" y="51"/>
			<point x="213" y="142"/>
			<point x="213" y="209" type="curve" smooth="yes"/>
			<point x="213" y="330" type="line"/>
			<point x="217" y="462" type="line"/>
			<point x="203" y="472" type="line"/>
			<point x="20" y="420" type="line"/>
			<point x="20" y="402" type="line"/>
			<point x="78" y="385" type="line"/>
			<point x="80" y="340"/>
			<point x="80" y="302"/>
			<point x="80" y="240" type="curve" smooth="yes"/>
			<point x="80" y="209" type="line" smooth="yes"/>
			<point x="80" y="142"/>
			<point x="80" y="51"/>
		</contour>
	</outline>
	<anchor name="aboveLC" x="145" y="478"/>
	<anchor name="belowLC" x="150" y="-20"/>
	<anchor name="ogonek" x="188" y="0"/>
</glyph>
<glyph name="kgreenlandic" format="2">
	<unicode hex="0138"/>
	<advance width="544"/>
	<outline>
		<contour>
			<point x="24" y="0" type="line"/>
			<point x="264" y="0" type="line"/>
			<point x="264" y="22" type="line"/>
			<point x="183" y="36" type="line"/>
			<point x="109" y="36" type="line"/>
			<point x="24" y="22" type="line"/>
		</contour>
		<contour>
			<point x="75" y="0" type="curve"/>
			<point x="218" y="0" type="line"/>
			<point x="213" y="51"/>
			<point x="213" y="142"/>
			<point x="213" y="209" type="curve" smooth="yes"/>
			<point x="213" y="330" type="line"/>
			<point x="217" y="462" type="line"/>
			<point x="203" y="472" type="line"/>
			<point x="20" y="420" type="line"/>
			<point x="20" y="402" type="line"/>
			<point x="78" y="385" type="line"/>
			<point x="80" y="340"/>
			<point x="80" y="302"/>
			<point x="80" y="240" type="curve" smooth="yes"/>
			<point x="80" y="209" type="line" smooth="yes"/>
			<point x="80" y="142"/>
			<point x="80" y="51"/>
		</contour>
		<contour>
			<point x="144" y="132" type="line"/>
			<point x="460" y="458" type="line"/>
			<point x="421" y="458" type="line"/>
			<point x="285" y="313" type="line"/>
			<point x="149" y="168" type="line"/>
			<point x="144" y="168" type="line"/>
		</contour>
		<contour>
			<point x="348" y="0" type="line"/>
			<point x="529" y="0" type="line"/>
			<point x="529" y="22" type="line"/>
			<point x="448" y="39" type="line"/>
			<point x="488" y="20" type="line"/>
			<point x="336" y="342" type="line"/>
			<point x="240" y="246" type="line"/>
		</contour>
		<contour>
			<point x="393" y="421" type="line"/>
			<point x="418" y="421" type="line"/>
			<point x="507" y="436" type="line"/>
			<point x="507" y="458" type="line"/>
			<point x="306" y="458" type="line"/>
			<point x="306" y="436" type="line"/>
		</contour>
	</outline>
</glyph>
<glyph name="OE" format="2">
	<unicode hex="0152"/>
	<advance width="860"/>
	<outline>
		<contour>
			<point x="184" y="327" type="curve" smooth="yes"/>
			<point x="184" y="551"/>
			<point x="265" y="647"/>
			<point x="356" y="647" type="curve" smooth="yes"/>
			<point x="399" y="647"/>
			<point x="428" y="638"/>
			<point x="465" y="611" type="curve"/>
			<point x="489" y="640" type="line"/>
			<point x="446" y="663"/>
			<point x="397" y="673"/>
			<point x="352" y="673" type="curve" smooth="yes"/>
			<point x="191" y="673"/>
			<point x="36" y="563"/>
			<point x="36" y="328" type="curve" smooth="yes"/>
			<point x="36" y="94"/>
			<point x="181" y="-16"/>
			<point x="352" y="-16" type="curve" smooth="yes"/>
			<point x="397" y="-16"/>
			<point x="451" y="-4"/>
			<point x="492" y="16" type="curve"/>
			<point x="468" y="47" type="line"/>
			<point x="430" y="21"/>
			<point x="401" y="10"/>
			<point x="356" y="10" type="curve" smooth="yes"/>
			<point x="261" y="10"/>
			<point x="184" y="103"/>
		</contour>
		<contour>
			<point x="420" y="0" type="curve"/>
			<point x="570" y="0" type="line"/>
			<point x="566" y="79"/>
			<point x="566" y="206"/>
			<point x="566" y="310" type="curve" smooth="yes"/>
			<point x="566" y="354" type="line" smooth="yes"/>
			<point x="566" y="455"/>
			<point x="566" y="579"/>
			<point x="570" y="657" type="curve"/>
			<point x="421" y="657" type="line"/>
			<point x="425" y="579"/>
			<point x="426" y="455"/>
			<point x="426" y="354" type="curve" smooth="yes"/>
			<point x="426" y="310" type="line" smooth="yes"/>
			<point x="426" y="206"/>
			<point x="424" y="79"/>
		</contour>
		<contour>
			<point x="699" y="224" type="line"/>
			<point x="719" y="224" type="line"/>
			<point x="719" y="446" type="line"/>
			<point x="699" y="446" type="line"/>
			<point x="663" y="344" type="line"/>
			<point x="663" y="326" type="line"/>
		</contour>
		<contour>
			<point x="498" y="321" type="line"/>
			<point x="678" y="321" type="line"/>
			<point x="678" y="350" type="line"/>
			<point x="498" y="350" type="line"/>
		</contour>
		<contour>
			<point x="792" y="480" type="line"/>
			<point x="814" y="480" type="line"/>
			<point x="802" y="657" type="line"/>
			<point x="481" y="657" type="line"/>
			<point x="481" y="630" type="line"/>
			<point x="723" y="630" type="line"/>
		</contour>
		<contour>
			<point x="808" y="188" type="line"/>
			<point x="739" y="27" type="line"/>
			<point x="498" y="27" type="line"/>
			<point x="498" y="0" type="line"/>
			<point x="818" y="0" type="line"/>
			<point x="830" y="188" type="line"/>
		</contour>
	</outline>
	<anchor name="aboveUC" x="490" y="677"/>
</glyph>
<glyph name="oe" format="2">
	<unicode hex="0153"/>
	<advance width="781"/>
	<outline>
		<contour>
			<point x="259" y="-15" type="curve" smooth="yes"/>
			<point x="351" y="-15"/>
			<point x="426" y="42"/>
			<point x="461" y="135" type="curve"/>
			<point x="367" y="135" type="line"/>
			<point x="400" y="37"/>
			<point x="470" y="-15"/>
			<point x="560" y="-15" type="curve" smooth="yes"/>
			<point x="639" y="-15"/>
			<point x="703" y="19"/>
			<point x="741" y="96" type="curve"/>
			<point x="726" y="108" type="line"/>
			<point x="698" y="78"/>
			<point x="665" y="59"/>
			<point x="619" y="59" type="curve" smooth="yes"/>
			<point x="539" y="59"/>
			<point x="482" y="126"/>
			<point x="482" y="246" type="curve" smooth="yes"/>
			<point x="482" y="397"/>
			<point x="518" y="446"/>
			<point x="563" y="446" type="curve" smooth="yes"/>
			<point x="601" y="446"/>
			<point x="627" y="417"/>
			<point x="627" y="342" type="curve" smooth="yes"/>
			<point x="627" y="287"/>
			<point x="610" y="272"/>
			<point x="554" y="272" type="curve" smooth="yes"/>
			<point x="395" y="272" type="line"/>
			<point x="395" y="247" type="line"/>
			<point x="740" y="247" type="line"/>
			<point x="744" y="264"/>
			<point x="744" y="273"/>
			<point x="744" y="293" type="curve" smooth="yes"/>
			<point x="744" y="397"/>
			<point x="683" y="472"/>
			<point x="568" y="472" type="curve" smooth="yes"/>
			<point x="492" y="472"/>
			<point x="415" y="429"/>
			<point x="374" y="345" type="curve"/>
			<point x="452" y="345" type="line"/>
			<point x="416" y="426"/>
			<point x="351" y="472"/>
			<point x="259" y="472" type="curve" smooth="yes"/>
			<point x="127" y="472"/>
			<point x="34" y="374"/>
			<point x="34" y="228" type="curve" smooth="yes"/>
			<point x="34" y="82"/>
			<point x="116" y="-15"/>
		</contour>
		<contour>
			<point x="259" y="11" type="curve" smooth="yes"/>
			<point x="205" y="11"/>
			<point x="177" y="62"/>
			<point x="177" y="228" type="curve" smooth="yes"/>
			<point x="177" y="394"/>
			<point x="205" y="447"/>
			<point x="259" y="447" type="curve" smooth="yes"/>
			<point x="313" y="447"/>
			<point x="341" y="395"/>
			<point x="341" y="229" type="curve" smooth="yes"/>
			<point x="341" y="64"/>
			<point x="313" y="11"/>
		</contour>
	</outline>
	<anchor name="aboveLC" x="406" y="478"/>
</glyph>
<glyph name="Uogonek" format="2">
	<unicode hex="0172"/>
	<advance width="637"/>
	<outline>
		<contour>
			<point x="128" y="621" type="line"/>
			<point x="199" y="621" type="line"/>
			<point x="299" y="636" type="line"/>
			<point x="299" y="657" type="line"/>
			<point x="28" y="657" type="line"/>
			<point x="28" y="636" type="line"/>
		</contour>
		<contour>
			<point x="374" y="-229" type="curve" smooth="yes"/>
			<point x="427" y="-229"/>
			<point x="464" y="-204"/>
			<point x="491" y="-170" type="curve"/>
			<point x="483" y="-156" type="line"/>
			<point x="464" y="-162"/>
			<point x="448" y="-165"/>
			<point x="426" y="-165" type="curve" smooth="yes"/>
			<point x="388" y="-165"/>
			<point x="367" y="-142"/>
			<point x="367" y="-106" type="curve" smooth="yes"/>
			<point x="367" y="-57"/>
			<point x="400" y="-17"/>
			<point x="445" y="11" type="curve" smooth="yes"/>
			<point x="510" y="51"/>
			<point x="544" y="127"/>
			<point x="544" y="260" type="curve" smooth="yes"/>
			<point x="544" y="657" type="line"/>
			<point x="514" y="657" type="line"/>
			<point x="514" y="244" type="line" smooth="yes"/>
			<point x="514" y="102"/>
			<point x="456" y="52"/>
			<point x="369" y="52" type="curve" smooth="yes"/>
			<point x="281" y="52"/>
			<point x="233" y="102"/>
			<point x="233" y="243" type="curve" smooth="yes"/>
			<point x="233" y="352" type="line" smooth="yes"/>
			<point x="233" y="454"/>
			<point x="233" y="579"/>
			<point x="237" y="657" type="curve"/>
			<point x="88" y="657" type="line"/>
			<point x="92" y="579"/>
			<point x="93" y="454"/>
			<point x="93" y="352" type="curve" smooth="yes"/>
			<point x="93" y="217" type="line" smooth="yes"/>
			<point x="93" y="44"/>
			<point x="195" y="-16"/>
			<point x="323" y="-16" type="curve" smooth="yes"/>
			<point x="356" y="-16"/>
			<point x="385" y="-12"/>
			<point x="410" y="-3" type="curve"/>
			<point x="419" y="5" type="line"/>
			<point x="347" y="-24"/>
			<point x="281" y="-66"/>
			<point x="281" y="-138" type="curve" smooth="yes"/>
			<point x="281" y="-191"/>
			<point x="314" y="-229"/>
		</contour>
		<contour>
			<point x="520" y="625" type="line"/>
			<point x="536" y="625" type="line"/>
			<point x="608" y="636" type="line"/>
			<point x="608" y="657" type="line"/>
			<point x="442" y="657" type="line"/>
			<point x="442" y="636" type="line"/>
		</contour>
	</outline>
	<anchor name="aboveUC" x="359" y="677"/>
</glyph>
<glyph name="uogonek" format="2">
	<unicode hex="0173"/>
	<advance width="557"/>
	<outline>
		<contour>
			<point x="332" y="-135" type="curve" smooth="yes"/>
			<point x="332" y="-189"/>
			<point x="369" y="-226"/>
			<point x="434" y="-226" type="curve" smooth="yes"/>
			<point x="486" y="-226"/>
			<point x="532" y="-201"/>
			<point x="555" y="-163" type="curve"/>
			<point x="545" y="-150" type="line"/>
			<point x="529" y="-157"/>
			<point x="513" y="-162"/>
			<point x="491" y="-162" type="curve" smooth="yes"/>
			<point x="448" y="-162"/>
			<point x="418" y="-138"/>
			<point x="418" y="-96" type="curve" smooth="yes"/>
			<point x="418" y="-60"/>
			<point x="438" y="-20"/>
			<point x="483" y="9" type="curve"/>
			<point x="468" y="9" type="line"/>
			<point x="397" y="-20"/>
			<point x="332" y="-71"/>
		</contour>
		<component base="u"/>
	</outline>
	<anchor name="aboveLC" x="278" y="478"/>
	<anchor name="belowLC" x="285" y="-20"/>
</glyph>
<glyph name="Uhorn" format="2">
	<unicode hex="01AF"/>
	<advance width="637"/>
	<outline>
		<contour>
			<point x="323" y="-16" type="curve" smooth="yes"/>
			<point x="467" y="-16"/>
			<point x="544" y="59"/>
			<point x="544" y="260" type="curve" smooth="yes"/>
			<point x="544" y="657" type="line"/>
			<point x="514" y="657" type="line"/>
			<point x="514" y="251" type="line" smooth="yes"/>
			<point x="514" y="109"/>
			<point x="456" y="59"/>
			<point x="369" y="59" type="curve" smooth="yes"/>
			<point x="281" y="59"/>
			<point x="233" y="109"/>
			<point x="233" y="250" type="curve" smooth="yes"/>
			<point x="233" y="352" type="line" smooth="yes"/>
			<point x="233" y="454"/>
			<point x="233" y="579"/>
			<point x="237" y="657" type="curve"/>
			<point x="88" y="657" type="line"/>
			<point x="92" y="579"/>
			<point x="93" y="454"/>
			<point x="93" y="352" type="curve" smooth="yes"/>
			<point x="93" y="217" type="line" smooth="yes"/>
			<point x="93" y="44"/>
			<point x="195" y="-16"/>
		</contour>
		<contour>
			<point x="525" y="626" type="line"/>
			<point x="615" y="627"/>
			<point x="678" y="649"/>
			<point x="678" y="735" type="curve" smooth="yes"/>
			<point x="678" y="752"/>
			<point x="673" y="774"/>
			<point x="667" y="787" type="curve"/>
			<point x="657" y="795"/>
			<point x="644" y="801"/>
			<point x="627" y="801" type="curve" smooth="yes"/>
			<point x="604" y="801"/>
			<point x="583" y="784"/>
			<point x="583" y="758" type="curve" smooth="yes"/>
			<point x="583" y="728"/>
			<point x="618" y="703"/>
			<point x="618" y="683" type="curve" smooth="yes"/>
			<point x="618" y="661"/>
			<point x="590" y="657"/>
			<point x="525" y="657" type="curve"/>
		</contour>
		<contour>
			<point x="28" y="636" type="line"/>
			<point x="128" y="621" type="line"/>
			<point x="199" y="621" type="line"/>
			<point x="299" y="636" type="line"/>
			<point x="299" y="657" type="line"/>
			<point x="28" y="657" type="line"/>
		</contour>
		<contour>
			<point x="442" y="636" type="line"/>
			<point x="520" y="625" type="line"/>
			<point x="536" y="625" type="line"/>
			<point x="535" y="657" type="line"/>
			<point x="442" y="657" type="line"/>
		</contour>
	</outline>
	<anchor name="aboveUC" x="352" y="677"/>
	<anchor name="belowLC" x="334" y="-20"/>
</glyph>
<glyph name="uhorn" format="2">
	<unicode hex="01B0"/>
	<advance width="557"/>
	<outline>
		<contour>
			<point x="195" y="-15" type="curve" smooth="yes"/>
			<point x="266" y="-15"/>
			<point x="321" y="23"/>
			<point x="360" y="84" type="curve"/>
			<point x="372" y="84" type="line"/>
			<point x="370" y="126" type="line"/>
			<point x="335" y="78"/>
			<point x="296" y="59"/>
			<point x="263" y="59" type="curve" smooth="yes"/>
			<point x="224" y="59"/>
			<point x="202" y="75"/>
			<point x="202" y="134" type="curve" smooth="yes"/>
			<point x="202" y="330" type="line"/>
			<point x="206" y="463" type="line"/>
			<point x="193" y="472" type="line"/>
			<point x="18" y="432" type="line"/>
			<point x="18" y="411" type="line"/>
			<point x="101" y="394" type="line"/>
			<point x="72" y="423" type="line"/>
			<point x="68" y="148" type="line" smooth="yes"/>
			<point x="67" y="30"/>
			<point x="116" y="-15"/>
		</contour>
		<contour>
			<point x="351" y="-13" type="line"/>
			<point x="535" y="0" type="line"/>
			<point x="535" y="22" type="line"/>
			<point x="484" y="31" type="line"/>
			<point x="484" y="330" type="line"/>
			<point x="488" y="463" type="line"/>
			<point x="437" y="441" type="line"/>
			<point x="509" y="449"/>
			<point x="566" y="489"/>
			<point x="566" y="568" type="curve" smooth="yes"/>
			<point x="566" y="588"/>
			<point x="561" y="602"/>
			<point x="554" y="615" type="curve"/>
			<point x="543" y="624"/>
			<point x="531" y="629"/>
			<point x="515" y="629" type="curve" smooth="yes"/>
			<point x="491" y="629"/>
			<point x="469" y="612"/>
			<point x="469" y="587" type="curve" smooth="yes"/>
			<point x="469" y="557"/>
			<point x="502" y="545"/>
			<point x="502" y="511" type="curve" smooth="yes"/>
			<point x="502" y="479"/>
			<point x="474" y="473"/>
			<point x="437" y="464" type="curve" smooth="yes"/>
			<point x="296" y="432" type="line"/>
			<point x="296" y="411" type="line"/>
			<point x="351" y="400" type="line"/>
			<point x="351" y="84" type="line"/>
			<point x="351" y="82" type="line"/>
		</contour>
	</outline>
	<anchor name="aboveLC" x="278" y="478"/>
	<anchor name="belowLC" x="285" y="-20"/>
</glyph>
<glyph name="dotlessj" format="2">
	<unicode hex="0237"/>
	<advance width="280"/>
	<outline>
		<contour>
			<point x="24" y="-246" type="curve" smooth="yes"/>
			<point x="63" y="-246"/>
			<point x="114" y="-233"/>
			<point x="157" y="-189" type="curve" smooth="yes"/>
			<point x="198" y="-148"/>
			<point x="213" y="-101"/>
			<point x="213" y="0" type="curve" smooth="yes"/>
			<point x="213" y="330" type="line"/>
			<point x="217" y="462" type="line"/>
			<point x="203" y="472" type="line"/>
			<point x="20" y="420" type="line"/>
			<point x="20" y="402" type="line"/>
			<point x="78" y="385" type="line"/>
			<point x="79" y="340"/>
			<point x="80" y="305"/>
			<point x="80" y="242" type="curve" smooth="yes"/>
			<point x="80" y="65" type="line" smooth="yes"/>
			<point x="80" y="-26"/>
			<point x="89" y="-103"/>
			<point x="82" y="-170" type="curve" smooth="yes"/>
			<point x="80" y="-191"/>
			<point x="76" y="-205"/>
			<point x="66" y="-218" type="curve"/>
			<point x="66" y="-229" type="line"/>
			<point x="84" y="-229" type="line"/>
			<point x="84" y="-224" type="line"/>
			<point x="59" y="-183" type="line" smooth="yes"/>
			<point x="35" y="-142"/>
			<point x="14" y="-135"/>
			<point x="-14" y="-135" type="curve" smooth="yes"/>
			<point x="-49" y="-135"/>
			<point x="-74" y="-155"/>
			<point x="-77" y="-187" type="curve"/>
			<point x="-66" y="-231"/>
			<point x="-29" y="-246"/>
		</contour>
	</outline>
	<anchor name="aboveLC" x="142" y="478"/>
	<anchor name="belowLC" x="90" y="-256"/>
</glyph>
<glyph name="schwa" format="2">
	<unicode hex="0259"/>
	<advance width="478"/>
	<outline>
		<contour>
			<point x="227" y="-15" type="curve" smooth="yes"/>
			<point x="344" y="-15"/>
			<point x="446" y="66"/>
			<point x="446" y="225" type="curve" smooth="yes"/>
			<point x="446" y="384"/>
			<point x="352" y="472"/>
			<point x="238" y="472" type="curve" smooth="yes"/>
			<point x="159" y="472"/>
			<point x="95" y="439"/>
			<point x="57" y="362" type="curve"/>
			<point x="71" y="349" type="line"/>
			<point x="99" y="380"/>
			<point x="133" y="399"/>
			<point x="179" y="399" type="curve" smooth="yes"/>
			<point x="257" y="399"/>
			<point x="307" y="341"/>
			<point x="307" y="212" type="curve" smooth="yes"/>
			<point x="307" y="61"/>
			<point x="272" y="11"/>
			<point x="229" y="11" type="curve" smooth="yes"/>
			<point x="187" y="11"/>
			<point x="158" y="40"/>
			<point x="158" y="134" type="curve" smooth="yes"/>
			<point x="158" y="200"/>
			<point x="175" y="215"/>
			<point x="230" y="215" type="curve" smooth="yes"/>
			<point x="393" y="215" type="line"/>
			<point x="393" y="240" type="line"/>
			<point x="39" y="240" type="line"/>
			<point x="35" y="224"/>
			<point x="35" y="215"/>
			<point x="35" y="194" type="curve" smooth="yes"/>
			<point x="35" y="60"/>
			<point x="102" y="-15"/>
		</contour>
	</outline>
	<anchor name="aboveLC" x="234" y="478"/>
	<anchor name="belowLC" x="239" y="-20"/>
</glyph>
<glyph name="j.sups" format="2">
	<unicode hex="02B2"/>
	<advance width="197"/>
	<outline>
		<contour>
			<point x="17" y="258" type="curve" smooth="yes"/>
			<point x="44" y="258"/>
			<point x="82" y="266"/>
			<point x="114" y="296" type="curve" smooth="yes"/>
			<point x="141" y="321"/>
			<point x="152" y="349"/>
			<point x="152" y="409" type="curve" smooth="yes"/>
			<point x="152" y="710" type="line"/>
			<point x="142" y="718" type="line"/>
			<point x="13" y="683" type="line"/>
			<point x="13" y="671" type="line"/>
			<point x="52" y="661" type="line"/>
			<point x="52" y="428" type="line" smooth="yes"/>
			<point x="52" y="385"/>
			<point x="59" y="326"/>
			<point x="56" y="299" type="curve" smooth="yes"/>
			<point x="55" y="279"/>
			<point x="40" y="275"/>
			<point x="21" y="275" type="curve"/>
			<point x="22" y="267" type="line"/>
			<point x="62" y="267" type="line"/>
			<point x="62" y="274" type="line"/>
			<point x="41" y="299" type="line" smooth="yes"/>
			<point x="19" y="326"/>
			<point x="1" y="333"/>
			<point x="-20" y="333" type="curve" smooth="yes"/>
			<point x="-45" y="333"/>
			<point x="-63" y="319"/>
			<point x="-66" y="297" type="curve"/>
			<point x="-57" y="268"/>
			<point x="-21" y="258"/>
		</contour>
		<contour>
			<point x="101" y="776" type="curve" smooth="yes"/>
			<point x="132" y="776"/>
			<point x="157" y="796"/>
			<point x="157" y="825" type="curve" smooth="yes"/>
			<point x="157" y="855"/>
			<point x="132" y="875"/>
			<point x="101" y="875" type="curve" smooth="yes"/>
			<point x="72" y="875"/>
			<point x="46" y="855"/>
			<point x="46" y="825" type="curve" smooth="yes"/>
			<point x="46" y="796"/>
			<point x="72" y="776"/>
		</contour>
	</outline>
</glyph>
<glyph name="r.sups" format="2">
	<unicode hex="02B3"/>
	<advance width="314"/>
	<outline>
		<contour>
			<point x="52" y="414" type="line"/>
			<point x="152" y="414" type="line"/>
			<point x="152" y="623" type="line"/>
			<point x="152" y="624" type="line"/>
			<point x="152" y="710" type="line"/>
			<point x="142" y="718" type="line"/>
			<point x="13" y="683" type="line"/>
			<point x="13" y="671" type="line"/>
			<point x="52" y="661" type="line"/>
		</contour>
		<contour>
			<point x="149" y="592" type="line"/>
			<point x="157" y="626"/>
			<point x="181" y="661"/>
			<point x="200" y="676" type="curve"/>
			<point x="183" y="679" type="line"/>
			<point x="193" y="660" type="line" smooth="yes"/>
			<point x="207" y="633"/>
			<point x="229" y="624"/>
			<point x="250" y="624" type="curve" smooth="yes"/>
			<point x="276" y="624"/>
			<point x="298" y="639"/>
			<point x="301" y="673" type="curve"/>
			<point x="296" y="704"/>
			<point x="272" y="718"/>
			<point x="245" y="718" type="curve" smooth="yes"/>
			<point x="203" y="718"/>
			<point x="170" y="686"/>
			<point x="148" y="622" type="curve"/>
			<point x="139" y="622" type="line"/>
		</contour>
		<contour>
			<point x="16" y="414" type="line"/>
			<point x="194" y="414" type="line"/>
			<point x="194" y="428" type="line"/>
			<point x="131" y="439" type="line"/>
			<point x="73" y="439" type="line"/>
			<point x="16" y="428" type="line"/>
		</contour>
	</outline>
</glyph>
<glyph name="w.sups" format="2">
	<unicode hex="02B7"/>
	<advance width="512"/>
	<outline>
		<contour>
			<point x="134" y="413" type="line"/>
			<point x="185" y="413" type="line"/>
			<point x="259" y="625" type="line"/>
			<point x="263" y="637" type="line"/>
			<point x="248" y="633" type="line"/>
			<point x="325" y="413" type="line"/>
			<point x="374" y="413" type="line"/>
			<point x="479" y="708" type="line"/>
			<point x="457" y="708" type="line"/>
			<point x="387" y="501" type="line"/>
			<point x="384" y="492" type="line"/>
			<point x="396" y="492" type="line"/>
			<point x="324" y="708" type="line"/>
			<point x="266" y="708" type="line"/>
			<point x="196" y="502" type="line"/>
			<point x="193" y="492" type="line"/>
			<point x="206" y="492" type="line"/>
			<point x="136" y="708" type="line"/>
			<point x="26" y="708" type="line"/>
		</contour>
		<contour>
			<point x="5" y="694" type="line"/>
			<point x="54" y="683" type="line"/>
			<point x="125" y="683" type="line"/>
			<point x="181" y="694" type="line"/>
			<point x="181" y="708" type="line"/>
			<point x="5" y="708" type="line"/>
		</contour>
		<contour>
			<point x="219" y="694" type="line"/>
			<point x="274" y="686" type="line"/>
			<point x="315" y="684" type="line"/>
			<point x="369" y="694" type="line"/>
			<point x="369" y="708" type="line"/>
			<point x="219" y="708" type="line"/>
		</contour>
		<contour>
			<point x="405" y="694" type="line"/>
			<point x="460" y="686" type="line"/>
			<point x="466" y="686" type="line"/>
			<point x="507" y="694" type="line"/>
			<point x="507" y="708" type="line"/>
			<point x="405" y="708" type="line"/>
		</contour>
	</outline>
</glyph>
<glyph name="y.sups" format="2">
	<unicode hex="02B8"/>
	<advance width="343"/>
	<outline>
		<contour>
			<point x="66" y="258" type="curve" smooth="yes"/>
			<point x="117" y="258"/>
			<point x="149" y="295"/>
			<point x="175" y="360" type="curve" smooth="yes"/>
			<point x="311" y="708" type="line"/>
			<point x="289" y="708" type="line"/>
			<point x="206" y="489" type="line"/>
			<point x="156" y="363" type="line" smooth="yes"/>
			<point x="135" y="314"/>
			<point x="121" y="295"/>
			<point x="96" y="280" type="curve"/>
			<point x="107" y="274" type="line"/>
			<point x="118" y="284" type="line"/>
			<point x="106" y="299" type="line" smooth="yes"/>
			<point x="82" y="325"/>
			<point x="65" y="333"/>
			<point x="44" y="333" type="curve" smooth="yes"/>
			<point x="19" y="333"/>
			<point x="1" y="319"/>
			<point x="-2" y="298" type="curve"/>
			<point x="6" y="267"/>
			<point x="40" y="258"/>
		</contour>
		<contour>
			<point x="5" y="694" type="line"/>
			<point x="54" y="683" type="line"/>
			<point x="132" y="683" type="line"/>
			<point x="190" y="694" type="line"/>
			<point x="190" y="708" type="line"/>
			<point x="5" y="708" type="line"/>
		</contour>
		<contour>
			<point x="234" y="694" type="line"/>
			<point x="289" y="686" type="line"/>
			<point x="296" y="686" type="line"/>
			<point x="337" y="694" type="line"/>
			<point x="337" y="708" type="line"/>
			<point x="234" y="708" type="line"/>
		</contour>
		<contour>
			<point x="167" y="376" type="line"/>
			<point x="191" y="430" type="line"/>
			<point x="217" y="492" type="line"/>
			<point x="134" y="708" type="line"/>
			<point x="26" y="708" type="line"/>
		</contour>
	</outline>
</glyph>
<glyph name="s.sups" format="2">
	<unicode hex="02E2"/>
	<advance width="278"/>
	<outline>
		<contour>
			<point x="127" y="403" type="curve" smooth="yes"/>
			<point x="208" y="403"/>
			<point x="257" y="440"/>
			<point x="257" y="506" type="curve" smooth="yes"/>
			<point x="257" y="562"/>
			<point x="216" y="582"/>
			<point x="177" y="597" type="curve" smooth="yes"/>
			<point x="157" y="605" type="line" smooth="yes"/>
			<point x="124" y="618"/>
			<point x="95" y="630"/>
			<point x="95" y="660" type="curve" smooth="yes"/>
			<point x="95" y="687"/>
			<point x="117" y="702"/>
			<point x="148" y="702" type="curve" smooth="yes"/>
			<point x="167" y="702"/>
			<point x="181" y="699"/>
			<point x="193" y="692" type="curve"/>
			<point x="193" y="702" type="line"/>
			<point x="183" y="702" type="line"/>
			<point x="221" y="619" type="line"/>
			<point x="236" y="619" type="line"/>
			<point x="238" y="695" type="line"/>
			<point x="211" y="710"/>
			<point x="184" y="718"/>
			<point x="148" y="718" type="curve" smooth="yes"/>
			<point x="65" y="718"/>
			<point x="24" y="676"/>
			<point x="24" y="621" type="curve" smooth="yes"/>
			<point x="24" y="565"/>
			<point x="65" y="544"/>
			<point x="104" y="529" type="curve" smooth="yes"/>
			<point x="123" y="521" type="line" smooth="yes"/>
			<point x="156" y="508"/>
			<point x="183" y="496"/>
			<point x="183" y="465" type="curve" smooth="yes"/>
			<point x="183" y="436"/>
			<point x="160" y="420"/>
			<point x="126" y="420" type="curve" smooth="yes"/>
			<point x="100" y="420"/>
			<point x="85" y="424"/>
			<point x="68" y="433" type="curve"/>
			<point x="68" y="426" type="line"/>
			<point x="78" y="426" type="line"/>
			<point x="39" y="510" type="line"/>
			<point x="25" y="510" type="line"/>
			<point x="22" y="431" type="line"/>
			<point x="54" y="414"/>
			<point x="88" y="403"/>
		</contour>
	</outline>
</glyph>
<glyph name="ringcmb" format="2">
	<unicode hex="030A"/>
	<outline>
		<contour>
			<point x="0" y="558" type="curve" smooth="yes"/>
			<point x="-41" y="558"/>
			<point x="-64" y="591"/>
			<point x="-64" y="626" type="curve" smooth="yes"/>
			<point x="-64" y="660"/>
			<point x="-41" y="693"/>
			<point x="0" y="693" type="curve" smooth="yes"/>
			<point x="41" y="693"/>
			<point x="64" y="660"/>
			<point x="64" y="626" type="curve" smooth="yes"/>
			<point x="64" y="591"/>
			<point x="41" y="558"/>
		</contour>
		<contour>
			<point x="0" y="529" type="curve" smooth="yes"/>
			<point x="50" y="529"/>
			<point x="100" y="565"/>
			<point x="100" y="626" type="curve" smooth="yes"/>
			<point x="100" y="688"/>
			<point x="50" y="722"/>
			<point x="0" y="722" type="curve" smooth="yes"/>
			<point x="-50" y="722"/>
			<point x="-100" y="686"/>
			<point x="-100" y="626" type="curve" smooth="yes"/>
			<point x="-100" y="564"/>
			<point x="-50" y="529"/>
		</contour>
	</outline>
	<anchor name="_aboveLC" x="0" y="478"/>
	<anchor name="aboveLC" x="0" y="722"/>
</glyph>
<glyph name="Delta" format="2">
	<unicode hex="0394"/>
	<unicode hex="2206"/>
	<advance width="569"/>
	<outline>
		<contour>
			<point x="24" y="0" type="line"/>
			<point x="44" y="0" type="line"/>
			<point x="225" y="530" type="line"/>
			<point x="227" y="536" type="line"/>
			<point x="218" y="536" type="line"/>
			<point x="408" y="0" type="line"/>
			<point x="545" y="0" type="line"/>
			<point x="545" y="28" type="line"/>
			<point x="320" y="660" type="line"/>
			<point x="242" y="660" type="line"/>
			<point x="24" y="28" type="line"/>
		</contour>
		<contour>
			<point x="39" y="0" type="line"/>
			<point x="430" y="0" type="line"/>
			<point x="430" y="109" type="line"/>
			<point x="62" y="109" type="line"/>
		</contour>
	</outline>
</glyph>
<glyph name="Phi" format="2">
	<unicode hex="03A6"/>
	<advance width="728"/>
	<outline>
		<contour>
			<point x="28" y="338" type="curve" smooth="yes"/>
			<point x="28" y="186"/>
			<point x="141" y="108"/>
			<point x="318" y="108" type="curve" smooth="yes"/>
			<point x="363" y="108" type="line"/>
			<point x="363" y="133" type="line"/>
			<point x="308" y="133" type="line" smooth="yes"/>
			<point x="221" y="133"/>
			<point x="167" y="218"/>
			<point x="167" y="338" type="curve" smooth="yes"/>
			<point x="167" y="456"/>
			<point x="214" y="544"/>
			<point x="308" y="544" type="curve" smooth="yes"/>
			<point x="363" y="544" type="line"/>
			<point x="363" y="569" type="line"/>
			<point x="316" y="569" type="line"/>
			<point x="134" y="569"/>
			<point x="28" y="476"/>
		</contour>
		<contour>
			<point x="365" y="108" type="line"/>
			<point x="410" y="108" type="line" smooth="yes"/>
			<point x="587" y="108"/>
			<point x="700" y="189"/>
			<point x="700" y="339" type="curve" smooth="yes"/>
			<point x="700" y="480"/>
			<point x="594" y="569"/>
			<point x="413" y="569" type="curve"/>
			<point x="365" y="569" type="line"/>
			<point x="365" y="544" type="line"/>
			<point x="420" y="544" type="line" smooth="yes"/>
			<point x="515" y="544"/>
			<point x="562" y="457"/>
			<point x="562" y="339" type="curve" smooth="yes"/>
			<point x="562" y="220"/>
			<point x="507" y="133"/>
			<point x="420" y="133" type="curve" smooth="yes"/>
			<point x="365" y="133" type="line"/>
		</contour>
		<contour>
			<point x="298" y="0" type="curve"/>
			<point x="431" y="0" type="line"/>
			<point x="431" y="107"/>
			<point x="431" y="215"/>
			<point x="431" y="322" type="curve" smooth="yes"/>
			<point x="431" y="354" type="line" smooth="yes"/>
			<point x="431" y="457"/>
			<point x="431" y="563"/>
			<point x="431" y="667" type="curve"/>
			<point x="298" y="667" type="line"/>
			<point x="298" y="563"/>
			<point x="298" y="457"/>
			<point x="298" y="354" type="curve" smooth="yes"/>
			<point x="298" y="322" type="line" smooth="yes"/>
			<point x="298" y="215"/>
			<point x="298" y="107"/>
		</contour>
		<contour>
			<point x="228" y="645" type="line"/>
			<point x="332" y="630" type="line"/>
			<point x="396" y="630" type="line"/>
			<point x="500" y="645" type="line"/>
			<point x="500" y="667" type="line"/>
			<point x="228" y="667" type="line"/>
		</contour>
		<contour>
			<point x="228" y="0" type="line"/>
			<point x="500" y="0" type="line"/>
			<point x="500" y="22" type="line"/>
			<point x="396" y="36" type="line"/>
			<point x="332" y="36" type="line"/>
			<point x="228" y="22" type="line"/>
		</contour>
	</outline>
</glyph>
<glyph name="alpha" format="2">
	<unicode hex="03B1"/>
	<advance width="549"/>
	<outline>
		<contour>
			<point x="197" y="-15" type="curve" smooth="yes"/>
			<point x="266" y="-15"/>
			<point x="328" y="20"/>
			<point x="349" y="138" type="curve"/>
			<point x="336" y="136" type="line"/>
			<point x="337" y="22"/>
			<point x="372" y="-15"/>
			<point x="443" y="-15" type="curve" smooth="yes"/>
			<point x="494" y="-15"/>
			<point x="535" y="17"/>
			<point x="555" y="68" type="curve"/>
			<point x="544" y="81" type="line"/>
			<point x="532" y="72"/>
			<point x="520" y="66"/>
			<point x="506" y="66" type="curve" smooth="yes"/>
			<point x="476" y="66"/>
			<point x="460" y="78"/>
			<point x="460" y="132" type="curve" smooth="yes"/>
			<point x="460" y="198"/>
			<point x="472" y="339"/>
			<point x="491" y="462" type="curve"/>
			<point x="477" y="472" type="line"/>
			<point x="347" y="447" type="line"/>
			<point x="343" y="372" type="line"/>
			<point x="334" y="168" type="line"/>
			<point x="330" y="89"/>
			<point x="293" y="53"/>
			<point x="254" y="53" type="curve" smooth="yes"/>
			<point x="203" y="53"/>
			<point x="174" y="93"/>
			<point x="174" y="225" type="curve" smooth="yes"/>
			<point x="174" y="343"/>
			<point x="204" y="408"/>
			<point x="267" y="408" type="curve" smooth="yes"/>
			<point x="305" y="408"/>
			<point x="327" y="387"/>
			<point x="354" y="342" type="curve"/>
			<point x="363" y="375" type="line"/>
			<point x="351" y="375" type="line"/>
			<point x="331" y="430"/>
			<point x="296" y="472"/>
			<point x="217" y="472" type="curve" smooth="yes"/>
			<point x="108" y="472"/>
			<point x="34" y="380"/>
			<point x="34" y="208" type="curve" smooth="yes"/>
			<point x="34" y="71"/>
			<point x="94" y="-15"/>
		</contour>
	</outline>
	<anchor name="aboveLC" x="280" y="478"/>
	<anchor name="belowLC" x="293" y="-20"/>
</glyph>
<glyph name="omicron" format="2">
	<unicode hex="03BF"/>
	<advance width="526"/>
	<outline>
		<contour>
			<point x="258" y="-15" type="curve" smooth="yes"/>
			<point x="388" y="-15"/>
			<point x="492" y="82"/>
			<point x="492" y="238" type="curve" smooth="yes"/>
			<point x="492" y="393"/>
			<point x="394" y="472"/>
			<point x="269" y="472" type="curve" smooth="yes"/>
			<point x="139" y="472"/>
			<point x="34" y="376"/>
			<point x="34" y="220" type="curve" smooth="yes"/>
			<point x="34" y="64"/>
			<point x="132" y="-15"/>
		</contour>
		<contour>
			<point x="272" y="11" type="curve" smooth="yes"/>
			<point x="209" y="11"/>
			<point x="174" y="102"/>
			<point x="174" y="281" type="curve" smooth="yes"/>
			<point x="174" y="374"/>
			<point x="194" y="447"/>
			<point x="253" y="447" type="curve" smooth="yes"/>
			<point x="317" y="447"/>
			<point x="351" y="355"/>
			<point x="351" y="177" type="curve" smooth="yes"/>
			<point x="351" y="83"/>
			<point x="331" y="11"/>
		</contour>
	</outline>
	<anchor name="aboveLC" x="263" y="478"/>
</glyph>
<glyph name="rho" format="2">
	<unicode hex="03C1"/>
	<advance width="542"/>
	<outline>
		<contour>
			<point x="55" y="-201" type="line"/>
			<point x="68" y="-212" type="line"/>
			<point x="211" y="-188" type="line"/>
			<point x="191" y="67" type="line"/>
			<point x="195" y="74" type="line"/>
			<point x="195" y="265" type="line" smooth="yes"/>
			<point x="195" y="392"/>
			<point x="224" y="447"/>
			<point x="279" y="447" type="curve" smooth="yes"/>
			<point x="340" y="447"/>
			<point x="368" y="344"/>
			<point x="368" y="228" type="curve" smooth="yes"/>
			<point x="368" y="95"/>
			<point x="330" y="44"/>
			<point x="272" y="44" type="curve" smooth="yes"/>
			<point x="234" y="44"/>
			<point x="211" y="59"/>
			<point x="180" y="99" type="curve"/>
			<point x="179" y="87" type="line"/>
			<point x="180" y="79" type="line"/>
			<point x="209" y="12"/>
			<point x="254" y="-15"/>
			<point x="324" y="-15" type="curve" smooth="yes"/>
			<point x="434" y="-15"/>
			<point x="508" y="67"/>
			<point x="508" y="231" type="curve" smooth="yes"/>
			<point x="508" y="379"/>
			<point x="427" y="472"/>
			<point x="288" y="472" type="curve" smooth="yes"/>
			<point x="145" y="472"/>
			<point x="66" y="383"/>
			<point x="62" y="204" type="curve" smooth="yes"/>
			<point x="59" y="45" type="line"/>
		</contour>
	</outline>
	<anchor name="aboveLC" x="289" y="478"/>
</glyph>
<glyph name="psi" format="2">
	<unicode hex="03C8"/>
	<advance width="677"/>
	<outline>
		<contour>
			<point x="323" y="-212" type="line"/>
			<point x="451" y="-190" type="line"/>
			<point x="441" y="17" type="line"/>
			<point x="414" y="628" type="line"/>
			<point x="346" y="628" type="line"/>
			<point x="320" y="16" type="line"/>
			<point x="310" y="-201" type="line"/>
		</contour>
		<contour>
			<point x="368" y="-15" type="curve"/>
			<point x="382" y="54" type="line"/>
			<point x="267" y="54"/>
			<point x="196" y="74"/>
			<point x="196" y="195" type="curve" smooth="yes"/>
			<point x="196" y="240"/>
			<point x="206" y="314"/>
			<point x="206" y="365" type="curve" smooth="yes"/>
			<point x="206" y="438"/>
			<point x="171" y="472"/>
			<point x="116" y="472" type="curve" smooth="yes"/>
			<point x="60" y="472"/>
			<point x="19" y="439"/>
			<point x="-4" y="401" type="curve"/>
			<point x="7" y="383" type="line"/>
			<point x="18" y="388"/>
			<point x="28" y="392"/>
			<point x="40" y="392" type="curve" smooth="yes"/>
			<point x="64" y="392"/>
			<point x="73" y="379"/>
			<point x="73" y="350" type="curve" smooth="yes"/>
			<point x="73" y="311"/>
			<point x="63" y="234"/>
			<point x="63" y="188" type="curve" smooth="yes"/>
			<point x="63" y="32"/>
			<point x="190" y="-15"/>
		</contour>
		<contour>
			<point x="372" y="-15" type="line"/>
			<point x="589" y="-15"/>
			<point x="638" y="144"/>
			<point x="638" y="325" type="curve" smooth="yes"/>
			<point x="638" y="371"/>
			<point x="636" y="413"/>
			<point x="626" y="450" type="curve"/>
			<point x="614" y="464"/>
			<point x="598" y="472"/>
			<point x="578" y="472" type="curve" smooth="yes"/>
			<point x="547" y="472"/>
			<point x="523" y="452"/>
			<point x="523" y="413" type="curve" smooth="yes"/>
			<point x="523" y="373"/>
			<point x="564" y="314"/>
			<point x="603" y="241" type="curve"/>
			<point x="616" y="304" type="line"/>
			<point x="594" y="304" type="line"/>
			<point x="594" y="279"/>
			<point x="594" y="253"/>
			<point x="593" y="233" type="curve" smooth="yes"/>
			<point x="589" y="117"/>
			<point x="529" y="54"/>
			<point x="387" y="54" type="curve"/>
		</contour>
	</outline>
</glyph>
<glyph name="kai" format="2">
	<unicode hex="03D7"/>
	<advance width="598"/>
	<outline>
		<contour>
			<point x="285" y="-212" type="curve" smooth="yes"/>
			<point x="434" y="-212"/>
			<point x="537" y="-132"/>
			<point x="586" y="89" type="curve"/>
			<point x="577" y="102" type="line"/>
			<point x="565" y="95"/>
			<point x="546" y="87"/>
			<point x="521" y="87" type="curve" smooth="yes"/>
			<point x="461" y="87"/>
			<point x="430" y="144"/>
			<point x="341" y="288" type="curve"/>
			<point x="321" y="264" type="line"/>
			<point x="401" y="20"/>
			<point x="420" y="-15"/>
			<point x="484" y="-15" type="curve" smooth="yes"/>
			<point x="517" y="-15"/>
			<point x="546" y="0"/>
			<point x="564" y="23" type="curve"/>
			<point x="564" y="28" type="line"/>
			<point x="553" y="28" type="line"/>
			<point x="498" y="-59"/>
			<point x="413" y="-106"/>
			<point x="300" y="-106" type="curve" smooth="yes"/>
			<point x="170" y="-106"/>
			<point x="78" y="-68"/>
			<point x="43" y="34" type="curve"/>
			<point x="25" y="28" type="line"/>
			<point x="25" y="-117"/>
			<point x="117" y="-212"/>
		</contour>
		<contour>
			<point x="152" y="-15" type="line"/>
			<point x="288" y="8" type="line"/>
			<point x="286" y="76"/>
			<point x="285" y="144"/>
			<point x="283" y="211" type="curve"/>
			<point x="277" y="211" type="line"/>
			<point x="282" y="256"/>
			<point x="284" y="301"/>
			<point x="284" y="346" type="curve" smooth="yes"/>
			<point x="284" y="433"/>
			<point x="254" y="472"/>
			<point x="193" y="472" type="curve" smooth="yes"/>
			<point x="138" y="472"/>
			<point x="96" y="433"/>
			<point x="74" y="394" type="curve"/>
			<point x="84" y="379" type="line"/>
			<point x="97" y="387"/>
			<point x="108" y="391"/>
			<point x="120" y="391" type="curve" smooth="yes"/>
			<point x="149" y="391"/>
			<point x="159" y="372"/>
			<point x="156" y="314" type="curve" smooth="yes"/>
			<point x="149" y="170" type="line"/>
			<point x="138" y="-4" type="line"/>
		</contour>
		<contour>
			<point x="245" y="120" type="line"/>
			<point x="276" y="178"/>
			<point x="301" y="223"/>
			<point x="328" y="263" type="curve"/>
			<point x="334" y="272" type="line"/>
			<point x="366" y="319"/>
			<point x="403" y="362"/>
			<point x="450" y="396" type="curve"/>
			<point x="386" y="352" type="line"/>
			<point x="475" y="354" type="line" smooth="yes"/>
			<point x="534" y="356"/>
			<point x="576" y="375"/>
			<point x="576" y="417" type="curve" smooth="yes"/>
			<point x="576" y="452"/>
			<point x="550" y="468"/>
			<point x="527" y="472" type="curve"/>
			<point x="495" y="470"/>
			<point x="466" y="454"/>
			<point x="434" y="427" type="curve" smooth="yes"/>
			<point x="365" y="369"/>
			<point x="292" y="259"/>
			<point x="245" y="168" type="curve"/>
			<point x="232" y="143" type="line"/>
			<point x="218" y="143" type="line"/>
		</contour>
	</outline>
</glyph>
<glyph name="digamma" format="2">
	<unicode hex="03DD"/>
	<advance width="431"/>
	<outline>
		<contour>
			<point x="66" y="-201" type="line"/>
			<point x="80" y="-212" type="line"/>
			<point x="211" y="-189" type="line"/>
			<point x="199" y="96" type="line"/>
			<point x="204" y="213"/>
			<point x="210" y="329"/>
			<point x="215" y="446" type="curve"/>
			<point x="172" y="416" type="line"/>
			<point x="419" y="398" type="line"/>
			<point x="419" y="471" type="line"/>
			<point x="68" y="456" type="line"/>
			<point x="89" y="102" type="line"/>
		</contour>
		<contour>
			<point x="120" y="148" type="line"/>
			<point x="390" y="127" type="line"/>
			<point x="390" y="199" type="line"/>
			<point x="120" y="194" type="line"/>
		</contour>
	</outline>
	<anchor name="aboveLC" x="257" y="478"/>
</glyph>
<glyph name="Ucyr" format="2">
	<unicode hex="0423"/>
	<advance width="606"/>
	<outline>
		<contour>
			<point x="97" y="-4" type="curve"/>
			<point x="98" y="-45"/>
			<point x="128" y="-76"/>
			<point x="180" y="-76" type="curve" smooth="yes"/>
			<point x="253" y="-76"/>
			<point x="298" y="0"/>
			<point x="344" y="118" type="curve" smooth="yes"/>
			<point x="552" y="657" type="line"/>
			<point x="520" y="657" type="line"/>
			<point x="433" y="432" type="line"/>
			<point x="321" y="134" type="line"/>
			<point x="319" y="134" type="line"/>
			<point x="274" y="21"/>
			<point x="259" y="-13"/>
			<point x="200" y="-19" type="curve"/>
			<point x="205" y="-45" type="line"/>
			<point x="257" y="-7" type="line"/>
			<point x="221" y="37"/>
			<point x="197" y="52"/>
			<point x="169" y="52" type="curve" smooth="yes"/>
			<point x="132" y="52"/>
			<point x="104" y="31"/>
		</contour>
		<contour>
			<point x="12" y="636" type="line"/>
			<point x="96" y="621" type="line"/>
			<point x="185" y="621" type="line"/>
			<point x="287" y="636" type="line"/>
			<point x="287" y="657" type="line"/>
			<point x="12" y="657" type="line"/>
		</contour>
		<contour>
			<point x="437" y="636" type="line"/>
			<point x="516" y="626" type="line"/>
			<point x="524" y="626" type="line"/>
			<point x="594" y="636" type="line"/>
			<point x="594" y="657" type="line"/>
			<point x="437" y="657" type="line"/>
		</contour>
		<contour>
			<point x="303" y="74" type="line"/>
			<point x="378" y="232" type="line"/>
			<point x="206" y="657" type="line"/>
			<point x="55" y="657" type="line"/>
		</contour>
	</outline>
	<anchor name="aboveUC" x="359" y="677"/>
</glyph>
<glyph name="Che" format="2">
	<unicode hex="0427"/>
	<advance width="636"/>
	<outline>
		<contour>
			<point x="116" y="621" type="line"/>
			<point x="187" y="621" type="line"/>
			<point x="282" y="636" type="line"/>
			<point x="282" y="657" type="line"/>
			<point x="20" y="657" type="line"/>
			<point x="20" y="636" type="line"/>
		</contour>
		<contour>
			<point x="265" y="267" type="curve" smooth="yes"/>
			<point x="331" y="267"/>
			<point x="405" y="284"/>
			<point x="479" y="305" type="curve"/>
			<point x="479" y="317" type="line"/>
			<point x="420" y="307"/>
			<point x="372" y="302"/>
			<point x="333" y="302" type="curve" smooth="yes"/>
			<point x="257" y="302"/>
			<point x="222" y="331"/>
			<point x="222" y="433" type="curve" smooth="yes"/>
			<point x="222" y="488"/>
			<point x="223" y="588"/>
			<point x="225" y="657" type="curve"/>
			<point x="82" y="657" type="line"/>
			<point x="82" y="583"/>
			<point x="82" y="508"/>
			<point x="82" y="434" type="curve" smooth="yes"/>
			<point x="82" y="308"/>
			<point x="146" y="267"/>
		</contour>
		<contour>
			<point x="323" y="0" type="line"/>
			<point x="607" y="0" type="line"/>
			<point x="607" y="22" type="line"/>
			<point x="503" y="36" type="line"/>
			<point x="432" y="36" type="line"/>
			<point x="323" y="22" type="line"/>
		</contour>
		<contour>
			<point x="393" y="0" type="curve"/>
			<point x="543" y="0" type="line"/>
			<point x="539" y="79"/>
			<point x="538" y="206"/>
			<point x="538" y="310" type="curve" smooth="yes"/>
			<point x="538" y="354" type="line" smooth="yes"/>
			<point x="538" y="455"/>
			<point x="539" y="579"/>
			<point x="543" y="657" type="curve"/>
			<point x="393" y="657" type="line"/>
			<point x="397" y="579"/>
			<point x="398" y="455"/>
			<point x="398" y="354" type="curve" smooth="yes"/>
			<point x="398" y="310" type="line" smooth="yes"/>
			<point x="398" y="206"/>
			<point x="397" y="79"/>
		</contour>
		<contour>
			<point x="432" y="621" type="line"/>
			<point x="503" y="621" type="line"/>
			<point x="607" y="636" type="line"/>
			<point x="607" y="657" type="line"/>
			<point x="337" y="657" type="line"/>
			<point x="337" y="636" type="line"/>
		</contour>
	</outline>
	<anchor name="aboveUC" x="311" y="677"/>
</glyph>
<glyph name="Yu" format="2">
	<unicode hex="042E"/>
	<advance width="926"/>
	<outline>
		<contour>
			<point x="93" y="0" type="curve"/>
			<point x="243" y="0" type="line"/>
			<point x="239" y="79"/>
			<point x="238" y="206"/>
			<point x="238" y="310" type="curve" smooth="yes"/>
			<point x="238" y="354" type="line" smooth="yes"/>
			<point x="238" y="455"/>
			<point x="239" y="579"/>
			<point x="243" y="657" type="curve"/>
			<point x="93" y="657" type="line"/>
			<point x="97" y="579"/>
			<point x="98" y="455"/>
			<point x="98" y="354" type="curve" smooth="yes"/>
			<point x="98" y="310" type="line" smooth="yes"/>
			<point x="98" y="206"/>
			<point x="97" y="79"/>
		</contour>
		<contour>
			<point x="28" y="0" type="line"/>
			<point x="307" y="0" type="line"/>
			<point x="307" y="22" type="line"/>
			<point x="203" y="36" type="line"/>
			<point x="132" y="36" type="line"/>
			<point x="28" y="22" type="line"/>
		</contour>
		<contour>
			<point x="28" y="636" type="line"/>
			<point x="132" y="621" type="line"/>
			<point x="203" y="621" type="line"/>
			<point x="307" y="636" type="line"/>
			<point x="307" y="657" type="line"/>
			<point x="28" y="657" type="line"/>
		</contour>
		<contour>
			<point x="164" y="322" type="line"/>
			<point x="404" y="322" type="line"/>
			<point x="404" y="350" type="line"/>
			<point x="164" y="350" type="line"/>
		</contour>
		<contour>
			<point x="619" y="-16" type="curve" smooth="yes"/>
			<point x="764" y="-16"/>
			<point x="891" y="97"/>
			<point x="891" y="328" type="curve" smooth="yes"/>
			<point x="891" y="561"/>
			<point x="764" y="673"/>
			<point x="619" y="673" type="curve" smooth="yes"/>
			<point x="473" y="673"/>
			<point x="346" y="559"/>
			<point x="346" y="329" type="curve" smooth="yes"/>
			<point x="346" y="96"/>
			<point x="472" y="-16"/>
		</contour>
		<contour>
			<point x="619" y="10" type="curve" smooth="yes"/>
			<point x="529" y="10"/>
			<point x="497" y="142"/>
			<point x="497" y="330" type="curve" smooth="yes"/>
			<point x="497" y="517"/>
			<point x="529" y="647"/>
			<point x="619" y="647" type="curve" smooth="yes"/>
			<point x="708" y="647"/>
			<point x="740" y="516"/>
			<point x="740" y="328" type="curve" smooth="yes"/>
			<point x="740" y="141"/>
			<point x="708" y="10"/>
		</contour>
	</outline>
	<anchor name="aboveUC" x="398" y="677"/>
</glyph>
<glyph name="shcha" format="2">
	<unicode hex="0449"/>
	<advance width="812"/>
	<outline>
		<contour>
			<point x="75" y="0" type="curve"/>
			<point x="218" y="0" type="line"/>
			<point x="213" y="50"/>
			<point x="213" y="141"/>
			<point x="213" y="207" type="curve" smooth="yes"/>
			<point x="213" y="251" type="line" smooth="yes"/>
			<point x="213" y="317"/>
			<point x="213" y="407"/>
			<point x="218" y="458" type="curve"/>
			<point x="75" y="458" type="line"/>
			<point x="80" y="407"/>
			<point x="80" y="317"/>
			<point x="80" y="251" type="curve" smooth="yes"/>
			<point x="80" y="207" type="line" smooth="yes"/>
			<point x="80" y="141"/>
			<point x="80" y="50"/>
		</contour>
		<contour>
			<point x="327" y="0" type="curve"/>
			<point x="467" y="0" type="line"/>
			<point x="462" y="50"/>
			<point x="462" y="141"/>
			<point x="462" y="207" type="curve" smooth="yes"/>
			<point x="462" y="251" type="line" smooth="yes"/>
			<point x="462" y="317"/>
			<point x="462" y="407"/>
			<point x="467" y="458" type="curve"/>
			<point x="327" y="458" type="line"/>
			<point x="332" y="407"/>
			<point x="332" y="317"/>
			<point x="332" y="251" type="curve" smooth="yes"/>
			<point x="332" y="207" type="line" smooth="yes"/>
			<point x="332" y="141"/>
			<point x="332" y="50"/>
		</contour>
		<contour>
			<point x="575" y="0" type="curve"/>
			<point x="719" y="0" type="line"/>
			<point x="714" y="50"/>
			<point x="714" y="141"/>
			<point x="714" y="207" type="curve" smooth="yes"/>
			<point x="714" y="251" type="line" smooth="yes"/>
			<point x="714" y="317"/>
			<point x="714" y="407"/>
			<point x="719" y="458" type="curve"/>
			<point x="575" y="458" type="line"/>
			<point x="581" y="407"/>
			<point x="581" y="317"/>
			<point x="581" y="251" type="curve" smooth="yes"/>
			<point x="581" y="207" type="line" smooth="yes"/>
			<point x="581" y="141"/>
			<point x="581" y="50"/>
		</contour>
		<contour>
			<point x="761" y="-163" type="line"/>
			<point x="783" y="-163" type="line"/>
			<point x="795" y="26" type="line"/>
			<point x="183" y="26" type="line"/>
			<point x="183" y="0" type="line"/>
			<point x="751" y="0" type="line"/>
			<point x="720" y="18" type="line"/>
		</contour>
		<contour>
			<point x="24" y="436" type="line"/>
			<point x="109" y="421" type="line"/>
			<point x="183" y="421" type="line"/>
			<point x="254" y="436" type="line"/>
			<point x="254" y="458" type="line"/>
			<point x="24" y="458" type="line"/>
		</contour>
		<contour>
			<point x="290" y="436" type="line"/>
			<point x="361" y="421" type="line"/>
			<point x="433" y="421" type="line"/>
			<point x="504" y="436" type="line"/>
			<point x="504" y="458" type="line"/>
			<point x="290" y="458" type="line"/>
		</contour>
		<contour>
			<point x="540" y="436" type="line"/>
			<point x="611" y="421" type="line"/>
			<point x="685" y="421" type="line"/>
			<point x="769" y="436" type="line"/>
			<point x="769" y="458" type="line"/>
			<point x="540" y="458" type="line"/>
		</contour>
		<contour>
			<point x="24" y="0" type="line"/>
			<point x="183" y="0" type="line"/>
			<point x="183" y="36" type="line"/>
			<point x="109" y="36" type="line"/>
			<point x="24" y="22" type="line"/>
		</contour>
	</outline>
</glyph>
<glyph name="yeru" format="2">
	<unicode hex="044B"/>
	<advance width="730"/>
	<outline>
		<contour>
			<point x="168" y="0" type="line"/>
			<point x="245" y="0" type="line" smooth="yes"/>
			<point x="400" y="0"/>
			<point x="449" y="67"/>
			<point x="449" y="147" type="curve" smooth="yes"/>
			<point x="449" y="227"/>
			<point x="392" y="278"/>
			<point x="283" y="278" type="curve" smooth="yes"/>
			<point x="241" y="278"/>
			<point x="206" y="270"/>
			<point x="179" y="263" type="curve"/>
			<point x="165" y="237" type="line"/>
			<point x="190" y="243"/>
			<point x="214" y="248"/>
			<point x="242" y="248" type="curve" smooth="yes"/>
			<point x="286" y="248"/>
			<point x="319" y="213"/>
			<point x="319" y="144" type="curve" smooth="yes"/>
			<point x="319" y="74"/>
			<point x="293" y="26"/>
			<point x="235" y="26" type="curve" smooth="yes"/>
			<point x="168" y="26" type="line"/>
		</contour>
		<contour>
			<point x="75" y="0" type="curve"/>
			<point x="218" y="0" type="line"/>
			<point x="213" y="50"/>
			<point x="213" y="141"/>
			<point x="213" y="207" type="curve" smooth="yes"/>
			<point x="213" y="251" type="line" smooth="yes"/>
			<point x="213" y="317"/>
			<point x="213" y="407"/>
			<point x="218" y="458" type="curve"/>
			<point x="75" y="458" type="line"/>
			<point x="80" y="407"/>
			<point x="80" y="317"/>
			<point x="80" y="251" type="curve" smooth="yes"/>
			<point x="80" y="207" type="line" smooth="yes"/>
			<point x="80" y="141"/>
			<point x="80" y="50"/>
		</contour>
		<contour>
			<point x="511" y="0" type="curve"/>
			<point x="655" y="0" type="line"/>
			<point x="650" y="50"/>
			<point x="650" y="141"/>
			<point x="650" y="207" type="curve" smooth="yes"/>
			<point x="650" y="251" type="line" smooth="yes"/>
			<point x="650" y="317"/>
			<point x="650" y="407"/>
			<point x="655" y="458" type="curve"/>
			<point x="511" y="458" type="line"/>
			<point x="516" y="407"/>
			<point x="517" y="317"/>
			<point x="517" y="251" type="curve" smooth="yes"/>
			<point x="517" y="207" type="line" smooth="yes"/>
			<point x="517" y="141"/>
			<point x="516" y="50"/>
		</contour>
		<contour>
			<point x="24" y="436" type="line"/>
			<point x="109" y="421" type="line"/>
			<point x="183" y="421" type="line"/>
			<point x="268" y="436" type="line"/>
			<point x="268" y="458" type="line"/>
			<point x="24" y="458" type="line"/>
		</contour>
		<contour>
			<point x="461" y="0" type="line"/>
			<point x="705" y="0" type="line"/>
			<point x="705" y="22" type="line"/>
			<point x="620" y="36" type="line"/>
			<point x="546" y="36" type="line"/>
			<point x="461" y="22" type="line"/>
		</contour>
		<contour>
			<point x="461" y="436" type="line"/>
			<point x="546" y="421" type="line"/>
			<point x="620" y="421" type="line"/>
			<point x="705" y="436" type="line"/>
			<point x="705" y="458" type="line"/>
			<point x="461" y="458" type="line"/>
		</contour>
		<contour>
			<point x="24" y="0" type="line"/>
			<point x="183" y="0" type="line"/>
			<point x="183" y="36" type="line"/>
			<point x="109" y="36" type="line"/>
			<point x="24" y="22" type="line"/>
		</contour>
	</outline>
	<anchor name="aboveLC" x="368" y="478"/>
</glyph>
<glyph name="ecyr" format="2">
	<unicode hex="044D"/>
	<advance width="465"/>
	<outline>
		<contour>
			<point x="196" y="-15" type="curve" smooth="yes"/>
			<point x="329" y="-15"/>
			<point x="431" y="72"/>
			<point x="431" y="235" type="curve" smooth="yes"/>
			<point x="431" y="388"/>
			<point x="334" y="472"/>
			<point x="212" y="472" type="curve" smooth="yes"/>
			<point x="159" y="472"/>
			<point x="95" y="459"/>
			<point x="52" y="434" type="curve"/>
			<point x="60" y="303" type="line"/>
			<point x="80" y="303" type="line"/>
			<point x="136" y="450" type="line"/>
			<point x="98" y="427" type="line"/>
			<point x="117" y="438"/>
			<point x="136" y="443"/>
			<point x="160" y="443" type="curve" smooth="yes"/>
			<point x="244" y="443"/>
			<point x="291" y="345"/>
			<point x="291" y="225" type="curve" smooth="yes"/>
			<point x="291" y="66"/>
			<point x="241" y="11"/>
			<point x="181" y="11" type="curve" smooth="yes"/>
			<point x="158" y="11"/>
			<point x="135" y="19"/>
			<point x="109" y="35" type="curve"/>
			<point x="156" y="3" type="line"/>
			<point x="144" y="79" type="line" smooth="yes"/>
			<point x="138" y="126"/>
			<point x="116" y="142"/>
			<point x="88" y="142" type="curve" smooth="yes"/>
			<point x="64" y="142"/>
			<point x="43" y="129"/>
			<point x="36" y="101" type="curve"/>
			<point x="40" y="35"/>
			<point x="104" y="-15"/>
		</contour>
		<contour>
			<point x="126" y="214" type="line"/>
			<point x="361" y="223" type="line"/>
			<point x="361" y="244" type="line"/>
			<point x="126" y="250" type="line"/>
		</contour>
	</outline>
	<anchor name="aboveLC" x="216" y="478"/>
</glyph>
<glyph name="ya" format="2">
	<unicode hex="044F"/>
	<advance width="532"/>
	<outline>
		<contour>
			<point x="252" y="458" type="line" smooth="yes"/>
			<point x="122" y="457"/>
			<point x="73" y="401"/>
			<point x="73" y="334" type="curve" smooth="yes"/>
			<point x="73" y="269"/>
			<point x="116" y="220"/>
			<point x="231" y="214" type="curve"/>
			<point x="298" y="221" type="line"/>
			<point x="156" y="220"/>
			<point x="112" y="170"/>
			<point x="84" y="96" type="curve" smooth="yes"/>
			<point x="50" y="5" type="line"/>
			<point x="153" y="42" type="line"/>
			<point x="12" y="22" type="line"/>
			<point x="12" y="0" type="line"/>
			<point x="34" y="-5"/>
			<point x="67" y="-11"/>
			<point x="100" y="-11" type="curve" smooth="yes"/>
			<point x="159" y="-11"/>
			<point x="194" y="6"/>
			<point x="210" y="68" type="curve" smooth="yes"/>
			<point x="227" y="134" type="line" smooth="yes"/>
			<point x="236" y="170"/>
			<point x="252" y="202"/>
			<point x="302" y="202" type="curve" smooth="yes"/>
			<point x="364" y="202" type="line"/>
			<point x="364" y="226" type="line"/>
			<point x="296" y="226" type="line" smooth="yes"/>
			<point x="234" y="226"/>
			<point x="200" y="262"/>
			<point x="200" y="334" type="curve" smooth="yes"/>
			<point x="200" y="400"/>
			<point x="235" y="431"/>
			<point x="295" y="431" type="curve" smooth="yes"/>
			<point x="364" y="431" type="line"/>
			<point x="423" y="421" type="line"/>
			<point x="508" y="436" type="line"/>
			<point x="508" y="458" type="line"/>
		</contour>
		<contour>
			<point x="314" y="0" type="curve"/>
			<point x="458" y="0" type="line"/>
			<point x="453" y="50"/>
			<point x="452" y="141"/>
			<point x="452" y="207" type="curve" smooth="yes"/>
			<point x="452" y="251" type="line" smooth="yes"/>
			<point x="452" y="317"/>
			<point x="453" y="407"/>
			<point x="458" y="458" type="curve"/>
			<point x="314" y="458" type="line"/>
			<point x="319" y="407"/>
			<point x="319" y="317"/>
			<point x="319" y="251" type="curve" smooth="yes"/>
			<point x="319" y="207" type="line" smooth="yes"/>
			<point x="319" y="141"/>
			<point x="319" y="50"/>
		</contour>
		<contour>
			<point x="264" y="0" type="line"/>
			<point x="508" y="0" type="line"/>
			<point x="508" y="22" type="line"/>
			<point x="423" y="36" type="line"/>
			<point x="348" y="36" type="line"/>
			<point x="264" y="22" type="line"/>
		</contour>
	</outline>
	<anchor name="aboveLC" x="294" y="478"/>
</glyph>
<glyph name="Yat" format="2">
	<unicode hex="0462"/>
	<advance width="701"/>
	<outline>
		<contour>
			<point x="53" y="417" type="line"/>
			<point x="75" y="417" type="line"/>
			<point x="139" y="563" type="line"/>
			<point x="107" y="551" type="line"/>
			<point x="518" y="551" type="line"/>
			<point x="486" y="563" type="line"/>
			<point x="550" y="417" type="line"/>
			<point x="571" y="417" type="line"/>
			<point x="563" y="578" type="line"/>
			<point x="61" y="578" type="line"/>
		</contour>
		<contour>
			<point x="304" y="0" type="line"/>
			<point x="414" y="0" type="line" smooth="yes"/>
			<point x="614" y="0"/>
			<point x="679" y="86"/>
			<point x="679" y="187" type="curve" smooth="yes"/>
			<point x="679" y="293"/>
			<point x="605" y="358"/>
			<point x="445" y="358" type="curve" smooth="yes"/>
			<point x="389" y="358"/>
			<point x="341" y="348"/>
			<point x="304" y="340" type="curve"/>
			<point x="304" y="313" type="line"/>
			<point x="340" y="321"/>
			<point x="376" y="331"/>
			<point x="416" y="331" type="curve" smooth="yes"/>
			<point x="493" y="331"/>
			<point x="538" y="280"/>
			<point x="538" y="187" type="curve" smooth="yes"/>
			<point x="538" y="96"/>
			<point x="498" y="27"/>
			<point x="415" y="27" type="curve" smooth="yes"/>
			<point x="304" y="27" type="line"/>
		</contour>
		<contour>
			<point x="228" y="0" type="curve"/>
			<point x="376" y="0" type="line"/>
			<point x="373" y="86"/>
			<point x="372" y="207"/>
			<point x="372" y="317" type="curve" smooth="yes"/>
			<point x="372" y="414" type="line" smooth="yes"/>
			<point x="372" y="520"/>
			<point x="374" y="636"/>
			<point x="377" y="718" type="curve"/>
			<point x="228" y="718" type="line"/>
			<point x="231" y="636"/>
			<point x="232" y="520"/>
			<point x="232" y="414" type="curve" smooth="yes"/>
			<point x="232" y="317" type="line" smooth="yes"/>
			<point x="232" y="207"/>
			<point x="231" y="86"/>
		</contour>
		<contour>
			<point x="163" y="697" type="line"/>
			<point x="267" y="682" type="line"/>
			<point x="338" y="682" type="line"/>
			<point x="441" y="697" type="line"/>
			<point x="441" y="718" type="line"/>
			<point x="163" y="718" type="line"/>
		</contour>
		<contour>
			<point x="163" y="0" type="line"/>
			<point x="341" y="0" type="line"/>
			<point x="338" y="36" type="line"/>
			<point x="267" y="36" type="line"/>
			<point x="163" y="22" type="line"/>
		</contour>
	</outline>
	<anchor name="aboveUC" x="306" y="731"/>
</glyph>
<glyph name="Fita" format="2">
	<unicode hex="0472"/>
	<advance width="646"/>
	<outline>
		<contour>
			<point x="518" y="322" type="line"/>
			<point x="518" y="350" type="line"/>
			<point x="127" y="350" type="line"/>
			<point x="127" y="322" type="line"/>
		</contour>
		<contour>
			<point x="184" y="330" type="curve" smooth="yes"/>
			<point x="184" y="521"/>
			<point x="227" y="647"/>
			<point x="324" y="647" type="curve" smooth="yes"/>
			<point x="420" y="647"/>
			<point x="464" y="520"/>
			<point x="464" y="328" type="curve" smooth="yes"/>
			<point x="464" y="136"/>
			<point x="420" y="10"/>
			<point x="324" y="10" type="curve" smooth="yes"/>
			<point x="227" y="10"/>
			<point x="184" y="138"/>
		</contour>
		<contour>
			<point x="324" y="673" type="curve" smooth="yes"/>
			<point x="174" y="673"/>
			<point x="36" y="559"/>
			<point x="36" y="329" type="curve" smooth="yes"/>
			<point x="36" y="96"/>
			<point x="173" y="-16"/>
			<point x="324" y="-16" type="curve" smooth="yes"/>
			<point x="475" y="-16"/>
			<point x="611" y="97"/>
			<point x="611" y="328" type="curve" smooth="yes"/>
			<point x="611" y="561"/>
			<point x="474" y="673"/>
		</contour>
	</outline>
	<anchor name="aboveUC" x="323" y="677"/>
</glyph>
<glyph name="Izhitsa" format="2">
	<unicode hex="0474"/>
	<advance width="698"/>
	<outline>
		<contour>
			<point x="270" y="-2" type="line"/>
			<point x="345" y="-2" type="line"/>
			<point x="485" y="451" type="line" smooth="yes"/>
			<point x="522" y="566"/>
			<point x="542" y="615"/>
			<point x="580" y="649" type="curve"/>
			<point x="545" y="636" type="line"/>
			<point x="532" y="607" type="line"/>
			<point x="563" y="563"/>
			<point x="591" y="548"/>
			<point x="620" y="548" type="curve" smooth="yes"/>
			<point x="657" y="548"/>
			<point x="684" y="569"/>
			<point x="691" y="604" type="curve"/>
			<point x="688" y="644"/>
			<point x="658" y="676"/>
			<point x="609" y="676" type="curve" smooth="yes"/>
			<point x="524" y="676"/>
			<point x="501" y="606"/>
			<point x="459" y="465" type="curve" smooth="yes"/>
			<point x="359" y="133" type="line"/>
			<point x="368" y="133" type="line"/>
			<point x="214" y="657" type="line"/>
			<point x="64" y="657" type="line"/>
		</contour>
		<contour>
			<point x="12" y="636" type="line"/>
			<point x="99" y="621" type="line"/>
			<point x="188" y="621" type="line"/>
			<point x="296" y="636" type="line"/>
			<point x="296" y="657" type="line"/>
			<point x="12" y="657" type="line"/>
		</contour>
	</outline>
</glyph>
<glyph name="Zhedescender" format="2">
	<unicode hex="0496"/>
	<advance width="915"/>
	<outline>
		<contour>
			<point x="806" y="0" type="line"/>
			<point x="874" y="0" type="line"/>
			<point x="840" y="18" type="line"/>
			<point x="884" y="-175" type="line"/>
			<point x="906" y="-175" type="line"/>
			<point x="918" y="22" type="line"/>
			<point x="806" y="36" type="line"/>
		</contour>
		<component base="Zhe"/>
	</outline>
</glyph>
<glyph name="zhedescender" format="2">
	<unicode hex="0497"/>
	<advance width="762"/>
	<outline>
		<contour>
			<point x="724" y="0" type="line"/>
			<point x="689" y="18" type="line"/>
			<point x="731" y="-163" type="line"/>
			<point x="752" y="-163" type="line"/>
			<point x="764" y="22" type="line"/>
			<point x="669" y="34" type="line"/>
			<point x="669" y="0" type="line"/>
		</contour>
		<component base="zhe"/>
	</outline>
</glyph>
<glyph name="Kadescender" format="2">
	<unicode hex="049A"/>
	<advance width="638"/>
	<outline>
		<contour>
			<point x="529" y="0" type="line"/>
			<point x="597" y="0" type="line"/>
			<point x="563" y="18" type="line"/>
			<point x="607" y="-175" type="line"/>
			<point x="629" y="-175" type="line"/>
			<point x="641" y="22" type="line"/>
			<point x="529" y="36" type="line"/>
		</contour>
		<component base="Ka"/>
	</outline>
</glyph>
<glyph name="Endescender" format="2">
	<unicode hex="04A2"/>
	<advance width="692"/>
	<outline>
		<contour>
			<point x="561" y="0" type="line"/>
			<point x="628" y="0" type="line"/>
			<point x="594" y="18" type="line"/>
			<point x="638" y="-175" type="line"/>
			<point x="660" y="-175" type="line"/>
			<point x="672" y="22" type="line"/>
			<point x="561" y="36" type="line"/>
		</contour>
		<component base="En"/>
	</outline>
</glyph>
<glyph name="endescender" format="2">
	<unicode hex="04A3"/>
	<advance width="600"/>
	<outline>
		<contour>
			<point x="542" y="0" type="line"/>
			<point x="508" y="18" type="line"/>
			<point x="549" y="-163" type="line"/>
			<point x="571" y="-163" type="line"/>
			<point x="583" y="18" type="line"/>
			<point x="487" y="35" type="line"/>
			<point x="487" y="0" type="line"/>
		</contour>
		<component base="en"/>
	</outline>
</glyph>
<glyph name="Hadescender" format="2">
	<unicode hex="04B2"/>
	<advance width="618"/>
	<outline>
		<contour>
			<point x="515" y="0" type="line"/>
			<point x="575" y="0" type="line"/>
			<point x="540" y="18" type="line"/>
			<point x="584" y="-175" type="line"/>
			<point x="606" y="-175" type="line"/>
			<point x="618" y="22" type="line"/>
			<point x="515" y="37" type="line"/>
		</contour>
		<component base="Ha"/>
	</outline>
</glyph>
<glyph name="hadescender" format="2">
	<unicode hex="04B3"/>
	<advance width="496"/>
	<outline>
		<contour>
			<point x="455" y="0" type="line"/>
			<point x="421" y="18" type="line"/>
			<point x="462" y="-163" type="line"/>
			<point x="484" y="-163" type="line"/>
			<point x="496" y="22" type="line"/>
			<point x="402" y="36" type="line"/>
			<point x="402" y="0" type="line"/>
		</contour>
		<component base="ha"/>
	</outline>
</glyph>
<glyph name="chedescender" format="2">
	<unicode hex="04B7"/>
	<advance width="567"/>
	<outline>
		<contour>
			<point x="509" y="0" type="line"/>
			<point x="475" y="18" type="line"/>
			<point x="516" y="-163" type="line"/>
			<point x="538" y="-163" type="line"/>
			<point x="550" y="18" type="line"/>
			<point x="450" y="36" type="line"/>
			<point x="450" y="0" type="line"/>
		</contour>
		<component base="che"/>
	</outline>
</glyph>
<glyph name="palochka" format="2">
	<unicode hex="04CF"/>
	<advance width="292"/>
	<outline>
		<contour>
			<point x="24" y="0" type="line"/>
			<point x="268" y="0" type="line"/>
			<point x="268" y="22" type="line"/>
			<point x="183" y="36" type="line"/>
			<point x="109" y="36" type="line"/>
			<point x="24" y="22" type="line"/>
		</contour>
		<contour>
			<point x="75" y="0" type="curve"/>
			<point x="218" y="0" type="line"/>
			<point x="213" y="50"/>
			<point x="213" y="141"/>
			<point x="213" y="207" type="curve" smooth="yes"/>
			<point x="213" y="510" type="line" smooth="yes"/>
			<point x="213" y="576"/>
			<point x="213" y="670"/>
			<point x="218" y="721" type="curve"/>
			<point x="75" y="721" type="line"/>
			<point x="80" y="670"/>
			<point x="80" y="576"/>
			<point x="80" y="510" type="curve" smooth="yes"/>
			<point x="80" y="207" type="line" smooth="yes"/>
			<point x="80" y="141"/>
			<point x="80" y="50"/>
		</contour>
		<contour>
			<point x="24" y="699" type="line"/>
			<point x="109" y="684" type="line"/>
			<point x="183" y="684" type="line"/>
			<point x="268" y="699" type="line"/>
			<point x="268" y="721" type="line"/>
			<point x="24" y="721" type="line"/>
		</contour>
	</outline>
</glyph>
<glyph name="b.sups" format="2">
	<unicode hex="1D47"/>
	<advance width="388"/>
	<outline>
		<contour>
			<point x="18" y="414" type="line"/>
			<point x="155" y="405" type="line"/>
			<point x="155" y="464" type="line"/>
			<point x="155" y="465" type="line"/>
			<point x="155" y="660" type="line"/>
			<point x="153" y="661" type="line"/>
			<point x="153" y="870" type="line"/>
			<point x="143" y="878" type="line"/>
			<point x="15" y="845" type="line"/>
			<point x="15" y="834" type="line"/>
			<point x="54" y="823" type="line"/>
			<point x="54" y="434" type="line"/>
			<point x="18" y="428" type="line"/>
		</contour>
		<contour>
			<point x="238" y="403" type="curve" smooth="yes"/>
			<point x="315" y="403"/>
			<point x="365" y="467"/>
			<point x="365" y="570" type="curve" smooth="yes"/>
			<point x="365" y="666"/>
			<point x="318" y="718"/>
			<point x="247" y="718" type="curve" smooth="yes"/>
			<point x="200" y="718"/>
			<point x="165" y="692"/>
			<point x="145" y="649" type="curve"/>
			<point x="139" y="649" type="line"/>
			<point x="144" y="636" type="line"/>
			<point x="159" y="655"/>
			<point x="177" y="671"/>
			<point x="197" y="671" type="curve" smooth="yes"/>
			<point x="233" y="671"/>
			<point x="259" y="643"/>
			<point x="259" y="565" type="curve" smooth="yes"/>
			<point x="259" y="483"/>
			<point x="230" y="451"/>
			<point x="197" y="451" type="curve" smooth="yes"/>
			<point x="174" y="451"/>
			<point x="163" y="460"/>
			<point x="143" y="483" type="curve"/>
			<point x="136" y="473" type="line"/>
			<point x="144" y="473" type="line"/>
			<point x="166" y="424"/>
			<point x="200" y="403"/>
		</contour>
	</outline>
</glyph>
<glyph name="d.sups" format="2">
	<unicode hex="1D48"/>
	<advance width="379"/>
	<outline>
		<contour>
			<point x="140" y="403" type="curve" smooth="yes"/>
			<point x="187" y="403"/>
			<point x="219" y="430"/>
			<point x="240" y="473" type="curve"/>
			<point x="246" y="473" type="line"/>
			<point x="241" y="486" type="line"/>
			<point x="226" y="466"/>
			<point x="209" y="451"/>
			<point x="188" y="451" type="curve" smooth="yes"/>
			<point x="152" y="451"/>
			<point x="128" y="476"/>
			<point x="128" y="557" type="curve" smooth="yes"/>
			<point x="128" y="641"/>
			<point x="155" y="671"/>
			<point x="188" y="671" type="curve" smooth="yes"/>
			<point x="211" y="671"/>
			<point x="222" y="662"/>
			<point x="242" y="639" type="curve"/>
			<point x="251" y="649" type="line"/>
			<point x="242" y="649" type="line"/>
			<point x="221" y="697"/>
			<point x="192" y="718"/>
			<point x="153" y="718" type="curve" smooth="yes"/>
			<point x="77" y="718"/>
			<point x="22" y="654"/>
			<point x="22" y="552" type="curve" smooth="yes"/>
			<point x="22" y="456"/>
			<point x="68" y="403"/>
		</contour>
		<contour>
			<point x="230" y="405" type="line"/>
			<point x="364" y="414" type="line"/>
			<point x="364" y="428" type="line"/>
			<point x="331" y="433" type="line"/>
			<point x="331" y="870" type="line"/>
			<point x="320" y="878" type="line"/>
			<point x="193" y="845" type="line"/>
			<point x="193" y="834" type="line"/>
			<point x="231" y="823" type="line"/>
			<point x="231" y="665" type="line"/>
			<point x="230" y="657" type="line"/>
			<point x="230" y="464" type="line"/>
			<point x="230" y="461" type="line"/>
		</contour>
	</outline>
</glyph>
<glyph name="e.sups" format="2">
	<unicode hex="1D49"/>
	<advance width="327"/>
	<outline>
		<contour>
			<point x="173" y="403" type="curve" smooth="yes"/>
			<point x="229" y="403"/>
			<point x="275" y="425"/>
			<point x="301" y="474" type="curve"/>
			<point x="291" y="483" type="line"/>
			<point x="272" y="466"/>
			<point x="250" y="454"/>
			<point x="220" y="454" type="curve" smooth="yes"/>
			<point x="166" y="454"/>
			<point x="127" y="496"/>
			<point x="127" y="573" type="curve" smooth="yes"/>
			<point x="127" y="670"/>
			<point x="148" y="701"/>
			<point x="176" y="701" type="curve" smooth="yes"/>
			<point x="199" y="701"/>
			<point x="215" y="684"/>
			<point x="215" y="636" type="curve" smooth="yes"/>
			<point x="215" y="599"/>
			<point x="203" y="589"/>
			<point x="163" y="589" type="curve" smooth="yes"/>
			<point x="62" y="589" type="line"/>
			<point x="62" y="572" type="line"/>
			<point x="301" y="572" type="line"/>
			<point x="304" y="584"/>
			<point x="304" y="588"/>
			<point x="304" y="601" type="curve" smooth="yes"/>
			<point x="304" y="668"/>
			<point x="262" y="718"/>
			<point x="179" y="718" type="curve" smooth="yes"/>
			<point x="100" y="718"/>
			<point x="21" y="664"/>
			<point x="21" y="557" type="curve" smooth="yes"/>
			<point x="21" y="458"/>
			<point x="89" y="403"/>
		</contour>
	</outline>
</glyph>
<glyph name="g.sups" format="2">
	<unicode hex="1D4D"/>
	<advance width="353"/>
	<outline>
		<contour>
			<point x="147" y="258" type="curve" smooth="yes"/>
			<point x="272" y="258"/>
			<point x="332" y="321"/>
			<point x="332" y="381" type="curve" smooth="yes"/>
			<point x="332" y="436"/>
			<point x="293" y="471"/>
			<point x="216" y="471" type="curve" smooth="yes"/>
			<point x="128" y="471" type="line" smooth="yes"/>
			<point x="96" y="471"/>
			<point x="78" y="475"/>
			<point x="78" y="493" type="curve" smooth="yes"/>
			<point x="78" y="513"/>
			<point x="93" y="526"/>
			<point x="103" y="532" type="curve"/>
			<point x="93" y="547" type="line"/>
			<point x="93" y="540" type="line"/>
			<point x="56" y="517"/>
			<point x="22" y="489"/>
			<point x="22" y="448" type="curve" smooth="yes"/>
			<point x="22" y="409"/>
			<point x="56" y="393"/>
			<point x="95" y="388" type="curve"/>
			<point x="97" y="388" type="line"/>
			<point x="107" y="387"/>
			<point x="116" y="387"/>
			<point x="124" y="387" type="curve" smooth="yes"/>
			<point x="194" y="387" type="line" smooth="yes"/>
			<point x="235" y="387"/>
			<point x="257" y="371"/>
			<point x="257" y="342" type="curve" smooth="yes"/>
			<point x="257" y="307"/>
			<point x="220" y="274"/>
			<point x="150" y="274" type="curve" smooth="yes"/>
			<point x="93" y="274"/>
			<point x="71" y="303"/>
			<point x="71" y="333" type="curve" smooth="yes"/>
			<point x="71" y="359"/>
			<point x="84" y="374"/>
			<point x="108" y="392" type="curve"/>
			<point x="105" y="395" type="line"/>
			<point x="59" y="383"/>
			<point x="8" y="368"/>
			<point x="8" y="326" type="curve" smooth="yes"/>
			<point x="8" y="289"/>
			<point x="39" y="258"/>
		</contour>
		<contour>
			<point x="158" y="515" type="curve" smooth="yes"/>
			<point x="239" y="515"/>
			<point x="289" y="556"/>
			<point x="289" y="615" type="curve" smooth="yes"/>
			<point x="289" y="635"/>
			<point x="285" y="653"/>
			<point x="274" y="668" type="curve"/>
			<point x="272" y="672" type="line"/>
			<point x="253" y="700"/>
			<point x="215" y="718"/>
			<point x="158" y="718" type="curve" smooth="yes"/>
			<point x="77" y="718"/>
			<point x="27" y="677"/>
			<point x="27" y="618" type="curve" smooth="yes"/>
			<point x="27" y="558"/>
			<point x="69" y="515"/>
		</contour>
		<contour>
			<point x="158" y="531" type="curve" smooth="yes"/>
			<point x="134" y="531"/>
			<point x="119" y="552"/>
			<point x="119" y="616" type="curve" smooth="yes"/>
			<point x="119" y="679"/>
			<point x="134" y="702"/>
			<point x="158" y="702" type="curve" smooth="yes"/>
			<point x="183" y="702"/>
			<point x="198" y="680"/>
			<point x="198" y="616" type="curve" smooth="yes"/>
			<point x="198" y="552"/>
			<point x="183" y="531"/>
		</contour>
		<contour>
			<point x="260" y="657" type="line"/>
			<point x="344" y="657" type="line"/>
			<point x="344" y="713" type="line"/>
			<point x="335" y="718" type="line"/>
			<point x="259" y="672" type="line"/>
			<point x="256" y="672" type="line"/>
		</contour>
	</outline>
</glyph>
<glyph name="k.sups" format="2">
	<unicode hex="1D4F"/>
	<advance width="382"/>
	<outline>
		<contour>
			<point x="52" y="414" type="line"/>
			<point x="152" y="414" type="line"/>
			<point x="152" y="870" type="line"/>
			<point x="142" y="878" type="line"/>
			<point x="13" y="845" type="line"/>
			<point x="13" y="834" type="line"/>
			<point x="52" y="823" type="line"/>
		</contour>
		<contour>
			<point x="16" y="414" type="line"/>
			<point x="186" y="414" type="line"/>
			<point x="186" y="428" type="line"/>
			<point x="131" y="439" type="line"/>
			<point x="73" y="439" type="line"/>
			<point x="16" y="428" type="line"/>
		</contour>
		<contour>
			<point x="237" y="414" type="line"/>
			<point x="370" y="414" type="line"/>
			<point x="370" y="428" type="line"/>
			<point x="339" y="435" type="line"/>
			<point x="240" y="639" type="line"/>
			<point x="167" y="571" type="line"/>
		</contour>
		<contour>
			<point x="215" y="694" type="line"/>
			<point x="275" y="683" type="line"/>
			<point x="293" y="683" type="line"/>
			<point x="356" y="694" type="line"/>
			<point x="356" y="708" type="line"/>
			<point x="215" y="708" type="line"/>
		</contour>
		<contour>
			<point x="99" y="497" type="line"/>
			<point x="323" y="708" type="line"/>
			<point x="295" y="708" type="line"/>
			<point x="103" y="520" type="line"/>
			<point x="98" y="520" type="line"/>
		</contour>
	</outline>
</glyph>
<glyph name="o.sups" format="2">
	<unicode hex="1D52"/>
	<advance width="370"/>
	<outline>
		<contour>
			<point x="185" y="408" type="curve" smooth="yes"/>
			<point x="280" y="408"/>
			<point x="347" y="474"/>
			<point x="347" y="566" type="curve" smooth="yes"/>
			<point x="347" y="658"/>
			<point x="291" y="722"/>
			<point x="185" y="722" type="curve" smooth="yes"/>
			<point x="88" y="722"/>
			<point x="22" y="657"/>
			<point x="22" y="565" type="curve" smooth="yes"/>
			<point x="22" y="473"/>
			<point x="79" y="408"/>
		</contour>
		<contour>
			<point x="185" y="426" type="curve" smooth="yes"/>
			<point x="150" y="426"/>
			<point x="131" y="455"/>
			<point x="131" y="565" type="curve" smooth="yes"/>
			<point x="131" y="674"/>
			<point x="150" y="706"/>
			<point x="185" y="706" type="curve" smooth="yes"/>
			<point x="220" y="706"/>
			<point x="239" y="675"/>
			<point x="239" y="566" type="curve" smooth="yes"/>
			<point x="239" y="457"/>
			<point x="220" y="426"/>
		</contour>
	</outline>
</glyph>
<glyph name="p.sups" format="2">
	<unicode hex="1D56"/>
	<advance width="382"/>
	<outline>
		<contour>
			<point x="234" y="408" type="curve" smooth="yes"/>
			<point x="310" y="408"/>
			<point x="360" y="472"/>
			<point x="360" y="575" type="curve" smooth="yes"/>
			<point x="360" y="671"/>
			<point x="313" y="722"/>
			<point x="242" y="722" type="curve" smooth="yes"/>
			<point x="196" y="722"/>
			<point x="163" y="697"/>
			<point x="143" y="653" type="curve"/>
			<point x="137" y="653" type="line"/>
			<point x="141" y="640" type="line"/>
			<point x="157" y="660"/>
			<point x="174" y="676"/>
			<point x="195" y="676" type="curve" smooth="yes"/>
			<point x="230" y="676"/>
			<point x="254" y="647"/>
			<point x="254" y="570" type="curve" smooth="yes"/>
			<point x="254" y="488"/>
			<point x="228" y="456"/>
			<point x="195" y="456" type="curve" smooth="yes"/>
			<point x="171" y="456"/>
			<point x="160" y="465"/>
			<point x="141" y="487" type="curve"/>
			<point x="136" y="478" type="line"/>
			<point x="142" y="478" type="line"/>
			<point x="164" y="429"/>
			<point x="195" y="408"/>
		</contour>
		<contour>
			<point x="52" y="262" type="line"/>
			<point x="151" y="262" type="line"/>
			<point x="151" y="469" type="line"/>
			<point x="152" y="472" type="line"/>
			<point x="152" y="661" type="line"/>
			<point x="152" y="663" type="line"/>
			<point x="152" y="715" type="line"/>
			<point x="142" y="722" type="line"/>
			<point x="13" y="688" type="line"/>
			<point x="13" y="675" type="line"/>
			<point x="52" y="665" type="line"/>
		</contour>
		<contour>
			<point x="16" y="262" type="line"/>
			<point x="194" y="262" type="line"/>
			<point x="194" y="277" type="line"/>
			<point x="130" y="287" type="line"/>
			<point x="73" y="287" type="line"/>
			<point x="16" y="277" type="line"/>
		</contour>
	</outline>
</glyph>
<glyph name="t.sups" format="2">
	<unicode hex="1D57"/>
	<advance width="238"/>
	<outline>
		<contour>
			<point x="142" y="403" type="curve" smooth="yes"/>
			<point x="191" y="403"/>
			<point x="220" y="423"/>
			<point x="237" y="457" type="curve"/>
			<point x="226" y="464" type="line"/>
			<point x="215" y="452"/>
			<point x="205" y="446"/>
			<point x="186" y="446" type="curve" smooth="yes"/>
			<point x="166" y="446"/>
			<point x="149" y="456"/>
			<point x="149" y="486" type="curve" smooth="yes"/>
			<point x="149" y="694" type="line"/>
			<point x="149" y="700" type="line"/>
			<point x="152" y="806" type="line"/>
			<point x="118" y="806" type="line"/>
			<point x="46" y="700" type="line"/>
			<point x="69" y="714" type="line"/>
			<point x="11" y="703" type="line"/>
			<point x="11" y="688" type="line"/>
			<point x="49" y="688" type="line"/>
			<point x="49" y="488" type="line" smooth="yes"/>
			<point x="49" y="430"/>
			<point x="82" y="403"/>
		</contour>
		<contour>
			<point x="102" y="688" type="line"/>
			<point x="219" y="688" type="line"/>
			<point x="219" y="708" type="line"/>
			<point x="102" y="708" type="line"/>
		</contour>
	</outline>
</glyph>
<glyph name="c.sups" format="2">
	<unicode hex="1D9C"/>
	<advance width="317"/>
	<outline>
		<contour>
			<point x="171" y="403" type="curve" smooth="yes"/>
			<point x="227" y="403"/>
			<point x="270" y="425"/>
			<point x="296" y="474" type="curve"/>
			<point x="286" y="483" type="line"/>
			<point x="267" y="466"/>
			<point x="245" y="454"/>
			<point x="218" y="454" type="curve" smooth="yes"/>
			<point x="160" y="454"/>
			<point x="127" y="497"/>
			<point x="127" y="573" type="curve" smooth="yes"/>
			<point x="127" y="667"/>
			<point x="164" y="701"/>
			<point x="197" y="701" type="curve" smooth="yes"/>
			<point x="216" y="701"/>
			<point x="230" y="698"/>
			<point x="248" y="688" type="curve"/>
			<point x="204" y="709" type="line"/>
			<point x="207" y="663" type="line" smooth="yes"/>
			<point x="208" y="619"/>
			<point x="232" y="606"/>
			<point x="255" y="606" type="curve" smooth="yes"/>
			<point x="277" y="606"/>
			<point x="290" y="616"/>
			<point x="297" y="636" type="curve"/>
			<point x="295" y="681"/>
			<point x="256" y="718"/>
			<point x="188" y="718" type="curve" smooth="yes"/>
			<point x="95" y="718"/>
			<point x="21" y="662"/>
			<point x="21" y="557" type="curve" smooth="yes"/>
			<point x="21" y="458"/>
			<point x="88" y="403"/>
		</contour>
	</outline>
</glyph>
<glyph name="f.sups" format="2">
	<unicode hex="1DA0"/>
	<advance width="231"/>
	<outline>
		<contour>
			<point x="52" y="418" type="line"/>
			<point x="152" y="418" type="line"/>
			<point x="152" y="703" type="line"/>
			<point x="146" y="793"/>
			<point x="157" y="834"/>
			<point x="182" y="866" type="curve" smooth="yes"/>
			<point x="187" y="872"/>
			<point x="196" y="875"/>
			<point x="201" y="876" type="curve"/>
			<point x="201" y="882" type="line"/>
			<point x="173" y="882" type="line"/>
			<point x="173" y="877" type="line"/>
			<point x="191" y="852" type="line" smooth="yes"/>
			<point x="209" y="822"/>
			<point x="227" y="810"/>
			<point x="250" y="810" type="curve" smooth="yes"/>
			<point x="273" y="810"/>
			<point x="291" y="821"/>
			<point x="293" y="844" type="curve"/>
			<point x="285" y="876"/>
			<point x="247" y="890"/>
			<point x="211" y="890" type="curve" smooth="yes"/>
			<point x="172" y="890"/>
			<point x="134" y="877"/>
			<point x="106" y="852" type="curve" smooth="yes"/>
			<point x="80" y="828"/>
			<point x="57" y="785"/>
			<point x="52" y="702" type="curve"/>
			<point x="70" y="719" type="line"/>
			<point x="13" y="707" type="line"/>
			<point x="13" y="693" type="line"/>
			<point x="52" y="693" type="line"/>
		</contour>
		<contour>
			<point x="16" y="418" type="line"/>
			<point x="207" y="418" type="line"/>
			<point x="207" y="433" type="line"/>
			<point x="139" y="443" type="line"/>
			<point x="73" y="443" type="line"/>
			<point x="16" y="433" type="line"/>
		</contour>
		<contour>
			<point x="105" y="693" type="line"/>
			<point x="222" y="693" type="line"/>
			<point x="222" y="713" type="line"/>
			<point x="105" y="713" type="line"/>
		</contour>
	</outline>
</glyph>
<glyph name="z.sups" format="2">
	<unicode hex="1DBB"/>
	<advance width="304"/>
	<outline>
		<contour>
			<point x="17" y="414" type="line"/>
			<point x="285" y="414" type="line"/>
			<point x="290" y="516" type="line"/>
			<point x="275" y="516" type="line"/>
			<point x="230" y="424" type="line"/>
			<point x="262" y="432" type="line"/>
			<point x="112" y="432" type="line"/>
			<point x="126" y="426" type="line"/>
			<point x="284" y="698" type="line"/>
			<point x="284" y="708" type="line"/>
			<point x="26" y="708" type="line"/>
			<point x="21" y="610" type="line"/>
			<point x="33" y="608" type="line"/>
			<point x="80" y="698" type="line"/>
			<point x="52" y="690" type="line"/>
			<point x="188" y="690" type="line"/>
			<point x="175" y="695" type="line"/>
			<point x="17" y="424" type="line"/>
		</contour>
	</outline>
</glyph>
<glyph name="quoteleft" format="2">
	<unicode hex="2018"/>
	<unicode hex="02BB"/>
	<advance width="192"/>
	<outline>
		<contour>
			<point x="30" y="554" type="curve" smooth="yes"/>
			<point x="30" y="534"/>
			<point x="34" y="514"/>
			<point x="43" y="496" type="curve"/>
			<point x="59" y="481"/>
			<point x="78" y="473"/>
			<point x="99" y="473" type="curve" smooth="yes"/>
			<point x="137" y="473"/>
			<point x="164" y="501"/>
			<point x="164" y="539" type="curve" smooth="yes"/>
			<point x="164" y="560"/>
			<point x="152" y="584"/>
			<point x="121" y="602" type="curve" smooth="yes"/>
			<point x="69" y="632" type="line"/>
			<point x="74" y="603" type="line"/>
			<point x="94" y="659"/>
			<point x="120" y="677"/>
			<point x="173" y="704" type="curve"/>
			<point x="163" y="726" type="line"/>
			<point x="95" y="702"/>
			<point x="30" y="647"/>
		</contour>
	</outline>
</glyph>
<glyph name="dagger" format="2">
	<unicode hex="2020"/>
	<advance width="519"/>
	<outline>
		<contour>
			<point x="33" y="493" type="curve" smooth="yes"/>
			<point x="33" y="458"/>
			<point x="53" y="429"/>
			<point x="103" y="429" type="curve" smooth="yes"/>
			<point x="134" y="429"/>
			<point x="169" y="443"/>
			<point x="197" y="457" type="curve" smooth="yes"/>
			<point x="260" y="488" type="line"/>
			<point x="260" y="498" type="line"/>
			<point x="197" y="528" type="line" smooth="yes"/>
			<point x="169" y="542"/>
			<point x="134" y="557"/>
			<point x="103" y="557" type="curve" smooth="yes"/>
			<point x="53" y="557"/>
			<point x="33" y="527"/>
		</contour>
		<contour>
			<point x="260" y="725" type="curve" smooth="yes"/>
			<point x="222" y="725"/>
			<point x="197" y="704"/>
			<point x="197" y="660" type="curve" smooth="yes"/>
			<point x="197" y="628"/>
			<point x="213" y="584"/>
			<point x="225" y="556" type="curve" smooth="yes"/>
			<point x="252" y="492" type="line"/>
			<point x="267" y="492" type="line"/>
			<point x="294" y="556" type="line" smooth="yes"/>
			<point x="306" y="586"/>
			<point x="322" y="628"/>
			<point x="322" y="660" type="curve" smooth="yes"/>
			<point x="322" y="704"/>
			<point x="297" y="725"/>
		</contour>
		<contour>
			<point x="486" y="493" type="curve" smooth="yes"/>
			<point x="486" y="527"/>
			<point x="466" y="557"/>
			<point x="416" y="557" type="curve" smooth="yes"/>
			<point x="385" y="557"/>
			<point x="350" y="542"/>
			<point x="322" y="528" type="curve" smooth="yes"/>
			<point x="260" y="498" type="line"/>
			<point x="260" y="488" type="line"/>
			<point x="322" y="457" type="line" smooth="yes"/>
			<point x="350" y="443"/>
			<point x="385" y="429"/>
			<point x="416" y="429" type="curve" smooth="yes"/>
			<point x="466" y="429"/>
			<point x="486" y="458"/>
		</contour>
		<contour>
			<point x="197" y="277" type="curve" smooth="yes"/>
			<point x="197" y="205"/>
			<point x="209" y="147"/>
			<point x="249" y="-54" type="curve"/>
			<point x="270" y="-54" type="line"/>
			<point x="310" y="147"/>
			<point x="322" y="204"/>
			<point x="322" y="277" type="curve" smooth="yes"/>
			<point x="322" y="338"/>
			<point x="313" y="387"/>
			<point x="267" y="492" type="curve"/>
			<point x="252" y="492" type="line"/>
			<point x="204" y="386"/>
			<point x="197" y="338"/>
		</contour>
	</outline>
</glyph>
<glyph name="fraction" format="2">
	<unicode hex="2044"/>
	<unicode hex="2215"/>
	<advance width="144"/>
	<outline>
		<contour>
			<point x="-132" y="-28" type="line"/>
			<point x="315" y="631" type="line"/>
			<point x="276" y="655" type="line"/>
			<point x="-172" y="-4" type="line"/>
		</contour>
	</outline>
</glyph>
<glyph name="zero.sups" format="2">
	<unicode hex="2070"/>
	<advance width="357"/>
	<outline>
		<contour>
			<point x="179" y="408" type="curve" smooth="yes"/>
			<point x="267" y="408"/>
			<point x="339" y="474"/>
			<point x="339" y="620" type="curve" smooth="yes"/>
			<point x="339" y="767"/>
			<point x="267" y="831"/>
			<point x="179" y="831" type="curve" smooth="yes"/>
			<point x="90" y="831"/>
			<point x="18" y="767"/>
			<point x="18" y="620" type="curve" smooth="yes"/>
			<point x="18" y="474"/>
			<point x="90" y="408"/>
		</contour>
		<contour>
			<point x="179" y="426" type="curve" smooth="yes"/>
			<point x="147" y="426"/>
			<point x="126" y="463"/>
			<point x="126" y="620" type="curve" smooth="yes"/>
			<point x="126" y="777"/>
			<point x="147" y="814"/>
			<point x="179" y="814" type="curve" smooth="yes"/>
			<point x="210" y="814"/>
			<point x="232" y="777"/>
			<point x="232" y="620" type="curve" smooth="yes"/>
			<point x="232" y="463"/>
			<point x="210" y="426"/>
		</contour>
	</outline>
</glyph>
<glyph name="four.sups" format="2">
	<unicode hex="2074"/>
	<advance width="357"/>
	<outline>
		<contour>
			<point x="184" y="414" type="line"/>
			<point x="286" y="414" type="line"/>
			<point x="286" y="817" type="line"/>
			<point x="206" y="817" type="line"/>
			<point x="17" y="556" type="line"/>
			<point x="17" y="491" type="line"/>
			<point x="341" y="491" type="line"/>
			<point x="341" y="569" type="line"/>
			<point x="47" y="569" type="line"/>
			<point x="47" y="578" type="line"/>
			<point x="36" y="548" type="line"/>
			<point x="198" y="774" type="line"/>
			<point x="178" y="761" type="line"/>
			<point x="184" y="761" type="line"/>
			<point x="184" y="545" type="line"/>
			<point x="184" y="518" type="line"/>
		</contour>
	</outline>
</glyph>
<glyph name="five.sups" format="2">
	<unicode hex="2075"/>
	<advance width="357"/>
	<outline>
		<contour>
			<point x="153" y="403" type="curve" smooth="yes"/>
			<point x="259" y="403"/>
			<point x="329" y="446"/>
			<point x="329" y="537" type="curve" smooth="yes"/>
			<point x="329" y="618"/>
			<point x="263" y="656"/>
			<point x="179" y="656" type="curve" smooth="yes"/>
			<point x="139" y="656"/>
			<point x="97" y="646"/>
			<point x="64" y="623" type="curve"/>
			<point x="64" y="619" type="line"/>
			<point x="78" y="624" type="line"/>
			<point x="91" y="795" type="line"/>
			<point x="76" y="738" type="line"/>
			<point x="316" y="738" type="line"/>
			<point x="316" y="816" type="line"/>
			<point x="72" y="816" type="line"/>
			<point x="58" y="621" type="line"/>
			<point x="69" y="612" type="line"/>
			<point x="92" y="621"/>
			<point x="117" y="625"/>
			<point x="139" y="625" type="curve" smooth="yes"/>
			<point x="195" y="625"/>
			<point x="221" y="584"/>
			<point x="221" y="529" type="curve" smooth="yes"/>
			<point x="221" y="471"/>
			<point x="193" y="421"/>
			<point x="137" y="421" type="curve" smooth="yes"/>
			<point x="125" y="421"/>
			<point x="110" y="422"/>
			<point x="94" y="430" type="curve"/>
			<point x="115" y="414" type="line"/>
			<point x="104" y="477" type="line" smooth="yes"/>
			<point x="97" y="515"/>
			<point x="81" y="526"/>
			<point x="58" y="526" type="curve" smooth="yes"/>
			<point x="43" y="526"/>
			<point x="27" y="519"/>
			<point x="21" y="500" type="curve"/>
			<point x="29" y="436"/>
			<point x="75" y="403"/>
		</contour>
	</outline>
</glyph>
<glyph name="nine.sups" format="2">
	<unicode hex="2079"/>
	<advance width="357"/>
	<outline>
		<contour>
			<point x="55" y="408" type="line"/>
			<point x="225" y="424"/>
			<point x="338" y="529"/>
			<point x="338" y="658" type="curve" smooth="yes"/>
			<point x="338" y="769"/>
			<point x="273" y="831"/>
			<point x="177" y="831" type="curve" smooth="yes"/>
			<point x="100" y="831"/>
			<point x="17" y="790"/>
			<point x="17" y="693" type="curve" smooth="yes"/>
			<point x="17" y="611"/>
			<point x="77" y="573"/>
			<point x="139" y="573" type="curve" smooth="yes"/>
			<point x="184" y="573"/>
			<point x="221" y="587"/>
			<point x="253" y="641" type="curve"/>
			<point x="258" y="641" type="line"/>
			<point x="253" y="647" type="line"/>
			<point x="227" y="620"/>
			<point x="201" y="608"/>
			<point x="180" y="608" type="curve" smooth="yes"/>
			<point x="147" y="608"/>
			<point x="123" y="637"/>
			<point x="123" y="700" type="curve" smooth="yes"/>
			<point x="123" y="779"/>
			<point x="147" y="814"/>
			<point x="179" y="814" type="curve" smooth="yes"/>
			<point x="213" y="814"/>
			<point x="231" y="765"/>
			<point x="231" y="673" type="curve" smooth="yes"/>
			<point x="231" y="521"/>
			<point x="175" y="455"/>
			<point x="52" y="422" type="curve"/>
		</contour>
	</outline>
</glyph>
<glyph name="parenright.sups" format="2">
	<unicode hex="207E"/>
	<advance width="243"/>
	<outline>
		<contour>
			<point x="113" y="606" type="curve" smooth="yes"/>
			<point x="113" y="506"/>
			<point x="84" y="411"/>
			<point x="23" y="334" type="curve"/>
			<point x="33" y="324" type="line"/>
			<point x="127" y="395"/>
			<point x="194" y="490"/>
			<point x="194" y="606" type="curve" smooth="yes"/>
			<point x="194" y="721"/>
			<point x="127" y="817"/>
			<point x="33" y="887" type="curve"/>
			<point x="23" y="877" type="line"/>
			<point x="84" y="800"/>
			<point x="113" y="705"/>
		</contour>
	</outline>
</glyph>
<glyph name="colonmonetary" format="2">
	<unicode hex="20A1"/>
	<advance width="508"/>
	<outline>
		<contour>
			<point x="286" y="-15" type="curve" smooth="yes"/>
			<point x="403" y="-15"/>
			<point x="473" y="38"/>
			<point x="477" y="123" type="curve"/>
			<point x="470" y="147"/>
			<point x="452" y="162"/>
			<point x="425" y="162" type="curve" smooth="yes"/>
			<point x="398" y="162"/>
			<point x="372" y="148"/>
			<point x="362" y="84" type="curve" smooth="yes"/>
			<point x="347" y="0" type="line"/>
			<point x="422" y="39" type="line"/>
			<point x="383" y="18"/>
			<point x="357" y="11"/>
			<point x="313" y="11" type="curve" smooth="yes"/>
			<point x="224" y="11"/>
			<point x="164" y="124"/>
			<point x="164" y="307" type="curve" smooth="yes"/>
			<point x="164" y="496"/>
			<point x="230" y="620"/>
			<point x="345" y="620" type="curve" smooth="yes"/>
			<point x="379" y="620"/>
			<point x="403" y="614"/>
			<point x="446" y="596" type="curve"/>
			<point x="381" y="632" type="line"/>
			<point x="395" y="548" type="line" smooth="yes"/>
			<point x="405" y="484"/>
			<point x="429" y="470"/>
			<point x="456" y="470" type="curve" smooth="yes"/>
			<point x="483" y="470"/>
			<point x="501" y="485"/>
			<point x="508" y="509" type="curve"/>
			<point x="505" y="588"/>
			<point x="434" y="646"/>
			<point x="320" y="646" type="curve" smooth="yes"/>
			<point x="157" y="646"/>
			<point x="30" y="511"/>
			<point x="30" y="298" type="curve" smooth="yes"/>
			<point x="30" y="110"/>
			<point x="136" y="-15"/>
		</contour>
		<contour>
			<point x="179" y="-116" type="line"/>
			<point x="207" y="-116" type="line"/>
			<point x="305" y="736" type="line"/>
			<point x="276" y="736" type="line"/>
		</contour>
		<contour>
			<point x="259" y="-116" type="line"/>
			<point x="287" y="-116" type="line"/>
			<point x="384" y="736" type="line"/>
			<point x="356" y="736" type="line"/>
		</contour>
	</outline>
</glyph>
<glyph name="arrowdownleft" format="2">
	<unicode hex="2199"/>
	<advance width="660"/>
	<outline>
		<contour>
			<point x="521" y="545" type="line"/>
			<point x="405" y="430" type="line"/>
			<point x="152" y="145" type="line"/>
			<point x="176" y="138" type="line"/>
			<point x="132" y="510" type="line"/>
			<point x="110" y="510" type="line"/>
			<point x="93" y="76" type="line"/>
			<point x="120" y="48" type="line"/>
			<point x="555" y="66" type="line"/>
			<point x="555" y="87" type="line"/>
			<point x="182" y="131" type="line"/>
			<point x="190" y="108" type="line"/>
			<point x="474" y="361" type="line"/>
			<point x="589" y="476" type="line"/>
		</contour>
	</outline>
</glyph>
<glyph name="summation" format="2">
	<unicode hex="2211"/>
	<advance width="530"/>
	<outline>
		<contour>
			<point x="30" y="-122" type="line"/>
			<point x="488" y="-122" type="line"/>
			<point x="503" y="115" type="line"/>
			<point x="481" y="115" type="line"/>
			<point x="404" y="-53" type="line"/>
			<point x="449" y="-10" type="line"/>
			<point x="124" y="-10" type="line"/>
			<point x="124" y="4" type="line"/>
			<point x="115" y="-34" type="line"/>
			<point x="226" y="141" type="line"/>
			<point x="336" y="315" type="line"/>
			<point x="186" y="641" type="line"/>
			<point x="189" y="621" type="line"/>
			<point x="189" y="630" type="line"/>
			<point x="306" y="630" type="line"/>
			<point x="423" y="630" type="line"/>
			<point x="388" y="645" type="line"/>
			<point x="464" y="480" type="line"/>
			<point x="485" y="480" type="line"/>
			<point x="473" y="657" type="line"/>
			<point x="32" y="657" type="line"/>
			<point x="32" y="634" type="line"/>
			<point x="233" y="217" type="line"/>
			<point x="252" y="256" type="line"/>
			<point x="30" y="-94" type="line"/>
		</contour>
	</outline>
</glyph>
<glyph name="minus" format="2">
	<unicode hex="2212"/>
	<advance width="508"/>
	<outline>
		<contour>
			<point x="474" y="302" type="line"/>
			<point x="474" y="345" type="line"/>
			<point x="34" y="345" type="line"/>
			<point x="34" y="302" type="line"/>
		</contour>
	</outline>
</glyph>
<glyph name="infinity" format="2">
	<unicode hex="221E"/>
	<advance width="739"/>
	<outline>
		<contour>
			<point x="319" y="267" type="curve" smooth="yes"/>
			<point x="371" y="183"/>
			<point x="429" y="117"/>
			<point x="528" y="117" type="curve" smooth="yes"/>
			<point x="637" y="117"/>
			<point x="708" y="207"/>
			<point x="708" y="325" type="curve" smooth="yes"/>
			<point x="708" y="442"/>
			<point x="657" y="513"/>
			<point x="565" y="513" type="curve" smooth="yes"/>
			<point x="482" y="513"/>
			<point x="435" y="450"/>
			<point x="405" y="353" type="curve"/>
			<point x="396" y="353" type="line"/>
			<point x="408" y="336" type="line"/>
			<point x="458" y="394"/>
			<point x="498" y="418"/>
			<point x="565" y="418" type="curve" smooth="yes"/>
			<point x="632" y="418"/>
			<point x="677" y="385"/>
			<point x="677" y="324" type="curve" smooth="yes"/>
			<point x="677" y="268"/>
			<point x="638" y="231"/>
			<point x="576" y="231" type="curve" smooth="yes"/>
			<point x="515" y="231"/>
			<point x="473" y="283"/>
			<point x="420" y="365" type="curve" smooth="yes"/>
			<point x="367" y="447"/>
			<point x="310" y="515"/>
			<point x="211" y="515" type="curve" smooth="yes"/>
			<point x="103" y="515"/>
			<point x="32" y="425"/>
			<point x="32" y="307" type="curve" smooth="yes"/>
			<point x="32" y="190"/>
			<point x="82" y="118"/>
			<point x="175" y="118" type="curve" smooth="yes"/>
			<point x="257" y="118"/>
			<point x="305" y="181"/>
			<point x="335" y="279" type="curve"/>
			<point x="342" y="279" type="line"/>
			<point x="331" y="296" type="line"/>
			<point x="281" y="238"/>
			<point x="241" y="214"/>
			<point x="174" y="214" type="curve" smooth="yes"/>
			<point x="107" y="214"/>
			<point x="62" y="247"/>
			<point x="62" y="308" type="curve" smooth="yes"/>
			<point x="62" y="364"/>
			<point x="101" y="401"/>
			<point x="164" y="401" type="curve" smooth="yes"/>
			<point x="225" y="401"/>
			<point x="270" y="349"/>
		</contour>
	</outline>
</glyph>
<glyph name="greaterequal" format="2">
	<unicode hex="2265"/>
	<advance width="508"/>
	<outline>
		<contour>
			<point x="33" y="0" type="line"/>
			<point x="473" y="0" type="line"/>
			<point x="473" y="44" type="line"/>
			<point x="33" y="44" type="line"/>
		</contour>
		<contour>
			<point x="470" y="332" type="line"/>
			<point x="470" y="357" type="line"/>
			<point x="69" y="559" type="line"/>
			<point x="51" y="521" type="line"/>
			<point x="430" y="332" type="line"/>
			<point x="430" y="357" type="line"/>
			<point x="51" y="164" type="line"/>
			<point x="69" y="126" type="line"/>
		</contour>
	</outline>
</glyph>
<glyph name="fisheye" format="2">
	<unicode hex="25C9"/>
	<advance width="484"/>
	<outline>
		<contour>
			<point x="242" y="203" type="curve" smooth="yes"/>
			<point x="314" y="203"/>
			<point x="364" y="253"/>
			<point x="364" y="323" type="curve" smooth="yes"/>
			<point x="364" y="393"/>
			<point x="311" y="443"/>
			<point x="242" y="443" type="curve" smooth="yes"/>
			<point x="173" y="443"/>
			<point x="120" y="393"/>
			<point x="120" y="323" type="curve" smooth="yes"/>
			<point x="120" y="253"/>
			<point x="173" y="203"/>
		</contour>
		<contour>
			<point x="242" y="139" type="curve" smooth="yes"/>
			<point x="136" y="139"/>
			<point x="59" y="217"/>
			<point x="59" y="323" type="curve" smooth="yes"/>
			<point x="59" y="429"/>
			<point x="136" y="506"/>
			<point x="242" y="506" type="curve" smooth="yes"/>
			<point x="346" y="506"/>
			<point x="425" y="429"/>
			<point x="425" y="323" type="curve" smooth="yes"/>
			<point x="425" y="217"/>
			<point x="347" y="139"/>
		</contour>
		<contour>
			<point x="242" y="110" type="curve" smooth="yes"/>
			<point x="366" y="110"/>
			<point x="457" y="202"/>
			<point x="457" y="323" type="curve" smooth="yes"/>
			<point x="457" y="444"/>
			<point x="366" y="536"/>
			<point x="242" y="536" type="curve" smooth="yes"/>
			<point x="118" y="536"/>
			<point x="27" y="444"/>
			<point x="27" y="323" type="curve" smooth="yes"/>
			<point x="27" y="202"/>
			<point x="118" y="110"/>
		</contour>
	</outline>
</glyph>
<glyph name="threeemdash" format="2">
	<unicode hex="2E3B"/>
	<advance width="2201"/>
	<outline>
		<contour>
			<point x="36" y="211" type="line"/>
			<point x="2165" y="211" type="line"/>
			<point x="2165" y="257" type="line"/>
			<point x="36" y="257" type="line"/>
		</contour>
	</outline>
</glyph>
<glyph name="B.sups" format="2">
	<advance width="395"/>
	<outline>
		<contour>
			<point x="65" y="414" type="line"/>
			<point x="170" y="414" type="line"/>
			<point x="170" y="833" type="line"/>
			<point x="65" y="833" type="line"/>
		</contour>
		<contour>
			<point x="19" y="819" type="line"/>
			<point x="90" y="809" type="line"/>
			<point x="103" y="809" type="line"/>
			<point x="103" y="833" type="line"/>
			<point x="19" y="833" type="line"/>
		</contour>
		<contour>
			<point x="19" y="414" type="line"/>
			<point x="103" y="414" type="line"/>
			<point x="103" y="439" type="line"/>
			<point x="90" y="439" type="line"/>
			<point x="19" y="428" type="line"/>
		</contour>
		<contour>
			<point x="113" y="414" type="line"/>
			<point x="185" y="414" type="line" smooth="yes"/>
			<point x="288" y="414"/>
			<point x="384" y="444"/>
			<point x="384" y="530" type="curve" smooth="yes"/>
			<point x="384" y="597"/>
			<point x="319" y="633"/>
			<point x="203" y="636" type="curve"/>
			<point x="208" y="632" type="line"/>
			<point x="318" y="640"/>
			<point x="362" y="678"/>
			<point x="362" y="735" type="curve" smooth="yes"/>
			<point x="362" y="790"/>
			<point x="324" y="833"/>
			<point x="191" y="833" type="curve" smooth="yes"/>
			<point x="113" y="833" type="line"/>
			<point x="113" y="816" type="line"/>
			<point x="184" y="816" type="line" smooth="yes"/>
			<point x="234" y="816"/>
			<point x="263" y="787"/>
			<point x="263" y="733" type="curve" smooth="yes"/>
			<point x="263" y="673"/>
			<point x="232" y="641"/>
			<point x="180" y="641" type="curve" smooth="yes"/>
			<point x="113" y="641" type="line"/>
			<point x="113" y="622" type="line"/>
			<point x="183" y="622" type="line" smooth="yes"/>
			<point x="248" y="622"/>
			<point x="277" y="590"/>
			<point x="277" y="526" type="curve" smooth="yes"/>
			<point x="277" y="468"/>
			<point x="243" y="431"/>
			<point x="184" y="431" type="curve" smooth="yes"/>
			<point x="113" y="431" type="line"/>
		</contour>
	</outline>
</glyph>
<glyph name="Che.sc" format="2">
	<advance width="599"/>
	<outline>
		<contour>
			<point x="114" y="487" type="line"/>
			<point x="180" y="487" type="line"/>
			<point x="266" y="501" type="line"/>
			<point x="266" y="522" type="line"/>
			<point x="28" y="522" type="line"/>
			<point x="28" y="501" type="line"/>
		</contour>
		<contour>
			<point x="246" y="204" type="curve" smooth="yes"/>
			<point x="314" y="204"/>
			<point x="392" y="222"/>
			<point x="448" y="246" type="curve"/>
			<point x="448" y="262" type="line"/>
			<point x="391" y="251"/>
			<point x="347" y="248"/>
			<point x="307" y="248" type="curve" smooth="yes"/>
			<point x="242" y="248"/>
			<point x="214" y="266"/>
			<point x="214" y="332" type="curve" smooth="yes"/>
			<point x="214" y="372"/>
			<point x="215" y="462"/>
			<point x="217" y="522" type="curve"/>
			<point x="84" y="522" type="line"/>
			<point x="84" y="337" type="line" smooth="yes"/>
			<point x="84" y="237"/>
			<point x="147" y="204"/>
		</contour>
		<contour>
			<point x="303" y="0" type="line"/>
			<point x="562" y="0" type="line"/>
			<point x="562" y="21" type="line"/>
			<point x="469" y="35" type="line"/>
			<point x="402" y="35" type="line"/>
			<point x="303" y="21" type="line"/>
		</contour>
		<contour>
			<point x="365" y="0" type="curve"/>
			<point x="504" y="0" type="line"/>
			<point x="501" y="65"/>
			<point x="501" y="162"/>
			<point x="501" y="247" type="curve" smooth="yes"/>
			<point x="501" y="282" type="line" smooth="yes"/>
			<point x="501" y="366"/>
			<point x="502" y="458"/>
			<point x="505" y="522" type="curve"/>
			<point x="365" y="522" type="line"/>
			<point x="369" y="458"/>
			<point x="371" y="366"/>
			<point x="371" y="282" type="curve" smooth="yes"/>
			<point x="371" y="247" type="line" smooth="yes"/>
			<point x="371" y="162"/>
			<point x="369" y="65"/>
		</contour>
		<contour>
			<point x="402" y="487" type="line"/>
			<point x="469" y="487" type="line"/>
			<point x="562" y="501" type="line"/>
			<point x="562" y="522" type="line"/>
			<point x="317" y="522" type="line"/>
			<point x="317" y="501" type="line"/>
		</contour>
	</outline>
	<anchor name="aboveUC" x="294" y="542"/>
</glyph>
<glyph name="Chedescender.sc" format="2">
	<advance width="596"/>
	<outline>
		<contour>
			<point x="469" y="0" type="line"/>
			<point x="524" y="0" type="line"/>
			<point x="491" y="18" type="line"/>
			<point x="532" y="-158" type="line"/>
			<point x="553" y="-158" type="line"/>
			<point x="565" y="22" type="line"/>
			<point x="469" y="36" type="line"/>
		</contour>
		<component base="Che.sc"/>
	</outline>
</glyph>
<glyph name="De.sc" format="2">
	<advance width="595"/>
	<outline>
		<contour>
			<point x="33" y="-160" type="line"/>
			<point x="55" y="-160" type="line"/>
			<point x="96" y="18" type="line"/>
			<point x="65" y="0" type="line"/>
			<point x="530" y="0" type="line"/>
			<point x="499" y="18" type="line"/>
			<point x="540" y="-160" type="line"/>
			<point x="562" y="-160" type="line"/>
			<point x="573" y="24" type="line"/>
			<point x="22" y="24" type="line"/>
		</contour>
		<contour>
			<point x="134" y="501" type="line"/>
			<point x="229" y="487" type="line"/>
			<point x="232" y="487" type="line"/>
			<point x="233" y="522" type="line"/>
			<point x="134" y="522" type="line"/>
		</contour>
		<contour>
			<point x="217" y="498" type="line"/>
			<point x="381" y="498" type="line"/>
			<point x="381" y="522" type="line"/>
			<point x="217" y="522" type="line"/>
		</contour>
		<contour>
			<point x="351" y="0" type="curve"/>
			<point x="491" y="0" type="line"/>
			<point x="488" y="65"/>
			<point x="487" y="162"/>
			<point x="487" y="247" type="curve" smooth="yes"/>
			<point x="487" y="282" type="line" smooth="yes"/>
			<point x="487" y="366"/>
			<point x="488" y="458"/>
			<point x="491" y="522" type="curve"/>
			<point x="351" y="522" type="line"/>
			<point x="355" y="458"/>
			<point x="357" y="366"/>
			<point x="357" y="282" type="curve" smooth="yes"/>
			<point x="357" y="247" type="line" smooth="yes"/>
			<point x="357" y="162"/>
			<point x="355" y="65"/>
		</contour>
		<contour>
			<point x="389" y="487" type="line"/>
			<point x="455" y="487" type="line"/>
			<point x="549" y="501" type="line"/>
			<point x="549" y="522" type="line"/>
			<point x="385" y="522" type="line"/>
		</contour>
		<contour>
			<point x="90" y="23" type="curve"/>
			<point x="117" y="5" type="line"/>
			<point x="117" y="14" type="line"/>
			<point x="155" y="69"/>
			<point x="180" y="134"/>
			<point x="197" y="208" type="curve" smooth="yes"/>
			<point x="217" y="298"/>
			<point x="227" y="404"/>
			<point x="236" y="522" type="curve"/>
			<point x="208" y="522" type="line"/>
			<point x="190" y="316"/>
			<point x="175" y="136"/>
		</contour>
	</outline>
</glyph>
<glyph name="Delta.sc" format="2">
	<advance width="534"/>
	<outline>
		<contour>
			<point x="32" y="0" type="line"/>
			<point x="50" y="0" type="line"/>
			<point x="207" y="397" type="line"/>
			<point x="209" y="401" type="line"/>
			<point x="202" y="401" type="line"/>
			<point x="367" y="0" type="line"/>
			<point x="502" y="0" type="line"/>
			<point x="502" y="29" type="line"/>
			<point x="301" y="523" type="line"/>
			<point x="227" y="523" type="line"/>
			<point x="32" y="29" type="line"/>
		</contour>
		<contour>
			<point x="45" y="0" type="line"/>
			<point x="394" y="0" type="line"/>
			<point x="394" y="102" type="line"/>
			<point x="72" y="102" type="line"/>
		</contour>
	</outline>
</glyph>
<glyph name="Ecyr.sc" format="2">
	<advance width="534"/>
	<outline>
		<contour>
			<point x="62" y="15" type="line"/>
			<point x="103" y="-1"/>
			<point x="157" y="-13"/>
			<point x="210" y="-13" type="curve" smooth="yes"/>
			<point x="355" y="-13"/>
			<point x="490" y="49"/>
			<point x="490" y="260" type="curve" smooth="yes"/>
			<point x="490" y="475"/>
			<point x="346" y="535"/>
			<point x="209" y="535" type="curve" smooth="yes"/>
			<point x="158" y="535"/>
			<point x="106" y="523"/>
			<point x="64" y="506" type="curve"/>
			<point x="54" y="370" type="line"/>
			<point x="74" y="370" type="line"/>
			<point x="148" y="517" type="line"/>
			<point x="92" y="495" type="line"/>
			<point x="89" y="479" type="line"/>
			<point x="126" y="501"/>
			<point x="168" y="511"/>
			<point x="200" y="511" type="curve" smooth="yes"/>
			<point x="281" y="511"/>
			<point x="352" y="453"/>
			<point x="352" y="259" type="curve" smooth="yes"/>
			<point x="352" y="67"/>
			<point x="284" y="11"/>
			<point x="201" y="11" type="curve" smooth="yes"/>
			<point x="167" y="11"/>
			<point x="124" y="22"/>
			<point x="89" y="43" type="curve"/>
			<point x="91" y="27" type="line"/>
			<point x="144" y="5" type="line"/>
			<point x="72" y="164" type="line"/>
			<point x="52" y="164" type="line"/>
		</contour>
		<contour>
			<point x="174" y="178" type="line"/>
			<point x="192" y="178" type="line"/>
			<point x="224" y="264" type="line"/>
			<point x="224" y="277" type="line"/>
			<point x="192" y="354" type="line"/>
			<point x="174" y="354" type="line"/>
		</contour>
		<contour>
			<point x="210" y="258" type="line"/>
			<point x="383" y="258" type="line"/>
			<point x="383" y="283" type="line"/>
			<point x="210" y="283" type="line"/>
		</contour>
	</outline>
	<anchor name="aboveUC" x="232" y="542"/>
</glyph>
<glyph name="Endescender.sc" format="2">
	<advance width="645"/>
	<outline>
		<contour>
			<point x="518" y="0" type="line"/>
			<point x="574" y="0" type="line"/>
			<point x="540" y="18" type="line"/>
			<point x="581" y="-158" type="line"/>
			<point x="603" y="-158" type="line"/>
			<point x="614" y="22" type="line"/>
			<point x="518" y="36" type="line"/>
		</contour>
		<component base="En.sc"/>
	</outline>
</glyph>
<glyph name="F.sups" format="2">
	<advance width="352"/>
	<outline>
		<contour>
			<point x="319" y="720" type="line"/>
			<point x="335" y="720" type="line"/>
			<point x="327" y="833" type="line"/>
			<point x="106" y="833" type="line"/>
			<point x="106" y="816" type="line"/>
			<point x="289" y="816" type="line"/>
			<point x="264" y="825" type="line"/>
		</contour>
		<contour>
			<point x="19" y="414" type="line"/>
			<point x="226" y="414" type="line"/>
			<point x="226" y="428" type="line"/>
			<point x="145" y="439" type="line"/>
			<point x="90" y="439" type="line"/>
			<point x="19" y="428" type="line"/>
		</contour>
		<contour>
			<point x="257" y="556" type="line"/>
			<point x="271" y="556" type="line"/>
			<point x="271" y="699" type="line"/>
			<point x="257" y="699" type="line"/>
			<point x="231" y="633" type="line"/>
			<point x="231" y="622" type="line"/>
		</contour>
		<contour>
			<point x="19" y="819" type="line"/>
			<point x="90" y="809" type="line"/>
			<point x="145" y="809" type="line"/>
			<point x="145" y="833" type="line"/>
			<point x="19" y="833" type="line"/>
		</contour>
		<contour>
			<point x="65" y="414" type="line"/>
			<point x="170" y="414" type="line"/>
			<point x="170" y="833" type="line"/>
			<point x="65" y="833" type="line"/>
		</contour>
		<contour>
			<point x="120" y="618" type="line"/>
			<point x="242" y="618" type="line"/>
			<point x="242" y="638" type="line"/>
			<point x="120" y="638" type="line"/>
		</contour>
	</outline>
</glyph>
<glyph name="Fita.sc" format="2">
	<advance width="607"/>
	<outline>
		<contour>
			<point x="482" y="255" type="line"/>
			<point x="482" y="280" type="line"/>
			<point x="149" y="280" type="line"/>
			<point x="149" y="255" type="line"/>
		</contour>
		<contour>
			<point x="184" y="262" type="curve" smooth="yes"/>
			<point x="184" y="426"/>
			<point x="219" y="511"/>
			<point x="303" y="511" type="curve" smooth="yes"/>
			<point x="387" y="511"/>
			<point x="421" y="427"/>
			<point x="421" y="263" type="curve" smooth="yes"/>
			<point x="421" y="99"/>
			<point x="387" y="11"/>
			<point x="303" y="11" type="curve" smooth="yes"/>
			<point x="219" y="11"/>
			<point x="184" y="98"/>
		</contour>
		<contour>
			<point x="303" y="535" type="curve" smooth="yes"/>
			<point x="167" y="535"/>
			<point x="44" y="460"/>
			<point x="44" y="261" type="curve" smooth="yes"/>
			<point x="44" y="65"/>
			<point x="166" y="-13"/>
			<point x="303" y="-13" type="curve" smooth="yes"/>
			<point x="439" y="-13"/>
			<point x="561" y="63"/>
			<point x="561" y="262" type="curve" smooth="yes"/>
			<point x="561" y="458"/>
			<point x="439" y="535"/>
		</contour>
	</outline>
	<anchor name="aboveUC" x="304" y="542"/>
</glyph>
<glyph name="Gamma.sc" format="2">
	<advance width="479"/>
	<outline>
		<contour>
			<point x="94" y="0" type="curve"/>
			<point x="233" y="0" type="line"/>
			<point x="229" y="65"/>
			<point x="228" y="162"/>
			<point x="228" y="247" type="curve" smooth="yes"/>
			<point x="228" y="282" type="line" smooth="yes"/>
			<point x="228" y="366"/>
			<point x="229" y="458"/>
			<point x="233" y="522" type="curve"/>
			<point x="94" y="522" type="line"/>
			<point x="98" y="458"/>
			<point x="98" y="366"/>
			<point x="98" y="282" type="curve" smooth="yes"/>
			<point x="98" y="247" type="line" smooth="yes"/>
			<point x="98" y="162"/>
			<point x="97" y="65"/>
		</contour>
		<contour>
			<point x="149" y="498" type="line"/>
			<point x="389" y="498" type="line"/>
			<point x="356" y="512" type="line"/>
			<point x="426" y="359" type="line"/>
			<point x="446" y="359" type="line"/>
			<point x="435" y="522" type="line"/>
			<point x="149" y="522" type="line"/>
		</contour>
		<contour>
			<point x="36" y="0" type="line"/>
			<point x="301" y="0" type="line"/>
			<point x="301" y="21" type="line"/>
			<point x="196" y="35" type="line"/>
			<point x="130" y="35" type="line"/>
			<point x="36" y="21" type="line"/>
		</contour>
		<contour>
			<point x="36" y="501" type="line"/>
			<point x="130" y="487" type="line"/>
			<point x="196" y="487" type="line"/>
			<point x="196" y="522" type="line"/>
			<point x="36" y="522" type="line"/>
		</contour>
	</outline>
</glyph>
<glyph name="H.sups" format="2">
	<advance width="478"/>
	<outline>
		<contour>
			<point x="19" y="823" type="line"/>
			<point x="90" y="814" type="line"/>
			<point x="145" y="814" type="line"/>
			<point x="217" y="823" type="line"/>
			<point x="217" y="838" type="line"/>
			<point x="19" y="838" type="line"/>
		</contour>
		<contour>
			<point x="19" y="418" type="line"/>
			<point x="217" y="418" type="line"/>
			<point x="217" y="433" type="line"/>
			<point x="145" y="443" type="line"/>
			<point x="90" y="443" type="line"/>
			<point x="19" y="433" type="line"/>
		</contour>
		<contour>
			<point x="65" y="418" type="line"/>
			<point x="170" y="418" type="line"/>
			<point x="170" y="838" type="line"/>
			<point x="65" y="838" type="line"/>
		</contour>
		<contour>
			<point x="119" y="624" type="line"/>
			<point x="359" y="624" type="line"/>
			<point x="359" y="642" type="line"/>
			<point x="119" y="642" type="line"/>
		</contour>
		<contour>
			<point x="261" y="418" type="line"/>
			<point x="459" y="418" type="line"/>
			<point x="459" y="433" type="line"/>
			<point x="387" y="443" type="line"/>
			<point x="333" y="443" type="line"/>
			<point x="261" y="433" type="line"/>
		</contour>
		<contour>
			<point x="307" y="418" type="line"/>
			<point x="413" y="418" type="line"/>
			<point x="413" y="838" type="line"/>
			<point x="307" y="838" type="line"/>
		</contour>
		<contour>
			<point x="261" y="823" type="line"/>
			<point x="333" y="814" type="line"/>
			<point x="387" y="814" type="line"/>
			<point x="459" y="823" type="line"/>
			<point x="459" y="838" type="line"/>
			<point x="261" y="838" type="line"/>
		</contour>
	</outline>
</glyph>
<glyph name="Hard.sc" format="2">
	<advance width="624"/>
	<outline>
		<contour>
			<point x="257" y="0" type="line"/>
			<point x="357" y="0" type="line" smooth="yes"/>
			<point x="538" y="0"/>
			<point x="596" y="74"/>
			<point x="596" y="161" type="curve" smooth="yes"/>
			<point x="596" y="263"/>
			<point x="529" y="315"/>
			<point x="385" y="315" type="curve" smooth="yes"/>
			<point x="333" y="315"/>
			<point x="290" y="303"/>
			<point x="257" y="297" type="curve"/>
			<point x="257" y="273" type="line"/>
			<point x="290" y="279"/>
			<point x="321" y="287"/>
			<point x="358" y="287" type="curve" smooth="yes"/>
			<point x="425" y="287"/>
			<point x="465" y="250"/>
			<point x="465" y="161" type="curve" smooth="yes"/>
			<point x="465" y="84"/>
			<point x="429" y="24"/>
			<point x="357" y="24" type="curve" smooth="yes"/>
			<point x="257" y="24" type="line"/>
		</contour>
		<contour>
			<point x="193" y="0" type="curve"/>
			<point x="332" y="0" type="line"/>
			<point x="329" y="65"/>
			<point x="328" y="162"/>
			<point x="328" y="247" type="curve" smooth="yes"/>
			<point x="328" y="282" type="line" smooth="yes"/>
			<point x="328" y="366"/>
			<point x="329" y="458"/>
			<point x="333" y="522" type="curve"/>
			<point x="193" y="522" type="line"/>
			<point x="196" y="458"/>
			<point x="198" y="366"/>
			<point x="198" y="282" type="curve" smooth="yes"/>
			<point x="198" y="247" type="line" smooth="yes"/>
			<point x="198" y="162"/>
			<point x="196" y="65"/>
		</contour>
		<contour>
			<point x="28" y="358" type="line"/>
			<point x="47" y="358" type="line"/>
			<point x="118" y="512" type="line"/>
			<point x="85" y="498" type="line"/>
			<point x="198" y="498" type="line"/>
			<point x="198" y="522" type="line"/>
			<point x="39" y="522" type="line"/>
		</contour>
		<contour>
			<point x="137" y="0" type="line"/>
			<point x="299" y="0" type="line"/>
			<point x="296" y="35" type="line"/>
			<point x="230" y="35" type="line"/>
			<point x="137" y="21" type="line"/>
		</contour>
		<contour>
			<point x="230" y="487" type="line"/>
			<point x="296" y="487" type="line"/>
			<point x="390" y="501" type="line"/>
			<point x="390" y="522" type="line"/>
			<point x="230" y="522" type="line"/>
		</contour>
	</outline>
	<anchor name="aboveUC" x="269" y="542"/>
</glyph>
<glyph name="I.sups" format="2">
	<advance width="236"/>
	<outline>
		<contour>
			<point x="19" y="414" type="line"/>
			<point x="217" y="414" type="line"/>
			<point x="217" y="428" type="line"/>
			<point x="145" y="439" type="line"/>
			<point x="90" y="439" type="line"/>
			<point x="19" y="428" type="line"/>
		</contour>
		<contour>
			<point x="19" y="819" type="line"/>
			<point x="90" y="809" type="line"/>
			<point x="145" y="809" type="line"/>
			<point x="217" y="819" type="line"/>
			<point x="217" y="833" type="line"/>
			<point x="19" y="833" type="line"/>
		</contour>
		<contour>
			<point x="65" y="414" type="line"/>
			<point x="170" y="414" type="line"/>
			<point x="170" y="833" type="line"/>
			<point x="65" y="833" type="line"/>
		</contour>
	</outline>
</glyph>
<glyph name="Icyr.sc" format="2">
	<advance width="651"/>
	<outline>
		<contour>
			<point x="94" y="0" type="curve"/>
			<point x="228" y="0" type="line"/>
			<point x="228" y="247" type="line" smooth="yes"/>
			<point x="228" y="341"/>
			<point x="228" y="428"/>
			<point x="228" y="522" type="curve"/>
			<point x="94" y="522" type="line"/>
			<point x="98" y="458"/>
			<point x="98" y="366"/>
			<point x="98" y="282" type="curve" smooth="yes"/>
			<point x="98" y="247" type="line" smooth="yes"/>
			<point x="98" y="162"/>
			<point x="97" y="65"/>
		</contour>
		<contour>
			<point x="422" y="0" type="curve"/>
			<point x="556" y="0" type="line"/>
			<point x="552" y="65"/>
			<point x="552" y="162"/>
			<point x="552" y="247" type="curve" smooth="yes"/>
			<point x="552" y="282" type="line" smooth="yes"/>
			<point x="552" y="366"/>
			<point x="552" y="458"/>
			<point x="556" y="522" type="curve"/>
			<point x="422" y="522" type="line"/>
			<point x="422" y="282" type="line" smooth="yes"/>
			<point x="422" y="185"/>
			<point x="422" y="97"/>
		</contour>
		<contour>
			<point x="36" y="0" type="line"/>
			<point x="290" y="0" type="line"/>
			<point x="290" y="21" type="line"/>
			<point x="196" y="35" type="line"/>
			<point x="130" y="35" type="line"/>
			<point x="36" y="21" type="line"/>
		</contour>
		<contour>
			<point x="36" y="501" type="line"/>
			<point x="130" y="487" type="line"/>
			<point x="196" y="487" type="line"/>
			<point x="290" y="501" type="line"/>
			<point x="290" y="522" type="line"/>
			<point x="36" y="522" type="line"/>
		</contour>
		<contour>
			<point x="360" y="0" type="line"/>
			<point x="614" y="0" type="line"/>
			<point x="614" y="21" type="line"/>
			<point x="520" y="35" type="line"/>
			<point x="453" y="35" type="line"/>
			<point x="360" y="21" type="line"/>
		</contour>
		<contour>
			<point x="360" y="501" type="line"/>
			<point x="453" y="487" type="line"/>
			<point x="520" y="487" type="line"/>
			<point x="614" y="501" type="line"/>
			<point x="614" y="522" type="line"/>
			<point x="360" y="522" type="line"/>
		</contour>
		<contour>
			<point x="187" y="90" type="line"/>
			<point x="195" y="42" type="line"/>
			<point x="327" y="236" type="line"/>
			<point x="458" y="430" type="line"/>
			<point x="466" y="430" type="line"/>
			<point x="458" y="477" type="line"/>
			<point x="327" y="284" type="line"/>
			<point x="195" y="90" type="line"/>
		</contour>
	</outline>
	<anchor name="aboveUC" x="325" y="542"/>
</glyph>
<glyph name="Icyr.scbgr" format="2">
	<advance width="654"/>
	<outline>
		<contour>
			<point x="94" y="0" type="curve"/>
			<point x="206" y="0" type="line"/>
			<point x="225" y="84" type="line"/>
			<point x="229" y="367"/>
			<point x="232" y="486"/>
			<point x="233" y="522" type="curve"/>
			<point x="94" y="522" type="line"/>
			<point x="98" y="458"/>
			<point x="98" y="366"/>
			<point x="98" y="282" type="curve" smooth="yes"/>
			<point x="98" y="247" type="line" smooth="yes"/>
			<point x="98" y="162"/>
			<point x="97" y="65"/>
		</contour>
		<contour>
			<point x="421" y="0" type="curve"/>
			<point x="560" y="0" type="line"/>
			<point x="556" y="65"/>
			<point x="555" y="157"/>
			<point x="555" y="241" type="curve" smooth="yes"/>
			<point x="555" y="277" type="line" smooth="yes"/>
			<point x="555" y="362"/>
			<point x="557" y="458"/>
			<point x="561" y="522" type="curve"/>
			<point x="448" y="522" type="line"/>
			<point x="428" y="438" type="line"/>
			<point x="425" y="156"/>
			<point x="422" y="35"/>
		</contour>
		<contour>
			<point x="36" y="501" type="line"/>
			<point x="130" y="487" type="line"/>
			<point x="196" y="487" type="line"/>
			<point x="290" y="501" type="line"/>
			<point x="290" y="522" type="line"/>
			<point x="36" y="522" type="line"/>
		</contour>
		<contour>
			<point x="189" y="0" type="line"/>
			<point x="215" y="0" type="line"/>
			<point x="451" y="490" type="line"/>
			<point x="466" y="490" type="line"/>
			<point x="466" y="522" type="line"/>
			<point x="438" y="522" type="line"/>
			<point x="204" y="32" type="line"/>
			<point x="189" y="32" type="line"/>
		</contour>
		<contour>
			<point x="364" y="0" type="line"/>
			<point x="617" y="0" type="line"/>
			<point x="617" y="21" type="line"/>
			<point x="524" y="35" type="line"/>
			<point x="457" y="35" type="line"/>
			<point x="364" y="21" type="line"/>
		</contour>
		<contour>
			<point x="36" y="0" type="line"/>
			<point x="170" y="0" type="line"/>
			<point x="170" y="35" type="line"/>
			<point x="130" y="35" type="line"/>
			<point x="36" y="21" type="line"/>
		</contour>
		<contour>
			<point x="485" y="487" type="line"/>
			<point x="524" y="487" type="line"/>
			<point x="617" y="501" type="line"/>
			<point x="617" y="522" type="line"/>
			<point x="485" y="522" type="line"/>
		</contour>
	</outline>
	<anchor name="aboveUC" x="337" y="542"/>
</glyph>
<glyph name="K.sups" format="2">
	<advance width="451"/>
	<outline>
		<contour>
			<point x="65" y="414" type="line"/>
			<point x="170" y="414" type="line"/>
			<point x="170" y="833" type="line"/>
			<point x="65" y="833" type="line"/>
		</contour>
		<contour>
			<point x="19" y="414" type="line"/>
			<point x="215" y="414" type="line"/>
			<point x="215" y="428" type="line"/>
			<point x="145" y="439" type="line"/>
			<point x="90" y="439" type="line"/>
			<point x="19" y="428" type="line"/>
		</contour>
		<contour>
			<point x="19" y="819" type="line"/>
			<point x="90" y="809" type="line"/>
			<point x="145" y="809" type="line"/>
			<point x="217" y="819" type="line"/>
			<point x="217" y="833" type="line"/>
			<point x="19" y="833" type="line"/>
		</contour>
		<contour>
			<point x="281" y="819" type="line"/>
			<point x="351" y="809" type="line"/>
			<point x="357" y="809" type="line"/>
			<point x="422" y="819" type="line"/>
			<point x="422" y="833" type="line"/>
			<point x="281" y="833" type="line"/>
		</contour>
		<contour>
			<point x="301" y="414" type="line"/>
			<point x="419" y="414" type="line"/>
			<point x="264" y="709" type="line"/>
			<point x="198" y="622" type="line"/>
		</contour>
		<contour>
			<point x="114" y="509" type="line"/>
			<point x="387" y="833" type="line"/>
			<point x="358" y="833" type="line"/>
			<point x="140" y="565" type="line"/>
			<point x="129" y="552" type="line"/>
			<point x="113" y="552" type="line"/>
		</contour>
		<contour>
			<point x="256" y="414" type="line"/>
			<point x="449" y="414" type="line"/>
			<point x="449" y="428" type="line"/>
			<point x="381" y="439" type="line"/>
			<point x="323" y="439" type="line"/>
			<point x="256" y="428" type="line"/>
		</contour>
	</outline>
</glyph>
<glyph name="Kadescender.sc" format="2">
	<advance width="595"/>
	<outline>
		<contour>
			<point x="493" y="0" type="line"/>
			<point x="548" y="0" type="line"/>
			<point x="515" y="18" type="line"/>
			<point x="555" y="-158" type="line"/>
			<point x="577" y="-158" type="line"/>
			<point x="589" y="22" type="line"/>
			<point x="493" y="36" type="line"/>
		</contour>
		<component base="Ka.sc"/>
	</outline>
</glyph>
<glyph name="L.sups" format="2">
	<advance width="353"/>
	<outline>
		<contour>
			<point x="18" y="418" type="line"/>
			<point x="145" y="418" type="line"/>
			<point x="145" y="443" type="line"/>
			<point x="90" y="443" type="line"/>
			<point x="18" y="433" type="line"/>
		</contour>
		<contour>
			<point x="65" y="418" type="line"/>
			<point x="170" y="418" type="line"/>
			<point x="170" y="838" type="line"/>
			<point x="65" y="838" type="line"/>
		</contour>
		<contour>
			<point x="120" y="418" type="line"/>
			<point x="332" y="418" type="line"/>
			<point x="340" y="538" type="line"/>
			<point x="325" y="538" type="line"/>
			<point x="271" y="426" type="line"/>
			<point x="295" y="436" type="line"/>
			<point x="120" y="436" type="line"/>
		</contour>
		<contour>
			<point x="19" y="823" type="line"/>
			<point x="90" y="814" type="line"/>
			<point x="145" y="814" type="line"/>
			<point x="217" y="823" type="line"/>
			<point x="217" y="838" type="line"/>
			<point x="19" y="838" type="line"/>
		</contour>
	</outline>
</glyph>
<glyph name="Lambda.sc" format="2">
	<advance width="577"/>
	<outline>
		<contour>
			<point x="20" y="0" type="line"/>
			<point x="171" y="0" type="line"/>
			<point x="171" y="21" type="line"/>
			<point x="98" y="30" type="line"/>
			<point x="83" y="30" type="line"/>
			<point x="20" y="21" type="line"/>
		</contour>
		<contour>
			<point x="66" y="0" type="line"/>
			<point x="96" y="0" type="line"/>
			<point x="236" y="387" type="line"/>
			<point x="239" y="394" type="line"/>
			<point x="229" y="394" type="line"/>
			<point x="371" y="0" type="line"/>
			<point x="512" y="0" type="line"/>
			<point x="324" y="523" type="line"/>
			<point x="253" y="523" type="line"/>
		</contour>
		<contour>
			<point x="298" y="0" type="line"/>
			<point x="557" y="0" type="line"/>
			<point x="557" y="21" type="line"/>
			<point x="481" y="35" type="line"/>
			<point x="399" y="35" type="line"/>
			<point x="298" y="21" type="line"/>
		</contour>
	</outline>
</glyph>
<glyph name="N.sups" format="2">
	<advance width="433"/>
	<outline>
		<contour>
			<point x="16" y="414" type="line"/>
			<point x="140" y="414" type="line"/>
			<point x="140" y="428" type="line"/>
			<point x="84" y="434" type="line"/>
			<point x="67" y="434" type="line"/>
			<point x="16" y="428" type="line"/>
		</contour>
		<contour>
			<point x="65" y="414" type="line"/>
			<point x="86" y="414" type="line"/>
			<point x="86" y="763" type="line"/>
			<point x="86" y="829" type="line"/>
			<point x="65" y="829" type="line"/>
		</contour>
		<contour>
			<point x="327" y="413" type="line"/>
			<point x="372" y="413" type="line"/>
			<point x="372" y="833" type="line"/>
			<point x="350" y="833" type="line"/>
			<point x="350" y="559" type="line"/>
			<point x="350" y="555" type="line"/>
			<point x="356" y="555" type="line"/>
			<point x="163" y="833" type="line"/>
			<point x="16" y="833" type="line"/>
			<point x="16" y="819" type="line"/>
			<point x="49" y="814" type="line"/>
			<point x="74" y="780" type="line"/>
			<point x="85" y="763" type="line"/>
		</contour>
		<contour>
			<point x="353" y="813" type="line"/>
			<point x="369" y="813" type="line"/>
			<point x="416" y="819" type="line"/>
			<point x="416" y="833" type="line"/>
			<point x="293" y="833" type="line"/>
			<point x="293" y="819" type="line"/>
		</contour>
	</outline>
</glyph>
<glyph name="O.sups" format="2">
	<advance width="449"/>
	<outline>
		<contour>
			<point x="224" y="404" type="curve" smooth="yes"/>
			<point x="330" y="404"/>
			<point x="424" y="474"/>
			<point x="424" y="623" type="curve" smooth="yes"/>
			<point x="424" y="773"/>
			<point x="329" y="843"/>
			<point x="224" y="843" type="curve" smooth="yes"/>
			<point x="120" y="843"/>
			<point x="24" y="773"/>
			<point x="24" y="624" type="curve" smooth="yes"/>
			<point x="24" y="474"/>
			<point x="119" y="404"/>
		</contour>
		<contour>
			<point x="224" y="421" type="curve" smooth="yes"/>
			<point x="162" y="421"/>
			<point x="138" y="500"/>
			<point x="138" y="625" type="curve" smooth="yes"/>
			<point x="138" y="748"/>
			<point x="162" y="826"/>
			<point x="224" y="826" type="curve" smooth="yes"/>
			<point x="286" y="826"/>
			<point x="311" y="748"/>
			<point x="311" y="624" type="curve" smooth="yes"/>
			<point x="311" y="500"/>
			<point x="286" y="421"/>
		</contour>
	</outline>
</glyph>
<glyph name="Phi.sc" format="2">
	<advance width="681"/>
	<outline>
		<contour>
			<point x="36" y="270" type="curve" smooth="yes"/>
			<point x="36" y="150"/>
			<point x="137" y="92"/>
			<point x="298" y="92" type="curve" smooth="yes"/>
			<point x="340" y="92" type="line"/>
			<point x="340" y="114" type="line"/>
			<point x="289" y="114" type="line" smooth="yes"/>
			<point x="213" y="114"/>
			<point x="164" y="174"/>
			<point x="164" y="270" type="curve" smooth="yes"/>
			<point x="164" y="365"/>
			<point x="206" y="424"/>
			<point x="289" y="424" type="curve" smooth="yes"/>
			<point x="340" y="424" type="line"/>
			<point x="340" y="446" type="line"/>
			<point x="295" y="446" type="line" smooth="yes"/>
			<point x="130" y="446"/>
			<point x="36" y="377"/>
		</contour>
		<contour>
			<point x="342" y="92" type="line"/>
			<point x="383" y="92" type="line" smooth="yes"/>
			<point x="544" y="92"/>
			<point x="645" y="147"/>
			<point x="645" y="269" type="curve" smooth="yes"/>
			<point x="645" y="375"/>
			<point x="551" y="446"/>
			<point x="386" y="446" type="curve" smooth="yes"/>
			<point x="342" y="446" type="line"/>
			<point x="342" y="424" type="line"/>
			<point x="392" y="424" type="line" smooth="yes"/>
			<point x="474" y="424"/>
			<point x="517" y="364"/>
			<point x="517" y="269" type="curve" smooth="yes"/>
			<point x="517" y="173"/>
			<point x="468" y="114"/>
			<point x="392" y="114" type="curve" smooth="yes"/>
			<point x="342" y="114" type="line"/>
		</contour>
		<contour>
			<point x="279" y="0" type="curve"/>
			<point x="402" y="0" type="line"/>
			<point x="402" y="90"/>
			<point x="402" y="172"/>
			<point x="402" y="262" type="curve" smooth="yes"/>
			<point x="402" y="282" type="line" smooth="yes"/>
			<point x="402" y="369"/>
			<point x="402" y="443"/>
			<point x="402" y="531" type="curve"/>
			<point x="279" y="531" type="line"/>
			<point x="279" y="443"/>
			<point x="279" y="369"/>
			<point x="279" y="282" type="curve" smooth="yes"/>
			<point x="279" y="262" type="line" smooth="yes"/>
			<point x="279" y="172"/>
			<point x="279" y="90"/>
		</contour>
		<contour>
			<point x="216" y="510" type="line"/>
			<point x="311" y="496" type="line"/>
			<point x="371" y="496" type="line"/>
			<point x="464" y="510" type="line"/>
			<point x="464" y="531" type="line"/>
			<point x="216" y="531" type="line"/>
		</contour>
		<contour>
			<point x="216" y="0" type="line"/>
			<point x="464" y="0" type="line"/>
			<point x="464" y="21" type="line"/>
			<point x="371" y="35" type="line"/>
			<point x="311" y="35" type="line"/>
			<point x="216" y="21" type="line"/>
		</contour>
	</outline>
</glyph>
<glyph name="Q.sups" format="2">
	<advance width="449"/>
	<outline>
		<contour>
			<point x="315" y="285" type="curve" smooth="yes"/>
			<point x="347" y="285"/>
			<point x="384" y="296"/>
			<point x="405" y="318" type="curve"/>
			<point x="398" y="328" type="line"/>
			<point x="382" y="322"/>
			<point x="364" y="321"/>
			<point x="351" y="321" type="curve" smooth="yes"/>
			<point x="302" y="321"/>
			<point x="262" y="353"/>
			<point x="272" y="416" type="curve"/>
			<point x="175" y="420" type="line"/>
			<point x="175" y="415" type="line" smooth="yes"/>
			<point x="175" y="334"/>
			<point x="221" y="285"/>
		</contour>
		<component base="O.sups"/>
	</outline>
</glyph>
<glyph name="R.sc" format="2">
	<advance width="598"/>
	<outline>
		<contour>
			<point x="36" y="0" type="line"/>
			<point x="292" y="0" type="line"/>
			<point x="292" y="21" type="line"/>
			<point x="199" y="35" type="line"/>
			<point x="130" y="35" type="line"/>
			<point x="36" y="21" type="line"/>
		</contour>
		<contour>
			<point x="94" y="0" type="curve"/>
			<point x="232" y="0" type="line"/>
			<point x="229" y="65"/>
			<point x="228" y="162"/>
			<point x="228" y="247" type="curve" smooth="yes"/>
			<point x="228" y="282" type="line" smooth="yes"/>
			<point x="228" y="366"/>
			<point x="229" y="458"/>
			<point x="232" y="522" type="curve"/>
			<point x="94" y="522" type="line"/>
			<point x="98" y="458"/>
			<point x="98" y="366"/>
			<point x="98" y="282" type="curve" smooth="yes"/>
			<point x="98" y="247" type="line" smooth="yes"/>
			<point x="98" y="162"/>
			<point x="97" y="65"/>
		</contour>
		<contour>
			<point x="130" y="487" type="line"/>
			<point x="196" y="487" type="line"/>
			<point x="196" y="522" type="line"/>
			<point x="36" y="522" type="line"/>
			<point x="36" y="501" type="line"/>
		</contour>
		<contour>
			<point x="496" y="-11" type="curve" smooth="yes"/>
			<point x="526" y="-11"/>
			<point x="555" y="-7"/>
			<point x="584" y="0" type="curve"/>
			<point x="584" y="21" type="line"/>
			<point x="493" y="35" type="line"/>
			<point x="538" y="11" type="line"/>
			<point x="484" y="129" type="line" smooth="yes"/>
			<point x="445" y="221"/>
			<point x="396" y="264"/>
			<point x="268" y="264" type="curve"/>
			<point x="269" y="258" type="line"/>
			<point x="424" y="259"/>
			<point x="491" y="314"/>
			<point x="491" y="389" type="curve" smooth="yes"/>
			<point x="491" y="471"/>
			<point x="424" y="522"/>
			<point x="264" y="522" type="curve" smooth="yes"/>
			<point x="158" y="522" type="line"/>
			<point x="158" y="498" type="line"/>
			<point x="263" y="498" type="line" smooth="yes"/>
			<point x="331" y="498"/>
			<point x="366" y="454"/>
			<point x="366" y="379" type="curve" smooth="yes"/>
			<point x="366" y="326"/>
			<point x="342" y="272"/>
			<point x="258" y="272" type="curve" smooth="yes"/>
			<point x="159" y="272" type="line"/>
			<point x="159" y="245" type="line"/>
			<point x="244" y="245" type="line" smooth="yes"/>
			<point x="298" y="245"/>
			<point x="319" y="211"/>
			<point x="336" y="164" type="curve" smooth="yes"/>
			<point x="367" y="79" type="line" smooth="yes"/>
			<point x="388" y="15"/>
			<point x="424" y="-11"/>
		</contour>
	</outline>
	<anchor name="aboveUC" x="289" y="542"/>
	<anchor name="belowLC" x="316" y="-20"/>
</glyph>
